{
.appVersion = "1230";
customParameters = (
{
name = fsType;
value = (
);
},
{
name = licenseURL;
value = "http://scripts.sil.org/OFL";
},
{
name = license;
value = "This Font Software is licensed under the SIL Open Font License, Version 1.1. This license is available with a FAQ at: http://scripts.sil.org/OFL";
},
{
name = trademark;
value = "Public Sans is based on Libre Franklin, which is a trademark of Impallari Type.";
},
{
name = description;
value = "Libre Franklin is a reinterpretation and expansion of the 1912 Morris Fuller Benton￢ﾀﾙs classic.";
},
{
name = vendorID;
value = IMPA;
},
{
name = note;
value = "Based on Libre Franklin\012\012";
},
{
name = vsuffix;
value = "";
},
{
name = Axes;
value = (
{
Name = Weight;
Tag = wght;
}
);
},
{
name = "Variable Font File Name";
value = "PublicSans-Italic-VF";
},
{
name = "Variable Font Family Name";
value = "Public Sans Italic VF";
}
);
date = "2019-05-07 14:56:17 +0000";
designer = "Pablo Impallari, Rodrigo Fuenzalida (Modified by Dan O. Williams)";
designerURL = "https://designsystem.digital.gov";
familyName = "Public Sans";
featurePrefixes = (
{
automatic = 1;
code = "languagesystem DFLT dflt;\012languagesystem latn dflt;\012languagesystem latn CAT;\012languagesystem latn ROM;\012languagesystem latn MOL;\012languagesystem latn KAZ;\012languagesystem latn TAT;\012languagesystem latn TRK;\012languagesystem latn CRT;\012languagesystem latn AZE;\012";
name = Languagesystems;
}
);
features = (
{
automatic = 1;
code = "feature locl;\012feature subs;\012feature sinf;\012feature sups;\012feature numr;\012feature dnom;\012feature frac;\012feature ordn;\012feature lnum;\012feature pnum;\012feature tnum;\012feature onum;\012feature salt;\012feature ss01;\012";
name = aalt;
},
{
automatic = 1;

glyphs = (
{
glyphname = A;
lastChange = "2019-05-01 05:36:38 +0000";
layers = (
{
anchors = (
{
name = bottom;
position = "{665, 0}";
},
{
name = ogonek;
position = "{1327, 10}";
},
{
name = top;
position = "{885, 1446}";
}
);
background = {
anchors = (
{
name = ogonek;
position = "{1495, 18}";
},
{
name = top;
position = "{793, 1484}";
}
);
paths = (
{
closed = 1;
nodes = (
"393 0 LINE SMOOTH",
"421 0 OFFCURVE",
"435 14 OFFCURVE",
"441 30 CURVE SMOOTH",
"523 266 LINE SMOOTH",
"527 280 OFFCURVE",
"537 288 OFFCURVE",
"553 288 CURVE SMOOTH",
"977 288 LINE SMOOTH",
"997 288 OFFCURVE",
"1001 278 OFFCURVE",
"1007 264 CURVE SMOOTH",
"1085 34 LINE SMOOTH",
"1093 8 OFFCURVE",
"1109 0 OFFCURVE",
"1129 0 CURVE SMOOTH",
"1521 0 LINE SMOOTH",
"1551 0 OFFCURVE",
"1559 40 OFFCURVE",
"1549 68 CURVE SMOOTH",
"1069 1430 LINE SMOOTH",
"1057 1462 OFFCURVE",
"1031 1484 OFFCURVE",
"997 1484 CURVE SMOOTH",
"603 1484 LINE SMOOTH",
"567 1484 OFFCURVE",
"555 1470 OFFCURVE",
"543 1438 CURVE SMOOTH",
"59 74 LINE SMOOTH",
"43 30 OFFCURVE",
"59 0 OFFCURVE",
"89 0 CURVE SMOOTH"
);
},
{
closed = 1;
nodes = (
"625 628 OFFCURVE",
"619 644 OFFCURVE",
"629 670 CURVE SMOOTH",
"751 1010 LINE SMOOTH",
"755 1024 OFFCURVE",
"769 1024 OFFCURVE",
"775 1010 CURVE SMOOTH",
"895 668 LINE SMOOTH",
"903 642 OFFCURVE",
"899 628 OFFCURVE",
"877 628 CURVE SMOOTH",
"649 628 LINE SMOOTH"
);
}
);
};
layerId = "258ED206-D907-4350-8EBA-CBDDA1C16BF7";
paths = (
{
closed = 1;
nodes = (
"343 0 LINE",
"483 280 LINE",
"937 280 LINE",
"989 0 LINE",
"1371 0 LINE",
"1081 1446 LINE",
"687 1446 LINE",
"-43 0 LINE"
);
},
{
closed = 1;
nodes = (
"829 1074 LINE",
"899 612 LINE",
"615 612 LINE"
);
}
);
width = 1474;
},
{
anchors = (
{
name = bottom;
position = "{544, 0}";
},
{
name = ogonek;
position = "{1082, 24}";
},
{
name = top;
position = "{748, 1446}";
}
);
background = {
anchors = (
{
name = ogonek;
position = "{1142, 22}";
},
{
name = top;
position = "{564, 1484}";
}
);
paths = (
{
closed = 1;
nodes = (
"34 0 LINE SMOOTH",
"46 0 OFFCURVE",
"54 4 OFFCURVE",
"56 14 CURVE SMOOTH",
"222 462 LINE SMOOTH",
"226 472 OFFCURVE",
"230 476 OFFCURVE",
"242 476 CURVE SMOOTH",
"886 476 LINE SMOOTH",
"898 476 OFFCURVE",
"902 472 OFFCURVE",
"906 462 CURVE SMOOTH",
"1068 16 LINE SMOOTH",
"1072 4 OFFCURVE",
"1080 0 OFFCURVE",
"1094 0 CURVE SMOOTH",
"1142 0 LINE SMOOTH",
"1156 0 OFFCURVE",
"1162 8 OFFCURVE",
"1158 20 CURVE SMOOTH",
"634 1464 LINE SMOOTH",
"630 1478 OFFCURVE",
"618 1484 OFFCURVE",
"598 1484 CURVE SMOOTH",
"532 1484 LINE SMOOTH",
"514 1484 OFFCURVE",
"506 1478 OFFCURVE",
"500 1462 CURVE SMOOTH",
"-30 18 LINE SMOOTH",
"-34 6 OFFCURVE",
"-28 0 OFFCURVE",
"-16 0 CURVE SMOOTH"
);
},
{
closed = 1;
nodes = (
"258 556 OFFCURVE",
"254 558 OFFCURVE",
"260 572 CURVE SMOOTH",
"550 1354 LINE SMOOTH",
"560 1382 OFFCURVE",
"570 1382 OFFCURVE",
"580 1356 CURVE SMOOTH",
"866 576 LINE SMOOTH",
"870 564 OFFCURVE",
"868 556 OFFCURVE",
"852 556 CURVE SMOOTH",
"270 556 LINE SMOOTH"
);
}
);
};
guideLines = (
{
angle = 69.4967;
position = "{-377, 110}";
},
{
angle = 110.0797;
position = "{-18, 110}";
}
);
layerId = "91AB5BCA-6A50-42DA-B2F7-8181BF189245";
paths = (
{
closed = 1;
nodes = (
"84 0 LINE",
"304 456 LINE",
"914 456 LINE",
"1002 0 LINE",
"1081 0 LINE",
"799 1446 LINE",
"697 1446 LINE",
"7 0 LINE"
);
},
{
closed = 1;
nodes = (
"739 1362 LINE",
"898 542 LINE",
"342 542 LINE"
);
}
);
width = 1234;
}
);
leftKerningGroup = A;
leftMetricsKey = X;
rightKerningGroup = A;
rightMetricsKey = X;
unicode = 0041;
},
{
glyphname = Aringacute;
lastChange = "2019-05-01 05:36:40 +0000";
layers = (
{
background = {
paths = (
{
closed = 1;
nodes = (
"428 6 LINE",
"528 294 LINE",
"996 294 LINE",
"1094 6 LINE",
"1570 6 LINE",
"1046 1490 LINE",
"556 1490 LINE",
"30 6 LINE"
);
},
{
closed = 1;
nodes = (
"760 1048 LINE",
"906 634 LINE",
"612 634 LINE"
);
},
{
closed = 1;
nodes = (
"922 1386 OFFCURVE",
"1020 1468 OFFCURVE",
"1020 1592 CURVE SMOOTH",
"1020 1712 OFFCURVE",
"922 1798 OFFCURVE",
"800 1798 CURVE SMOOTH",
"680 1798 OFFCURVE",
"580 1714 OFFCURVE",
"580 1596 CURVE SMOOTH",
"580 1470 OFFCURVE",
"678 1386 OFFCURVE",
"800 1386 CURVE SMOOTH"
);
},
{
closed = 1;
nodes = (
"746 1492 OFFCURVE",
"700 1538 OFFCURVE",
"700 1590 CURVE SMOOTH",
"700 1644 OFFCURVE",
"746 1684 OFFCURVE",
"798 1684 CURVE SMOOTH",
"852 1684 OFFCURVE",
"894 1644 OFFCURVE",
"894 1590 CURVE SMOOTH",
"894 1538 OFFCURVE",
"852 1492 OFFCURVE",
"798 1492 CURVE SMOOTH"
);
},
{
closed = 1;
nodes = (
"886 1750 LINE",
"936 1870 LINE SMOOTH",
"948 1898 OFFCURVE",
"940 1928 OFFCURVE",
"908 1928 CURVE SMOOTH",
"818 1928 LINE SMOOTH",
"780 1928 OFFCURVE",
"754 1916 OFFCURVE",
"742 1866 CURVE SMOOTH",
"714 1750 LINE"
);
}
);
};
components = (
{
name = A;
},
{
name = _ringacute;
transform = "{1, 0, 0, 1, 23, 0}";
}
);
layerId = "258ED206-D907-4350-8EBA-CBDDA1C16BF7";
width = 1474;
},
{
background = {
paths = (
{
closed = 1;
nodes = (
"876 1714 OFFCURVE",
"788 1800 OFFCURVE",
"676 1800 CURVE SMOOTH",
"566 1800 OFFCURVE",
"476 1714 OFFCURVE",
"476 1608 CURVE SMOOTH",
"476 1492 OFFCURVE",
"564 1404 OFFCURVE",
"676 1404 CURVE SMOOTH",
"788 1404 OFFCURVE",
"876 1490 OFFCURVE",
"876 1604 CURVE SMOOTH"
);
},
{
closed = 1;
nodes = (
"790 1540 OFFCURVE",
"740 1484 OFFCURVE",
"674 1484 CURVE SMOOTH",
"612 1484 OFFCURVE",
"556 1540 OFFCURVE",
"556 1602 CURVE SMOOTH",
"556 1672 OFFCURVE",
"612 1720 OFFCURVE",
"674 1720 CURVE SMOOTH",
"740 1720 OFFCURVE",
"790 1672 OFFCURVE",
"790 1602 CURVE SMOOTH"
);
},
{
closed = 1;
nodes = (
"628 1484 OFFCURVE",
"620 1478 OFFCURVE",
"614 1462 CURVE SMOOTH",
"120 18 LINE",
"116 8 OFFCURVE",
"122 0 OFFCURVE",
"134 0 CURVE SMOOTH",
"178 0 LINE SMOOTH",
"190 0 OFFCURVE",
"196 4 OFFCURVE",
"200 14 CURVE",
"354 462 LINE SMOOTH",
"358 472 OFFCURVE",
"362 476 OFFCURVE",
"374 476 CURVE SMOOTH",
"966 476 LINE SMOOTH",
"978 476 OFFCURVE",
"982 472 OFFCURVE",
"986 462 CURVE SMOOTH",
"1138 16 LINE SMOOTH",
"1142 4 OFFCURVE",
"1148 0 OFFCURVE",
"1162 0 CURVE SMOOTH",
"1216 0 LINE SMOOTH",
"1230 0 OFFCURVE",
"1236 8 OFFCURVE",
"1232 20 CURVE SMOOTH",
"746 1464 LINE",
"742 1478 OFFCURVE",
"730 1484 OFFCURVE",
"710 1484 CURVE SMOOTH",
"646 1484 LINE SMOOTH"
);
},
{
closed = 1;
nodes = (
"954 564 OFFCURVE",
"952 556 OFFCURVE",
"936 556 CURVE SMOOTH",
"398 556 LINE SMOOTH",
"386 556 OFFCURVE",
"384 558 OFFCURVE",
"390 572 CURVE SMOOTH",
"656 1354 LINE SMOOTH",
"666 1382 OFFCURVE",
"678 1382 OFFCURVE",
"686 1356 CURVE SMOOTH",
"950 576 LINE SMOOTH"
);
},
{
closed = 1;
nodes = (
"696 1928 OFFCURVE",
"686 1920 OFFCURVE",
"682 1902 CURVE SMOOTH",
"646 1750 LINE",
"722 1750 LINE",
"784 1896 LINE SMOOTH",
"792 1916 OFFCURVE",
"786 1928 OFFCURVE",
"764 1928 CURVE SMOOTH",
"718 1928 LINE SMOOTH"
);
}
);
};
components = (
{
name = A;
},
{
name = _ringacute;
transform = "{1, 0, 0, 1, -62, 0}";
}
);
layerId = "91AB5BCA-6A50-42DA-B2F7-8181BF189245";
width = 1234;
}
);
leftKerningGroup = A;
leftMetricsKey = A;
rightKerningGroup = A;
rightMetricsKey = A;
unicode = 01FA;
},
{
glyphname = AE;
lastChange = "2019-05-06 20:25:11 +0000";
layers = (
{
anchors = (
{
name = top;
position = "{1519, 1446}";
}
);
background = {
anchors = (
{
name = top;
position = "{1425, 1484}";
}
);
paths = (
{
closed = 1;
nodes = (
"1477 328 LINE SMOOTH",
"1459 328 OFFCURVE",
"1453 334 OFFCURVE",
"1453 356 CURVE SMOOTH",
"1453 556 LINE SMOOTH",
"1453 572 OFFCURVE",
"1465 584 OFFCURVE",
"1485 584 CURVE SMOOTH",
"1855 584 LINE SMOOTH",
"1881 584 OFFCURVE",
"1891 600 OFFCURVE",
"1891 618 CURVE SMOOTH",
"1891 866 LINE SMOOTH",
"1891 892 OFFCURVE",
"1877 906 OFFCURVE",
"1849 906 CURVE SMOOTH",
"1489 906 LINE SMOOTH",
"1469 906 OFFCURVE",
"1453 920 OFFCURVE",
"1453 948 CURVE SMOOTH",
"1453 1118 LINE SMOOTH",
"1453 1144 OFFCURVE",
"1469 1156 OFFCURVE",
"1499 1156 CURVE SMOOTH",
"2099 1156 LINE SMOOTH",
"2135 1156 OFFCURVE",
"2151 1178 OFFCURVE",
"2151 1210 CURVE SMOOTH",
"2153 1442 LINE SMOOTH",
"2153 1468 OFFCURVE",
"2141 1484 OFFCURVE",
"2117 1484 CURVE SMOOTH",
"819 1484 LINE SMOOTH",
"785 1484 OFFCURVE",
"769 1470 OFFCURVE",
"753 1438 CURVE SMOOTH",
"45 74 LINE SMOOTH",
"21 30 OFFCURVE",
"33 0 OFFCURVE",
"63 0 CURVE SMOOTH",
"367 0 LINE SMOOTH",
"395 0 OFFCURVE",
"411 14 OFFCURVE",
"419 30 CURVE SMOOTH",
"537 266 LINE",
"543 280 OFFCURVE",
"555 288 OFFCURVE",
"571 288 CURVE SMOOTH",
"973 288 LINE SMOOTH",
"993 288 OFFCURVE",
"999 278 OFFCURVE",
"999 260 CURVE SMOOTH",
"999 50 LINE SMOOTH",
"999 16 OFFCURVE",
"1013 0 OFFCURVE",
"1053 0 CURVE SMOOTH",
"2123 0 LINE SMOOTH",
"2157 0 OFFCURVE",
"2171 20 OFFCURVE",
"2171 44 CURVE SMOOTH",
"2171 290 LINE SMOOTH",
"2171 318 OFFCURVE",
"2155 328 OFFCURVE",
"2127 328 CURVE SMOOTH"
);
},
{
closed = 1;
nodes = (
"727 628 LINE SMOOTH",
"703 628 OFFCURVE",
"699 644 OFFCURVE",
"715 670 CURVE",
"919 1074 LINE SMOOTH",
"951 1134 OFFCURVE",
"999 1130 OFFCURVE",
"999 1070 CURVE SMOOTH",
"999 668 LINE SMOOTH",
"999 642 OFFCURVE",
"985 628 OFFCURVE",
"961 628 CURVE SMOOTH"
);
}
);
};
layerId = "258ED206-D907-4350-8EBA-CBDDA1C16BF7";
paths = (
{
closed = 1;
nodes = (
"313 0 LINE",
"491 280 LINE",
"929 280 LINE",
"887 0 LINE",
"2023 0 LINE",
"2071 320 LINE",
"1377 320 LINE",
"1415 570 LINE",
"1837 570 LINE",
"1885 884 LINE",
"1461 884 LINE",
"1499 1128 LINE",
"2175 1128 LINE",
"2225 1446 LINE",
"891 1446 LINE",
"-73 0 LINE"
);
},
{
closed = 1;
nodes = (
"1069 1202 LINE",
"979 612 LINE",
"683 612 LINE"
);
}
);
width = 2184;
},
{
anchors = (
{
name = top;
position = "{1265, 1446}";
}
);
background = {
anchors = (
{
name = top;
position = "{1231, 1484}";
}
);
paths = (
{
closed = 1;
nodes = (
"969 80 LINE SMOOTH",
"955 80 OFFCURVE",
"951 82 OFFCURVE",
"951 98 CURVE SMOOTH",
"951 692 LINE SMOOTH",
"951 708 OFFCURVE",
"955 710 OFFCURVE",
"969 710 CURVE SMOOTH",
"1505 710 LINE SMOOTH",
"1517 710 OFFCURVE",
"1521 712 OFFCURVE",
"1521 724 CURVE SMOOTH",
"1521 776 LINE SMOOTH",
"1521 786 OFFCURVE",
"1517 790 OFFCURVE",
"1507 790 CURVE SMOOTH",
"969 790 LINE SMOOTH",
"955 790 OFFCURVE",
"951 792 OFFCURVE",
"951 804 CURVE SMOOTH",
"951 1386 LINE SMOOTH",
"951 1402 OFFCURVE",
"955 1404 OFFCURVE",
"969 1404 CURVE SMOOTH",
"1645 1404 LINE SMOOTH",
"1657 1404 OFFCURVE",
"1661 1406 OFFCURVE",
"1661 1418 CURVE SMOOTH",
"1661 1470 LINE SMOOTH",
"1661 1480 OFFCURVE",
"1657 1484 OFFCURVE",
"1647 1484 CURVE SMOOTH",
"837 1484 LINE SMOOTH",
"819 1484 OFFCURVE",
"809 1478 OFFCURVE",
"801 1462 CURVE",
"-25 18 LINE SMOOTH",
"-31 8 OFFCURVE",
"-27 0 OFFCURVE",
"-15 0 CURVE SMOOTH",
"35 0 LINE SMOOTH",
"47 0 OFFCURVE",
"53 4 OFFCURVE",
"59 14 CURVE SMOOTH",
"317 462 LINE SMOOTH",
"323 472 OFFCURVE",
"329 476 OFFCURVE",
"341 476 CURVE SMOOTH",
"849 476 LINE SMOOTH",
"855 476 OFFCURVE",
"859 472 OFFCURVE",
"859 466 CURVE SMOOTH",
"859 20 LINE SMOOTH",
"859 4 OFFCURVE",
"863 0 OFFCURVE",
"877 0 CURVE SMOOTH",
"1677 0 LINE SMOOTH",
"1687 0 OFFCURVE",
"1691 4 OFFCURVE",
"1691 14 CURVE SMOOTH",
"1691 66 LINE SMOOTH",
"1691 78 OFFCURVE",
"1687 80 OFFCURVE",
"1675 80 CURVE SMOOTH"
);
},
{
closed = 1;
nodes = (
"379 556 LINE SMOOTH",
"367 556 OFFCURVE",
"365 558 OFFCURVE",
"373 572 CURVE SMOOTH",
"829 1354 LINE SMOOTH",
"845 1382 OFFCURVE",
"857 1382 OFFCURVE",
"859 1356 CURVE",
"859 574 LINE SMOOTH",
"859 564 OFFCURVE",
"855 556 OFFCURVE",
"843 556 CURVE SMOOTH"
);
}
);
};
layerId = "91AB5BCA-6A50-42DA-B2F7-8181BF189245";
paths = (
{
closed = 1;
nodes = (
"3 0 LINE",
"313 464 LINE",
"795 464 LINE",
"729 0 LINE",
"1475 0 LINE",
"1485 78 LINE",
"821 78 LINE",
"907 692 LINE",
"1419 692 LINE",
"1429 770 LINE",
"919 770 LINE",
"1003 1368 LINE",
"1641 1368 LINE",
"1651 1446 LINE",
"889 1446 LINE",
"-73 0 LINE"
);
},
{
closed = 1;
nodes = (
"921 1370 LINE",
"805 542 LINE",
"359 542 LINE"
);
}
);
width = 1688;
}
);
leftKerningGroup = AE;
rightKerningGroup = E;
rightMetricsKey = E;
unicode = 00C6;
},
{
glyphname = B;
lastChange = "2019-05-01 05:36:38 +0000";
layers = (
{
background = {
paths = (
{
closed = 1;
nodes = (
"805 0 LINE SMOOTH",
"1237 0 OFFCURVE",
"1443 130 OFFCURVE",
"1443 404 CURVE SMOOTH",
"1443 574 OFFCURVE",
"1365 676 OFFCURVE",
"1145 758 CURVE SMOOTH",
"1139 760 OFFCURVE",
"1139 770 OFFCURVE",
"1145 772 CURVE SMOOTH",
"1345 864 OFFCURVE",
"1407 954 OFFCURVE",
"1407 1092 CURVE SMOOTH",
"1407 1350 OFFCURVE",
"1187 1484 OFFCURVE",
"773 1484 CURVE SMOOTH",
"177 1484 LINE SMOOTH",
"147 1484 OFFCURVE",
"127 1462 OFFCURVE",
"127 1432 CURVE SMOOTH",
"127 44 LINE SMOOTH",
"127 20 OFFCURVE",
"145 0 OFFCURVE",
"173 0 CURVE SMOOTH"
);
},
{
closed = 1;
nodes = (
"589 300 OFFCURVE",
"581 314 OFFCURVE",
"581 344 CURVE SMOOTH",
"581 554 LINE SMOOTH",
"581 584 OFFCURVE",
"593 596 OFFCURVE",
"627 596 CURVE SMOOTH",
"805 596 LINE SMOOTH",
"905 596 OFFCURVE",
"971 536 OFFCURVE",
"971 454 CURVE SMOOTH",
"971 376 OFFCURVE",
"911 300 OFFCURVE",
"795 300 CURVE SMOOTH",
"615 300 LINE SMOOTH"
);
},
{
closed = 1;
nodes = (
"589 904 OFFCURVE",
"581 918 OFFCURVE",
"581 948 CURVE SMOOTH",
"581 1144 LINE SMOOTH",
"581 1174 OFFCURVE",
"593 1184 OFFCURVE",
"627 1184 CURVE SMOOTH",
"791 1184 LINE SMOOTH",
"885 1184 OFFCURVE",
"959 1128 OFFCURVE",
"959 1040 CURVE SMOOTH",
"959 962 OFFCURVE",
"899 904 OFFCURVE",
"805 904 CURVE SMOOTH",
"615 904 LINE SMOOTH"
);
}
);
};
layerId = "258ED206-D907-4350-8EBA-CBDDA1C16BF7";
paths = (
{
closed = 1;
nodes = (
"663 0 LINE SMOOTH",
"1079 0 OFFCURVE",
"1259 124 OFFCURVE",
"1301 394 CURVE",
"1317 502 OFFCURVE",
"1329 668 OFFCURVE",
"1087 744 CURVE",
"1277 832 OFFCURVE",
"1349 930 OFFCURVE",
"1369 1064 CURVE SMOOTH",
"1405 1310 OFFCURVE",
"1251 1446 OFFCURVE",
"851 1446 CURVE SMOOTH",
"275 1446 LINE",
"57 0 LINE"
);
},
{
closed = 1;
nodes = (
"533 582 LINE",
"775 582 LINE",
"871 582 OFFCURVE",
"927 522 OFFCURVE",
"915 442 CURVE SMOOTH",
"903 366 OFFCURVE",
"833 292 OFFCURVE",
"721 292 CURVE",
"489 292 LINE"
);
},
{
closed = 1;
nodes = (
"619 1154 LINE",
"847 1154 LINE SMOOTH",
"939 1154 OFFCURVE",
"1003 1100 OFFCURVE",
"989 1014 CURVE SMOOTH",
"977 938 OFFCURVE",
"911 882 OFFCURVE",
"821 882 CURVE SMOOTH",
"577 882 LINE"
);
}
);
width = 1383;
},
{
background = {
paths = (
{
closed = 1;
nodes = (
"543 0 LINE SMOOTH",
"893 0 OFFCURVE",
"1099 130 OFFCURVE",
"1099 394 CURVE SMOOTH",
"1099 594 OFFCURVE",
"981 712 OFFCURVE",
"801 746 CURVE SMOOTH",
"789 748 OFFCURVE",
"789 760 OFFCURVE",
"801 764 CURVE SMOOTH",
"977 818 OFFCURVE",
"1063 934 OFFCURVE",
"1063 1102 CURVE SMOOTH",
"1063 1350 OFFCURVE",
"869 1484 OFFCURVE",
"537 1484 CURVE SMOOTH",
"127 1484 LINE SMOOTH",
"113 1484 OFFCURVE",
"109 1480 OFFCURVE",
"109 1464 CURVE SMOOTH",
"109 16 LINE SMOOTH",
"109 6 OFFCURVE",
"115 0 OFFCURVE",
"125 0 CURVE SMOOTH"
);
},
{
closed = 1;
nodes = (
"205 80 OFFCURVE",
"201 86 OFFCURVE",
"201 100 CURVE SMOOTH",
"201 692 LINE SMOOTH",
"201 706 OFFCURVE",
"207 710 OFFCURVE",
"223 710 CURVE SMOOTH",
"561 710 LINE SMOOTH",
"811 710 OFFCURVE",
"1003 622 OFFCURVE",
"1003 382 CURVE SMOOTH",
"1003 164 OFFCURVE",
"849 80 OFFCURVE",
"533 80 CURVE SMOOTH",
"215 80 LINE SMOOTH"
);
},
{
closed = 1;
nodes = (
"205 790 OFFCURVE",
"201 796 OFFCURVE",
"201 810 CURVE SMOOTH",
"201 1388 LINE SMOOTH",
"201 1400 OFFCURVE",
"207 1404 OFFCURVE",
"219 1404 CURVE SMOOTH",
"529 1404 LINE SMOOTH",
"799 1404 OFFCURVE",
"967 1308 OFFCURVE",
"967 1092 CURVE SMOOTH",
"967 848 OFFCURVE",
"747 790 OFFCURVE",
"561 790 CURVE SMOOTH",
"215 790 LINE SMOOTH"
);
}
);
};
layerId = "91AB5BCA-6A50-42DA-B2F7-8181BF189245";
paths = (
{
closed = 1;
nodes = (
"529 0 LINE",
"843 0 OFFCURVE",
"1042 126 OFFCURVE",
"1078 382 CURVE",
"1106 576 OFFCURVE",
"1020 698 OFFCURVE",
"832 733 CURVE",
"1033 793 OFFCURVE",
"1118 906 OFFCURVE",
"1142 1068 CURVE SMOOTH",
"1176 1312 OFFCURVE",
"1020 1446 OFFCURVE",
"722 1446 CURVE SMOOTH",
"351 1446 LINE",
"147 0 LINE"
);
},
{
closed = 1;
nodes = (
"317 690 LINE",
"643 690 LINE SMOOTH",
"867 690 OFFCURVE",
"1039 610 OFFCURVE",
"1007 378 CURVE SMOOTH",
"977 164 OFFCURVE",
"810 82 OFFCURVE",
"526 82 CURVE",
"231 82 LINE"
);
},
{
closed = 1;
nodes = (
"411 1366 LINE",
"707 1366 LINE SMOOTH",
"951 1366 OFFCURVE",
"1099 1276 OFFCURVE",
"1069 1066 CURVE SMOOTH",
"1037 826 OFFCURVE",
"814 772 OFFCURVE",
"648 772 CURVE SMOOTH",
"327 772 LINE"
);
}
);
width = 1207;
}
);
leftKerningGroup = N;
leftMetricsKey = H;
rightKerningGroup = B;
rightMetricsKey = "=H/2";
unicode = 0042;
},
{
glyphname = C;
lastChange = "2019-05-01 05:36:21 +0000";
layers = (
{
anchors = (
{
name = bottom;
position = "{708, 0}";
},
{
name = top;
position = "{926, 1446}";
}
);
background = {
anchors = (
{
name = bottom;
position = "{708, 0}";
},
{
name = top;
position = "{926, 1446}";
}
);
guideLines = (
{
angle = -183.559;
position = "{524, 299}";
}
);
paths = (
{
closed = 1;
nodes = (
"1164 -20 OFFCURVE",
"1328 240 OFFCURVE",
"1414 540 CURVE",
"1010 540 LINE",
"968 406 OFFCURVE",
"870 292 OFFCURVE",
"738 292 CURVE SMOOTH",
"620 292 OFFCURVE",
"541 372 OFFCURVE",
"541 574 CURVE SMOOTH",
"541 818 OFFCURVE",
"616 1154 OFFCURVE",
"868 1154 CURVE SMOOTH",
"1002 1154 OFFCURVE",
"1068 1070 OFFCURVE",
"1070 936 CURVE",
"1474 936 LINE",
"1474 946 OFFCURVE",
"1475 955 OFFCURVE",
"1475 964 CURVE SMOOTH",
"1475 1261 OFFCURVE",
"1262 1466 OFFCURVE",
"930 1466 CURVE SMOOTH",
"395 1466 OFFCURVE",
"121 1025 OFFCURVE",
"121 593 CURVE SMOOTH",
"121 231 OFFCURVE",
"337 -20 OFFCURVE",
"704 -20 CURVE SMOOTH"
);
}
);
};
guideLines = (
{
angle = -183.559;
position = "{524, 299}";
}
);
layerId = "258ED206-D907-4350-8EBA-CBDDA1C16BF7";
paths = (
{
closed = 1;
nodes = (
"1164 -20 OFFCURVE",
"1328 240 OFFCURVE",
"1414 540 CURVE",
"1010 540 LINE",
"968 406 OFFCURVE",
"870 292 OFFCURVE",
"738 292 CURVE SMOOTH",
"620 292 OFFCURVE",
"541 372 OFFCURVE",
"541 574 CURVE SMOOTH",
"541 818 OFFCURVE",
"616 1154 OFFCURVE",
"868 1154 CURVE SMOOTH",
"1002 1154 OFFCURVE",
"1068 1070 OFFCURVE",
"1070 936 CURVE",
"1474 936 LINE",
"1474 1272 OFFCURVE",
"1265 1466 OFFCURVE",
"930 1466 CURVE SMOOTH",
"395 1466 OFFCURVE",
"121 1025 OFFCURVE",
"121 593 CURVE SMOOTH",
"121 231 OFFCURVE",
"337 -20 OFFCURVE",
"704 -20 CURVE SMOOTH"
);
}
);
width = 1480;
},
{
anchors = (
{
name = bottom;
position = "{606, 0}";
},
{
name = top;
position = "{796, 1446}";
}
);
background = {
anchors = (
{
name = bottom;
position = "{606, 0}";
},
{
name = top;
position = "{796, 1446}";
}
);
guideLines = (
{
angle = 90;
position = "{721, 342}";
}
);
paths = (
{
closed = 1;
nodes = (
"824 -20 OFFCURVE",
"1056 136 OFFCURVE",
"1104 344 CURVE",
"1029 370 LINE",
"959 176 OFFCURVE",
"797 62 OFFCURVE",
"613 62 CURVE SMOOTH",
"346 62 OFFCURVE",
"229 302 OFFCURVE",
"229 578 CURVE SMOOTH",
"229 949 OFFCURVE",
"442 1384 OFFCURVE",
"792 1384 CURVE SMOOTH",
"1018 1384 OFFCURVE",
"1124 1248 OFFCURVE",
"1132 1060 CURVE",
"1213 1070 LINE",
"1221 1278 OFFCURVE",
"1065 1466 OFFCURVE",
"791 1466 CURVE SMOOTH",
"389 1466 OFFCURVE",
"149 989 OFFCURVE",
"149 576 CURVE SMOOTH",
"149 259 OFFCURVE",
"290 -20 OFFCURVE",
"606 -20 CURVE SMOOTH"
);
}
);
};
guideLines = (
{
angle = 90;
position = "{721, 342}";
}
);
layerId = "91AB5BCA-6A50-42DA-B2F7-8181BF189245";
paths = (
{
closed = 1;
nodes = (
"824 -20 OFFCURVE",
"1056 136 OFFCURVE",
"1104 344 CURVE",
"1029 370 LINE",
"959 176 OFFCURVE",
"797 62 OFFCURVE",
"613 62 CURVE SMOOTH",
"346 62 OFFCURVE",
"229 302 OFFCURVE",
"229 578 CURVE SMOOTH",
"229 949 OFFCURVE",
"442 1384 OFFCURVE",
"792 1384 CURVE SMOOTH",
"1018 1384 OFFCURVE",
"1124 1248 OFFCURVE",
"1132 1060 CURVE",
"1213 1070 LINE",
"1221 1278 OFFCURVE",
"1065 1466 OFFCURVE",
"791 1466 CURVE SMOOTH",
"389 1466 OFFCURVE",
"149 989 OFFCURVE",
"149 576 CURVE SMOOTH",
"149 259 OFFCURVE",
"290 -20 OFFCURVE",
"606 -20 CURVE SMOOTH"
);
}
);
width = 1245;
}
);
leftKerningGroup = O;
leftMetricsKey = O;
rightKerningGroup = C;
rightMetricsKey = "=H/2";
unicode = 0043;
},
{
glyphname = D;
lastChange = "2019-05-01 05:36:38 +0000";
layers = (
{
anchors = (
{
name = bottom;
position = "{521, 0}";
},
{
name = center;
position = "{771, 724}";
},
{
name = top;
position = "{982, 1446}";
}
);
background = {
anchors = (
{
name = bottom;
position = "{521, 0}";
},
{
name = center;
position = "{771, 724}";
},
{
name = top;
position = "{982, 1446}";
}
);
paths = (
{
closed = 1;
nodes = (
"580 0 LINE SMOOTH",
"1090 0 OFFCURVE",
"1361 295 OFFCURVE",
"1424 706 CURVE SMOOTH",
"1432 758 OFFCURVE",
"1436 808 OFFCURVE",
"1436 856 CURVE SMOOTH",
"1436 1196 OFFCURVE",
"1235 1428 OFFCURVE",
"775 1443 CURVE SMOOTH",
"711 1446 OFFCURVE",
"575 1446 OFFCURVE",
"459 1446 CURVE SMOOTH",
"366 1446 OFFCURVE",
"287 1446 OFFCURVE",
"268 1446 CURVE",
"57 0 LINE"
);
},
{
closed = 1;
nodes = (
"617 1140 LINE",
"766 1140 LINE SMOOTH",
"935 1140 OFFCURVE",
"1036 1044 OFFCURVE",
"1036 854 CURVE SMOOTH",
"1036 824 OFFCURVE",
"1033 791 OFFCURVE",
"1028 756 CURVE SMOOTH",
"978 431 OFFCURVE",
"768 306 OFFCURVE",
"620 306 CURVE SMOOTH",
"491 306 LINE"
);
}
);
};
layerId = "258ED206-D907-4350-8EBA-CBDDA1C16BF7";
paths = (
{
closed = 1;
nodes = (
"580 0 LINE SMOOTH",
"1307 0 OFFCURVE",
"1436 585 OFFCURVE",
"1436 856 CURVE SMOOTH",
"1436 1427 OFFCURVE",
"960 1446 OFFCURVE",
"459 1446 CURVE SMOOTH",
"366 1446 OFFCURVE",
"287 1446 OFFCURVE",
"268 1446 CURVE",
"57 0 LINE"
);
},
{
closed = 1;
nodes = (
"617 1140 LINE",
"766 1140 LINE SMOOTH",
"935 1140 OFFCURVE",
"1036 1044 OFFCURVE",
"1036 854 CURVE SMOOTH",
"1036 564 OFFCURVE",
"853 306 OFFCURVE",
"620 306 CURVE SMOOTH",
"491 306 LINE"
);
}
);
width = 1498;
},
{
anchors = (
{
name = bottom;
position = "{502, 0}";
},
{
name = center;
position = "{658, 724}";
},
{
name = top;
position = "{849, 1446}";
}
);
background = {
anchors = (
{
name = bottom;
position = "{502, 0}";
},
{
name = center;
position = "{658, 724}";
},
{
name = top;
position = "{849, 1446}";
}
);
paths = (
{
closed = 1;
nodes = (
"348 0 LINE SMOOTH",
"836 0 OFFCURVE",
"1095 222 OFFCURVE",
"1167 730 CURVE SMOOTH",
"1176 797 OFFCURVE",
"1181 859 OFFCURVE",
"1181 916 CURVE SMOOTH",
"1181 1273 OFFCURVE",
"995 1442 OFFCURVE",
"569 1444 CURVE SMOOTH",
"461 1444 OFFCURVE",
"355 1446 OFFCURVE",
"351 1446 CURVE",
"150 0 LINE"
);
},
{
closed = 1;
nodes = (
"420 1364 LINE",
"544 1364 LINE SMOOTH",
"900 1364 OFFCURVE",
"1103 1259 OFFCURVE",
"1103 904 CURVE SMOOTH",
"1103 851 OFFCURVE",
"1099 794 OFFCURVE",
"1090 730 CURVE SMOOTH",
"1024 256 OFFCURVE",
"779 82 OFFCURVE",
"349 82 CURVE SMOOTH",
"240 82 LINE"
);
}
);
};
layerId = "91AB5BCA-6A50-42DA-B2F7-8181BF189245";
paths = (
{
closed = 1;
nodes = (
"348 0 LINE SMOOTH",
"980 0 OFFCURVE",
"1181 416 OFFCURVE",
"1181 916 CURVE SMOOTH",
"1181 1273 OFFCURVE",
"995 1442 OFFCURVE",
"569 1444 CURVE SMOOTH",
"461 1444 OFFCURVE",
"355 1446 OFFCURVE",
"351 1446 CURVE",
"150 0 LINE"
);
},
{
closed = 1;
nodes = (
"420 1364 LINE",
"544 1364 LINE SMOOTH",
"900 1364 OFFCURVE",
"1103 1259 OFFCURVE",
"1103 904 CURVE SMOOTH",
"1103 423 OFFCURVE",
"912 82 OFFCURVE",
"349 82 CURVE SMOOTH",
"240 82 LINE"
);
}
);
width = 1271;
}
);
leftKerningGroup = N;
leftMetricsKey = H;
rightKerningGroup = O;
rightMetricsKey = O;
unicode = 0044;
},
{
glyphname = Eth;
lastChange = "2019-05-01 05:36:21 +0000";
layers = (
{
background = {
components = (
{
name = D;
transform = "{1, 0, 0, 1, 73, 0}";
}
);
paths = (
{
closed = 1;
nodes = (
"926 830 OFFCURVE",
"912 846 OFFCURVE",
"890 846 CURVE SMOOTH",
"168 846 LINE SMOOTH",
"144 846 OFFCURVE",
"130 830 OFFCURVE",
"130 802 CURVE SMOOTH",
"130 620 LINE SMOOTH",
"130 586 OFFCURVE",
"142 572 OFFCURVE",
"182 572 CURVE SMOOTH",
"862 572 LINE SMOOTH",
"906 572 OFFCURVE",
"926 586 OFFCURVE",
"926 626 CURVE SMOOTH",
"926 808 LINE SMOOTH"
);
}
);
};
components = (
{
name = D;
transform = "{1, 0, 0, 1, 146, 0}";
}
);
layerId = "258ED206-D907-4350-8EBA-CBDDA1C16BF7";
paths = (
{
closed = 1;
nodes = (
"938 572 LINE",
"978 846 LINE",
"118 846 LINE",
"78 572 LINE"
);
}
);
width = 1644;
},
{
background = {
components = (
{
name = D;
transform = "{1, 0, 0, 1, 16, 0}";
}
);
paths = (
{
closed = 1;
nodes = (
"704 764 OFFCURVE",
"700 770 OFFCURVE",
"692 770 CURVE SMOOTH",
"120 770 LINE SMOOTH",
"110 770 OFFCURVE",
"106 764 OFFCURVE",
"106 752 CURVE SMOOTH",
"106 708 LINE SMOOTH",
"106 694 OFFCURVE",
"110 688 OFFCURVE",
"126 688 CURVE SMOOTH",
"680 688 LINE SMOOTH",
"698 688 OFFCURVE",
"704 694 OFFCURVE",
"704 710 CURVE SMOOTH",
"704 754 LINE SMOOTH"
);
}
);
};
components = (
{
name = D;
transform = "{1, 0, 0, 1, 32, 0}";
}
);
layerId = "91AB5BCA-6A50-42DA-B2F7-8181BF189245";
paths = (
{
closed = 1;
nodes = (
"704 688 LINE",
"704 770 LINE",
"106 770 LINE",
"106 688 LINE"
);
}
);
width = 1303;
}
);
leftKerningGroup = N;
rightKerningGroup = O;
rightMetricsKey = D;
unicode = 00D0;
},
{
glyphname = E;
lastChange = "2019-05-06 20:24:55 +0000";
layers = (
{
anchors = (
{
name = bottom;
position = "{587, 0}";
},
{
name = ogonek;
position = "{1121, 20}";
},
{
name = top;
position = "{785, 1446}";
}
);
background = {
anchors = (
{
name = bottom;
position = "{691, 0}";
},
{
name = ogonek;
position = "{1239, 20}";
},
{
name = top;
position = "{691, 1484}";
}
);
paths = (
{
closed = 1;
nodes = (
"123 50 LINE SMOOTH",
"123 16 OFFCURVE",
"137 0 OFFCURVE",
"177 0 CURVE SMOOTH",
"1247 0 LINE SMOOTH",
"1281 0 OFFCURVE",
"1295 20 OFFCURVE",
"1295 44 CURVE SMOOTH",
"1295 290 LINE SMOOTH",
"1295 318 OFFCURVE",
"1279 328 OFFCURVE",
"1251 328 CURVE SMOOTH",
"601 328 LINE SMOOTH",
"583 328 OFFCURVE",
"577 334 OFFCURVE",
"577 356 CURVE SMOOTH",
"577 556 LINE SMOOTH",
"577 572 OFFCURVE",
"589 584 OFFCURVE",
"609 584 CURVE SMOOTH",
"979 584 LINE SMOOTH",
"1005 584 OFFCURVE",
"1015 600 OFFCURVE",
"1015 618 CURVE SMOOTH",
"1015 866 LINE SMOOTH",
"1015 892 OFFCURVE",
"1001 906 OFFCURVE",
"973 906 CURVE SMOOTH",
"613 906 LINE SMOOTH",
"593 906 OFFCURVE",
"577 920 OFFCURVE",
"577 948 CURVE SMOOTH",
"577 1118 LINE SMOOTH",
"577 1144 OFFCURVE",
"593 1156 OFFCURVE",
"623 1156 CURVE SMOOTH",
"1223 1156 LINE SMOOTH",
"1259 1156 OFFCURVE",
"1275 1178 OFFCURVE",
"1275 1210 CURVE SMOOTH",
"1277 1442 LINE SMOOTH",
"1277 1468 OFFCURVE",
"1265 1484 OFFCURVE",
"1241 1484 CURVE SMOOTH",
"161 1484 LINE SMOOTH",
"137 1484 OFFCURVE",
"123 1468 OFFCURVE",
"123 1438 CURVE SMOOTH"
);
}
);
};
layerId = "258ED206-D907-4350-8EBA-CBDDA1C16BF7";
paths = (
{
closed = 1;
nodes = (
"1119 0 LINE",
"1169 324 LINE",
"493 324 LINE",
"531 570 LINE",
"1093 570 LINE",
"1141 884 LINE",
"581 884 LINE",
"617 1124 LINE",
"1287 1124 LINE",
"1337 1446 LINE",
"277 1446 LINE",
"57 0 LINE"
);
}
);
width = 1291;
},
{
anchors = (
{
name = bottom;
position = "{551, 0}";
},
{
name = ogonek;
position = "{931, 20}";
},
{
name = top;
position = "{715, 1446}";
}
);
background = {
anchors = (
{
name = bottom;
position = "{715, 0}";
},
{
name = ogonek;
position = "{1085, 20}";
},
{
name = top;
position = "{677, 1484}";
}
);
paths = (
{
closed = 1;
nodes = (
"215 20 LINE SMOOTH",
"215 4 OFFCURVE",
"219 0 OFFCURVE",
"233 0 CURVE SMOOTH",
"1093 0 LINE SMOOTH",
"1103 0 OFFCURVE",
"1107 4 OFFCURVE",
"1107 14 CURVE SMOOTH",
"1107 66 LINE SMOOTH",
"1107 78 OFFCURVE",
"1103 80 OFFCURVE",
"1091 80 CURVE SMOOTH",
"325 80 LINE SMOOTH",
"311 80 OFFCURVE",
"307 82 OFFCURVE",
"307 98 CURVE SMOOTH",
"307 692 LINE SMOOTH",
"307 708 OFFCURVE",
"311 710 OFFCURVE",
"325 710 CURVE SMOOTH",
"901 710 LINE SMOOTH",
"913 710 OFFCURVE",
"917 712 OFFCURVE",
"917 724 CURVE SMOOTH",
"917 776 LINE SMOOTH",
"917 786 OFFCURVE",
"913 790 OFFCURVE",
"903 790 CURVE SMOOTH",
"325 790 LINE SMOOTH",
"311 790 OFFCURVE",
"307 792 OFFCURVE",
"307 804 CURVE SMOOTH",
"307 1386 LINE SMOOTH",
"307 1402 OFFCURVE",
"311 1404 OFFCURVE",
"325 1404 CURVE SMOOTH",
"1061 1404 LINE SMOOTH",
"1073 1404 OFFCURVE",
"1077 1406 OFFCURVE",
"1077 1418 CURVE SMOOTH",
"1077 1470 LINE SMOOTH",
"1077 1480 OFFCURVE",
"1073 1484 OFFCURVE",
"1063 1484 CURVE SMOOTH",
"233 1484 LINE SMOOTH",
"219 1484 OFFCURVE",
"215 1480 OFFCURVE",
"215 1464 CURVE SMOOTH"
);
}
);
};
layerId = "91AB5BCA-6A50-42DA-B2F7-8181BF189245";
rightMetricsKey = "=140";
paths = (
{
closed = 1;
nodes = (
"937 0 LINE",
"949 82 LINE",
"231 84 LINE",
"317 690 LINE",
"961 690 LINE",
"971 772 LINE",
"327 772 LINE",
"411 1366 LINE",
"1103 1366 LINE",
"1115 1446 LINE",
"351 1446 LINE",
"147 0 LINE"
);
}
);
width = 1150;
}
);
leftKerningGroup = N;
leftMetricsKey = H;
rightKerningGroup = E;
rightMetricsKey = "=85";
unicode = 0045;
},
{
glyphname = F;
lastChange = "2019-05-01 05:36:38 +0000";
layers = (
{
background = {
paths = (
{
closed = 1;
nodes = (
"91 50 LINE SMOOTH",
"91 16 OFFCURVE",
"103 0 OFFCURVE",
"145 0 CURVE",
"479 0 LINE SMOOTH",
"525 0 OFFCURVE",
"545 16 OFFCURVE",
"545 58 CURVE SMOOTH",
"545 542 LINE SMOOTH",
"545 560 OFFCURVE",
"557 572 OFFCURVE",
"577 572 CURVE SMOOTH",
"951 572 LINE SMOOTH",
"979 572 OFFCURVE",
"987 586 OFFCURVE",
"987 606 CURVE SMOOTH",
"987 850 LINE SMOOTH",
"987 876 OFFCURVE",
"975 890 OFFCURVE",
"947 890 CURVE SMOOTH",
"581 890 LINE SMOOTH",
"559 890 OFFCURVE",
"545 902 OFFCURVE",
"545 930 CURVE SMOOTH",
"545 1118 LINE SMOOTH",
"545 1144 OFFCURVE",
"559 1156 OFFCURVE",
"591 1156 CURVE SMOOTH",
"1179 1156 LINE SMOOTH",
"1215 1156 OFFCURVE",
"1229 1178 OFFCURVE",
"1229 1210 CURVE SMOOTH",
"1231 1442 LINE SMOOTH",
"1231 1468 OFFCURVE",
"1219 1484 OFFCURVE",
"1195 1484 CURVE SMOOTH",
"129 1484 LINE SMOOTH",
"107 1484 OFFCURVE",
"91 1468 OFFCURVE",
"91 1438 CURVE SMOOTH"
);
}
);
};
layerId = "258ED206-D907-4350-8EBA-CBDDA1C16BF7";
paths = (
{
closed = 1;
nodes = (
"445 0 LINE",
"529 558 LINE",
"1083 558 LINE",
"1131 868 LINE",
"575 868 LINE",
"615 1128 LINE",
"1279 1128 LINE",
"1329 1446 LINE",
"277 1446 LINE",
"57 0 LINE"
);
}
);
width = 1263;
},
{
background = {
paths = (
{
closed = 1;
nodes = (
"225 20 LINE SMOOTH",
"225 4 OFFCURVE",
"229 0 OFFCURVE",
"243 0 CURVE SMOOTH",
"303 0 LINE SMOOTH",
"313 0 OFFCURVE",
"317 4 OFFCURVE",
"317 14 CURVE SMOOTH",
"317 666 LINE SMOOTH",
"317 682 OFFCURVE",
"321 684 OFFCURVE",
"335 684 CURVE SMOOTH",
"931 684 LINE SMOOTH",
"943 684 OFFCURVE",
"947 686 OFFCURVE",
"947 698 CURVE SMOOTH",
"947 750 LINE SMOOTH",
"947 760 OFFCURVE",
"943 764 OFFCURVE",
"933 764 CURVE SMOOTH",
"335 764 LINE SMOOTH",
"321 764 OFFCURVE",
"317 766 OFFCURVE",
"317 778 CURVE SMOOTH",
"317 1386 LINE SMOOTH",
"317 1402 OFFCURVE",
"321 1404 OFFCURVE",
"335 1404 CURVE SMOOTH",
"1051 1404 LINE SMOOTH",
"1063 1404 OFFCURVE",
"1067 1406 OFFCURVE",
"1067 1418 CURVE SMOOTH",
"1067 1470 LINE SMOOTH",
"1067 1480 OFFCURVE",
"1063 1484 OFFCURVE",
"1053 1484 CURVE SMOOTH",
"243 1484 LINE SMOOTH",
"229 1484 OFFCURVE",
"225 1480 OFFCURVE",
"225 1464 CURVE SMOOTH"
);
}
);
};
layerId = "91AB5BCA-6A50-42DA-B2F7-8181BF189245";
paths = (
{
closed = 1;
nodes = (
"227 0 LINE",
"325 692 LINE",
"951 692 LINE",
"961 774 LINE",
"337 774 LINE",
"419 1366 LINE",
"1093 1366 LINE",
"1103 1446 LINE",
"351 1446 LINE",
"149 0 LINE"
);
}
);
width = 1084;
}
);
leftKerningGroup = N;
leftMetricsKey = H;
rightKerningGroup = E;
rightMetricsKey = "=H/2";
unicode = 0046;
},
{
glyphname = G;
lastChange = "2019-05-01 05:36:21 +0000";
layers = (
{
anchors = (
{
name = bottom;
position = "{702, 0}";
},
{
name = top;
position = "{930, 1446}";
}
);
background = {
anchors = (
{
name = bottom;
position = "{808, 0}";
},
{
name = top;
position = "{808, 1484}";
}
);
paths = (
{
closed = 1;
nodes = (
"1040 -20 OFFCURVE",
"1142 80 OFFCURVE",
"1214 150 CURVE SMOOTH",
"1224 162 OFFCURVE",
"1230 162 OFFCURVE",
"1236 154 CURVE SMOOTH",
"1316 38 LINE SMOOTH",
"1336 10 OFFCURVE",
"1356 0 OFFCURVE",
"1380 0 CURVE SMOOTH",
"1456 0 LINE SMOOTH",
"1476 0 OFFCURVE",
"1490 16 OFFCURVE",
"1490 34 CURVE SMOOTH",
"1490 688 LINE SMOOTH",
"1490 724 OFFCURVE",
"1464 750 OFFCURVE",
"1414 750 CURVE SMOOTH",
"854 754 LINE SMOOTH",
"824 754 OFFCURVE",
"812 740 OFFCURVE",
"812 720 CURVE SMOOTH",
"812 528 LINE SMOOTH",
"812 494 OFFCURVE",
"824 484 OFFCURVE",
"852 484 CURVE SMOOTH",
"1040 484 LINE SMOOTH",
"1060 484 OFFCURVE",
"1066 472 OFFCURVE",
"1058 450 CURVE",
"1052 432 LINE",
"1016 340 OFFCURVE",
"948 292 OFFCURVE",
"836 292 CURVE SMOOTH",
"684 292 OFFCURVE",
"580 386 OFFCURVE",
"580 748 CURVE SMOOTH",
"580 1088 OFFCURVE",
"672 1194 OFFCURVE",
"820 1194 CURVE SMOOTH",
"964 1194 OFFCURVE",
"1034 1094 OFFCURVE",
"1054 984 CURVE SMOOTH",
"1060 958 OFFCURVE",
"1062 944 OFFCURVE",
"1094 944 CURVE SMOOTH",
"1436 996 LINE SMOOTH",
"1468 1000 OFFCURVE",
"1476 1010 OFFCURVE",
"1464 1066 CURVE SMOOTH",
"1416 1280 OFFCURVE",
"1190 1504 OFFCURVE",
"830 1504 CURVE SMOOTH",
"402 1504 OFFCURVE",
"104 1198 OFFCURVE",
"104 736 CURVE SMOOTH",
"104 290 OFFCURVE",
"382 -20 OFFCURVE",
"804 -20 CURVE SMOOTH"
);
}
);
};
layerId = "258ED206-D907-4350-8EBA-CBDDA1C16BF7";
paths = (
{
closed = 1;
nodes = (
"932 -20 OFFCURVE",
"1048 86 OFFCURVE",
"1132 160 CURVE",
"1108 0 LINE",
"1362 0 LINE",
"1478 764 LINE",
"820 768 LINE",
"780 506 LINE",
"1030 506 LINE",
"1006 454 LINE",
"976 388 OFFCURVE",
"886 318 OFFCURVE",
"776 318 CURVE SMOOTH",
"652 318 OFFCURVE",
"496 376 OFFCURVE",
"550 730 CURVE SMOOTH",
"598 1042 OFFCURVE",
"742 1144 OFFCURVE",
"886 1144 CURVE SMOOTH",
"1020 1144 OFFCURVE",
"1080 1054 OFFCURVE",
"1088 936 CURVE",
"1492 936 LINE",
"1528 1206 OFFCURVE",
"1330 1466 OFFCURVE",
"944 1466 CURVE SMOOTH",
"530 1466 OFFCURVE",
"196 1168 OFFCURVE",
"128 718 CURVE SMOOTH",
"60 282 OFFCURVE",
"286 -20 OFFCURVE",
"694 -20 CURVE SMOOTH"
);
}
);
width = 1543;
},
{
anchors = (
{
name = bottom;
position = "{586, 0}";
},
{
name = top;
position = "{792, 1446}";
}
);
background = {
anchors = (
{
name = bottom;
position = "{722, 0}";
},
{
name = top;
position = "{712, 1484}";
}
);
paths = (
{
closed = 1;
nodes = (
"932 -20 OFFCURVE",
"1078 90 OFFCURVE",
"1156 230 CURVE SMOOTH",
"1164 244 OFFCURVE",
"1172 242 OFFCURVE",
"1172 230 CURVE SMOOTH",
"1172 18 LINE SMOOTH",
"1172 0 OFFCURVE",
"1182 0 OFFCURVE",
"1198 0 CURVE SMOOTH",
"1232 0 LINE SMOOTH",
"1246 0 OFFCURVE",
"1252 4 OFFCURVE",
"1252 22 CURVE SMOOTH",
"1252 742 LINE SMOOTH",
"1252 750 OFFCURVE",
"1248 754 OFFCURVE",
"1240 754 CURVE SMOOTH",
"768 754 LINE SMOOTH",
"762 754 OFFCURVE",
"758 750 OFFCURVE",
"758 742 CURVE SMOOTH",
"758 696 LINE SMOOTH",
"758 688 OFFCURVE",
"762 684 OFFCURVE",
"772 684 CURVE SMOOTH",
"1150 684 LINE SMOOTH",
"1162 684 OFFCURVE",
"1172 682 OFFCURVE",
"1172 668 CURVE SMOOTH",
"1172 510 LINE SMOOTH",
"1172 322 OFFCURVE",
"1028 64 OFFCURVE",
"712 64 CURVE SMOOTH",
"386 64 OFFCURVE",
"216 306 OFFCURVE",
"216 748 CURVE SMOOTH",
"216 1168 OFFCURVE",
"390 1420 OFFCURVE",
"712 1420 CURVE SMOOTH",
"924 1420 OFFCURVE",
"1094 1280 OFFCURVE",
"1126 1102 CURVE SMOOTH",
"1128 1092 OFFCURVE",
"1134 1088 OFFCURVE",
"1140 1090 CURVE SMOOTH",
"1210 1102 LINE SMOOTH",
"1220 1104 OFFCURVE",
"1220 1110 OFFCURVE",
"1220 1118 CURVE SMOOTH",
"1196 1326 OFFCURVE",
"958 1504 OFFCURVE",
"712 1504 CURVE SMOOTH",
"350 1504 OFFCURVE",
"120 1228 OFFCURVE",
"120 736 CURVE SMOOTH",
"120 258 OFFCURVE",
"340 -20 OFFCURVE",
"710 -20 CURVE SMOOTH"
);
}
);
};
layerId = "91AB5BCA-6A50-42DA-B2F7-8181BF189245";
paths = (
{
closed = 1;
nodes = (
"790 -20 OFFCURVE",
"942 100 OFFCURVE",
"1036 252 CURVE",
"1000 0 LINE",
"1072 0 LINE",
"1176 736 LINE",
"732 736 LINE",
"722 666 LINE",
"1094 666 LINE",
"1070 498 LINE SMOOTH",
"1044 314 OFFCURVE",
"880 58 OFFCURVE",
"596 58 CURVE SMOOTH",
"304 58 OFFCURVE",
"174 298 OFFCURVE",
"234 730 CURVE SMOOTH",
"292 1138 OFFCURVE",
"494 1384 OFFCURVE",
"782 1384 CURVE SMOOTH",
"974 1384 OFFCURVE",
"1106 1242 OFFCURVE",
"1108 1060 CURVE",
"1196 1076 LINE",
"1206 1288 OFFCURVE",
"1016 1466 OFFCURVE",
"794 1466 CURVE SMOOTH",
"468 1466 OFFCURVE",
"224 1198 OFFCURVE",
"158 718 CURVE SMOOTH",
"92 252 OFFCURVE",
"250 -20 OFFCURVE",
"584 -20 CURVE SMOOTH"
);
}
);
width = 1335;
}
);
leftKerningGroup = O;
leftMetricsKey = O;
rightKerningGroup = G;
rightMetricsKey = "=H-30";
unicode = 0047;
},
{
glyphname = H;
lastChange = "2019-05-01 05:36:38 +0000";
layers = (
{
anchors = (
{
name = bottom;
position = "{653, 0}";
},
{
name = top;
position = "{881, 1446}";
}
);
background = {
anchors = (
{
name = bottom;
position = "{759, 0}";
},
{
name = top;
position = "{763, 1484}";
}
);
paths = (
{
closed = 1;
nodes = (
"957 594 OFFCURVE",
"969 580 OFFCURVE",
"969 564 CURVE SMOOTH",
"969 58 LINE SMOOTH",
"969 16 OFFCURVE",
"989 0 OFFCURVE",
"1035 0 CURVE SMOOTH",
"1369 0 LINE SMOOTH",
"1411 0 OFFCURVE",
"1423 16 OFFCURVE",
"1423 50 CURVE SMOOTH",
"1423 1438 LINE SMOOTH",
"1423 1468 OFFCURVE",
"1407 1484 OFFCURVE",
"1385 1484 CURVE SMOOTH",
"1005 1484 LINE SMOOTH",
"983 1484 OFFCURVE",
"969 1468 OFFCURVE",
"969 1442 CURVE SMOOTH",
"969 978 LINE SMOOTH",
"969 952 OFFCURVE",
"955 938 OFFCURVE",
"933 938 CURVE SMOOTH",
"597 938 LINE SMOOTH",
"575 938 OFFCURVE",
"561 952 OFFCURVE",
"561 978 CURVE SMOOTH",
"561 1442 LINE SMOOTH",
"561 1468 OFFCURVE",
"547 1484 OFFCURVE",
"525 1484 CURVE SMOOTH",
"145 1484 LINE SMOOTH",
"123 1484 OFFCURVE",
"107 1468 OFFCURVE",
"107 1438 CURVE SMOOTH",
"107 50 LINE SMOOTH",
"107 16 OFFCURVE",
"119 0 OFFCURVE",
"161 0 CURVE SMOOTH",
"495 0 LINE SMOOTH",
"541 0 OFFCURVE",
"561 16 OFFCURVE",
"561 58 CURVE SMOOTH",
"561 564 LINE SMOOTH",
"561 580 OFFCURVE",
"573 594 OFFCURVE",
"593 594 CURVE SMOOTH",
"937 594 LINE SMOOTH"
);
}
);
};
layerId = "258ED206-D907-4350-8EBA-CBDDA1C16BF7";
paths = (
{
closed = 1;
nodes = (
"445 0 LINE",
"533 580 LINE",
"967 580 LINE",
"879 0 LINE",
"1267 0 LINE",
"1487 1446 LINE",
"1099 1446 LINE",
"1017 898 LINE",
"581 898 LINE",
"665 1446 LINE",
"277 1446 LINE",
"57 0 LINE"
);
}
);
width = 1486;
},
{
anchors = (
{
name = bottom;
position = "{587, 0}";
},
{
name = top;
position = "{791, 1446}";
}
);
background = {
anchors = (
{
name = bottom;
position = "{709, 0}";
},
{
name = top;
position = "{709, 1484}";
}
);
paths = (
{
closed = 1;
nodes = (
"1109 732 OFFCURVE",
"1113 728 OFFCURVE",
"1113 718 CURVE SMOOTH",
"1113 18 LINE SMOOTH",
"1113 4 OFFCURVE",
"1119 0 OFFCURVE",
"1133 0 CURVE SMOOTH",
"1187 0 LINE SMOOTH",
"1199 0 OFFCURVE",
"1205 6 OFFCURVE",
"1205 20 CURVE SMOOTH",
"1205 1464 LINE SMOOTH",
"1205 1480 OFFCURVE",
"1201 1484 OFFCURVE",
"1187 1484 CURVE SMOOTH",
"1129 1484 LINE SMOOTH",
"1117 1484 OFFCURVE",
"1113 1478 OFFCURVE",
"1113 1466 CURVE SMOOTH",
"1113 828 LINE SMOOTH",
"1113 816 OFFCURVE",
"1109 812 OFFCURVE",
"1097 812 CURVE SMOOTH",
"321 812 LINE SMOOTH",
"307 812 OFFCURVE",
"303 814 OFFCURVE",
"303 830 CURVE SMOOTH",
"303 1464 LINE SMOOTH",
"303 1480 OFFCURVE",
"299 1484 OFFCURVE",
"285 1484 CURVE SMOOTH",
"229 1484 LINE SMOOTH",
"215 1484 OFFCURVE",
"211 1480 OFFCURVE",
"211 1464 CURVE SMOOTH",
"211 20 LINE SMOOTH",
"211 6 OFFCURVE",
"215 0 OFFCURVE",
"229 0 CURVE SMOOTH",
"283 0 LINE SMOOTH",
"297 0 OFFCURVE",
"303 6 OFFCURVE",
"303 18 CURVE SMOOTH",
"303 720 LINE SMOOTH",
"303 726 OFFCURVE",
"307 732 OFFCURVE",
"315 732 CURVE SMOOTH",
"1099 732 LINE SMOOTH"
);
}
);
};
layerId = "91AB5BCA-6A50-42DA-B2F7-8181BF189245";
paths = (
{
closed = 1;
nodes = (
"219 0 LINE",
"319 712 LINE",
"1053 712 LINE",
"953 0 LINE",
"1025 0 LINE",
"1229 1446 LINE",
"1157 1446 LINE",
"1065 794 LINE",
"331 794 LINE",
"423 1446 LINE",
"351 1446 LINE",
"147 0 LINE"
);
}
);
width = 1318;
}
);
leftKerningGroup = N;
rightKerningGroup = N;
unicode = 0048;
},
{
glyphname = Hbar;
lastChange = "2019-05-07 23:00:56 +0000";
layers = (
{
background = {
components = (
{
name = H;
transform = "{1, 0, 0, 1, 35, 0}";
}
);
paths = (
{
closed = 1;
nodes = (
"1557 1270 OFFCURVE",
"1545 1284 OFFCURVE",
"1525 1284 CURVE SMOOTH",
"29 1284 LINE SMOOTH",
"11 1284 OFFCURVE",
"-1 1270 OFFCURVE",
"-1 1244 CURVE SMOOTH",
"-1 1126 LINE SMOOTH",
"-1 1096 OFFCURVE",
"9 1082 OFFCURVE",
"41 1082 CURVE SMOOTH",
"1501 1082 LINE SMOOTH",
"1539 1082 OFFCURVE",
"1557 1096 OFFCURVE",
"1557 1130 CURVE SMOOTH",
"1557 1248 LINE SMOOTH"
);
}
);
};
components = (
{
name = H;
transform = "{1, 0, 0, 1, 71, 0}";
}
);
layerId = "258ED206-D907-4350-8EBA-CBDDA1C16BF7";
paths = (
{
closed = 1;
nodes = (
"1667 1082 LINE",
"1697 1284 LINE",
"149 1284 LINE",
"119 1082 LINE"
);
}
);
width = 1629;
},
{
background = {
components = (
{
name = H;
transform = "{1, 0, 0, 1, 20, 0}";
}
);
paths = (
{
closed = 1;
nodes = (
"1416 1200 OFFCURVE",
"1412 1206 OFFCURVE",
"1404 1206 CURVE SMOOTH",
"72 1206 LINE SMOOTH",
"62 1206 OFFCURVE",
"58 1200 OFFCURVE",
"58 1188 CURVE SMOOTH",
"58 1146 LINE SMOOTH",
"58 1132 OFFCURVE",
"62 1128 OFFCURVE",
"78 1128 CURVE SMOOTH",
"1392 1128 LINE SMOOTH",
"1410 1128 OFFCURVE",
"1416 1132 OFFCURVE",
"1416 1148 CURVE SMOOTH",
"1416 1190 LINE SMOOTH"
);
}
);
};
components = (
{
name = H;
transform = "{1, 0, 0, 1, 40, 0}";
}
);
layerId = "91AB5BCA-6A50-42DA-B2F7-8181BF189245";
paths = (
{
closed = 1;
nodes = (
"1356 1128 LINE",
"1368 1206 LINE",
"118 1206 LINE",
"106 1128 LINE"
);
}
);
width = 1291;
}
);
leftKerningGroup = N;
rightKerningGroup = N;
unicode = 0126;
},
{
glyphname = I;
lastChange = "2019-05-01 05:36:38 +0000";
layers = (
{
anchors = (
{
name = bottom;
position = "{271, 0}";
},
{
name = ogonek;
position = "{397, 6}";
},
{
name = top;
position = "{471, 1446}";
}
);
background = {
anchors = (
{
name = bottom;
position = "{373, 0}";
},
{
name = ogonek;
position = "{537, 20}";
},
{
name = top;
position = "{375, 1484}";
}
);
paths = (
{
closed = 1;
nodes = (
"163 1484 OFFCURVE",
"147 1468 OFFCURVE",
"147 1438 CURVE SMOOTH",
"147 50 LINE SMOOTH",
"147 16 OFFCURVE",
"159 0 OFFCURVE",
"201 0 CURVE SMOOTH",
"535 0 LINE SMOOTH",
"581 0 OFFCURVE",
"601 16 OFFCURVE",
"601 58 CURVE SMOOTH",
"601 1442 LINE SMOOTH",
"601 1468 OFFCURVE",
"589 1484 OFFCURVE",
"565 1484 CURVE SMOOTH",
"185 1484 LINE SMOOTH"
);
}
);
};
layerId = "258ED206-D907-4350-8EBA-CBDDA1C16BF7";
paths = (
{
closed = 1;
nodes = (
"445 0 LINE",
"663 1446 LINE",
"275 1446 LINE",
"57 0 LINE"
);
}
);
width = 662;
},
{
anchors = (
{
name = bottom;
position = "{187, 0}";
},
{
name = ogonek;
position = "{213, 20}";
},
{
name = top;
position = "{389, 1446}";
}
);
background = {
anchors = (
{
name = bottom;
position = "{297, 0}";
},
{
name = ogonek;
position = "{321, 20}";
},
{
name = top;
position = "{303, 1484}";
}
);
paths = (
{
closed = 1;
nodes = (
"255 1484 OFFCURVE",
"251 1480 OFFCURVE",
"251 1464 CURVE SMOOTH",
"251 20 LINE SMOOTH",
"251 4 OFFCURVE",
"255 0 OFFCURVE",
"273 0 CURVE SMOOTH",
"319 0 LINE SMOOTH",
"339 0 OFFCURVE",
"343 4 OFFCURVE",
"343 24 CURVE SMOOTH",
"343 1464 LINE SMOOTH",
"343 1480 OFFCURVE",
"339 1484 OFFCURVE",
"325 1484 CURVE SMOOTH",
"269 1484 LINE SMOOTH"
);
}
);
};
layerId = "91AB5BCA-6A50-42DA-B2F7-8181BF189245";
paths = (
{
closed = 1;
nodes = (
"221 0 LINE",
"423 1446 LINE",
"351 1446 LINE",
"149 0 LINE"
);
}
);
width = 514;
}
);
leftKerningGroup = N;
leftMetricsKey = H;
rightKerningGroup = N;
rightMetricsKey = H;
unicode = 0049;
},
{
glyphname = J;
lastChange = "2019-05-01 05:36:38 +0000";
layers = (
{
anchors = (
{
name = top;
position = "{659, 1446}";
}
);
background = {
anchors = (
{
name = top;
position = "{449, 1484}";
}
);
paths = (
{
closed = 1;
nodes = (
"803 1442 LINE SMOOTH",
"803 1468 OFFCURVE",
"791 1484 OFFCURVE",
"767 1484 CURVE SMOOTH",
"389 1484 LINE SMOOTH",
"365 1484 OFFCURVE",
"349 1468 OFFCURVE",
"349 1438 CURVE SMOOTH",
"349 536 LINE SMOOTH",
"349 400 OFFCURVE",
"291 350 OFFCURVE",
"193 350 CURVE SMOOTH",
"149 350 OFFCURVE",
"115 360 OFFCURVE",
"83 364 CURVE SMOOTH",
"51 368 OFFCURVE",
"37 348 OFFCURVE",
"35 318 CURVE SMOOTH",
"17 90 LINE SMOOTH",
"13 34 OFFCURVE",
"33 12 OFFCURVE",
"79 4 CURVE SMOOTH",
"169 -12 OFFCURVE",
"245 -20 OFFCURVE",
"327 -20 CURVE SMOOTH",
"639 -20 OFFCURVE",
"803 96 OFFCURVE",
"803 424 CURVE SMOOTH"
);
}
);
};
layerId = "258ED206-D907-4350-8EBA-CBDDA1C16BF7";
paths = (
{
closed = 1;
nodes = (
"561 -20 OFFCURVE",
"663 138 OFFCURVE",
"711 458 CURVE SMOOTH",
"861 1446 LINE",
"475 1446 LINE",
"339 558 LINE SMOOTH",
"317 408 OFFCURVE",
"273 340 OFFCURVE",
"135 340 CURVE SMOOTH",
"93 340 OFFCURVE",
"45 346 OFFCURVE",
"9 350 CURVE",
"-43 0 LINE",
"15 -12 OFFCURVE",
"133 -20 OFFCURVE",
"215 -20 CURVE SMOOTH"
);
}
);
width = 860;
},
{
anchors = (
{
name = top;
position = "{601, 1446}";
}
);
background = {
anchors = (
{
name = top;
position = "{533, 1484}";
}
);
paths = (
{
closed = 1;
nodes = (
"579 1464 LINE SMOOTH",
"579 1478 OFFCURVE",
"575 1484 OFFCURVE",
"563 1484 CURVE SMOOTH",
"503 1484 LINE SMOOTH",
"491 1484 OFFCURVE",
"487 1478 OFFCURVE",
"487 1466 CURVE SMOOTH",
"487 308 LINE SMOOTH",
"487 122 OFFCURVE",
"443 68 OFFCURVE",
"313 68 CURVE SMOOTH",
"215 68 OFFCURVE",
"171 98 OFFCURVE",
"129 118 CURVE SMOOTH",
"121 122 OFFCURVE",
"115 120 OFFCURVE",
"113 110 CURVE SMOOTH",
"95 48 LINE SMOOTH",
"93 40 OFFCURVE",
"97 34 OFFCURVE",
"103 30 CURVE SMOOTH",
"117 20 OFFCURVE",
"207 -20 OFFCURVE",
"317 -20 CURVE SMOOTH",
"511 -20 OFFCURVE",
"579 98 OFFCURVE",
"579 288 CURVE SMOOTH"
);
}
);
};
layerId = "91AB5BCA-6A50-42DA-B2F7-8181BF189245";
paths = (
{
closed = 1;
nodes = (
"379 -20 OFFCURVE",
"447 96 OFFCURVE",
"473 280 CURVE SMOOTH",
"637 1446 LINE",
"565 1446 LINE",
"405 308 LINE SMOOTH",
"381 126 OFFCURVE",
"331 62 OFFCURVE",
"215 62 CURVE SMOOTH",
"121 62 OFFCURVE",
"81 104 OFFCURVE",
"43 124 CURVE",
"13 38 LINE",
"23 26 OFFCURVE",
"103 -20 OFFCURVE",
"207 -20 CURVE SMOOTH"
);
}
);
width = 726;
}
);
leftKerningGroup = J;
leftMetricsKey = X;
rightKerningGroup = N;
rightMetricsKey = H;
unicode = 004A;
},
{
glyphname = K;
lastChange = "2019-05-01 05:36:38 +0000";
layers = (
{
anchors = (
{
name = bottom;
position = "{639, 0}";
},
{
name = top;
position = "{883, 1446}";
}
);
background = {
anchors = (
{
name = bottom;
position = "{741, 0}";
},
{
name = top;
position = "{741, 1484}";
}
);
paths = (
{
closed = 1;
nodes = (
"1053 960 LINE SMOOTH",
"1041 988 OFFCURVE",
"1043 1002 OFFCURVE",
"1059 1024 CURVE SMOOTH",
"1387 1426 LINE SMOOTH",
"1413 1456 OFFCURVE",
"1389 1484 OFFCURVE",
"1345 1484 CURVE SMOOTH",
"1041 1484 LINE SMOOTH",
"993 1484 OFFCURVE",
"977 1472 OFFCURVE",
"955 1442 CURVE SMOOTH",
"587 926 LINE",
"571 906 OFFCURVE",
"557 904 OFFCURVE",
"557 936 CURVE SMOOTH",
"557 1442 LINE SMOOTH",
"557 1468 OFFCURVE",
"545 1484 OFFCURVE",
"521 1484 CURVE SMOOTH",
"141 1484 LINE SMOOTH",
"119 1484 OFFCURVE",
"103 1468 OFFCURVE",
"103 1438 CURVE SMOOTH",
"103 50 LINE SMOOTH",
"103 16 OFFCURVE",
"115 0 OFFCURVE",
"157 0 CURVE SMOOTH",
"491 0 LINE SMOOTH",
"537 0 OFFCURVE",
"557 16 OFFCURVE",
"557 58 CURVE SMOOTH",
"557 360 LINE SMOOTH",
"557 380 OFFCURVE",
"559 392 OFFCURVE",
"569 404 CURVE SMOOTH",
"711 586 LINE SMOOTH",
"731 612 OFFCURVE",
"743 616 OFFCURVE",
"755 596 CURVE SMOOTH",
"999 40 LINE SMOOTH",
"1013 10 OFFCURVE",
"1037 0 OFFCURVE",
"1071 0 CURVE SMOOTH",
"1461 0 LINE SMOOTH",
"1501 0 OFFCURVE",
"1505 30 OFFCURVE",
"1489 62 CURVE SMOOTH"
);
}
);
};
guideLines = (
{
angle = 54.4985;
position = "{679, 670}";
},
{
angle = -62.8805;
position = "{366, 283}";
}
);
hints = (
{
horizontal = 1;
origin = "{0, 11}";
target = up;
type = BottomGhost;
},
{
horizontal = 1;
origin = "{0, 10}";
target = down;
type = TopGhost;
},
{
place = "{62, 338}";
type = Stem;
}
);
layerId = "258ED206-D907-4350-8EBA-CBDDA1C16BF7";
paths = (
{
closed = 1;
nodes = (
"459 0 LINE",
"517 378 LINE",
"731 610 LINE",
"959 0 LINE",
"1373 0 LINE",
"1049 894 LINE",
"1529 1446 LINE",
"1095 1446 LINE",
"591 862 LINE",
"679 1446 LINE",
"277 1446 LINE",
"57 0 LINE"
);
}
);
width = 1476;
},
{
anchors = (
{
name = bottom;
position = "{555, 0}";
},
{
name = top;
position = "{791, 1446}";
}
);
background = {
anchors = (
{
name = bottom;
position = "{675, 0}";
},
{
name = top;
position = "{735, 1484}";
}
);
paths = (
{
closed = 1;
nodes = (
"675 890 LINE SMOOTH",
"671 898 OFFCURVE",
"671 898 OFFCURVE",
"675 902 CURVE SMOOTH",
"1193 1468 LINE SMOOTH",
"1201 1476 OFFCURVE",
"1199 1484 OFFCURVE",
"1187 1484 CURVE SMOOTH",
"1111 1484 LINE SMOOTH",
"1099 1484 OFFCURVE",
"1095 1482 OFFCURVE",
"1089 1476 CURVE SMOOTH",
"323 644 LINE SMOOTH",
"313 634 OFFCURVE",
"309 634 OFFCURVE",
"309 646 CURVE SMOOTH",
"309 1468 LINE SMOOTH",
"309 1480 OFFCURVE",
"303 1484 OFFCURVE",
"293 1484 CURVE SMOOTH",
"233 1484 LINE SMOOTH",
"221 1484 OFFCURVE",
"217 1478 OFFCURVE",
"217 1468 CURVE SMOOTH",
"217 18 LINE SMOOTH",
"217 4 OFFCURVE",
"223 0 OFFCURVE",
"237 0 CURVE SMOOTH",
"289 0 LINE SMOOTH",
"303 0 OFFCURVE",
"309 6 OFFCURVE",
"309 18 CURVE SMOOTH",
"309 492 LINE SMOOTH",
"309 508 OFFCURVE",
"313 514 OFFCURVE",
"325 526 CURVE SMOOTH",
"589 818 LINE SMOOTH",
"599 828 OFFCURVE",
"605 830 OFFCURVE",
"613 818 CURVE SMOOTH",
"1129 10 LINE SMOOTH",
"1133 4 OFFCURVE",
"1141 0 OFFCURVE",
"1151 0 CURVE SMOOTH",
"1229 0 LINE SMOOTH",
"1237 0 OFFCURVE",
"1241 6 OFFCURVE",
"1235 14 CURVE SMOOTH"
);
}
);
};
layerId = "91AB5BCA-6A50-42DA-B2F7-8181BF189245";
paths = (
{
closed = 1;
nodes = (
"223 0 LINE",
"293 496 LINE",
"601 814 LINE",
"965 0 LINE",
"1059 0 LINE",
"671 876 LINE",
"1231 1446 LINE",
"1133 1446 LINE",
"309 612 LINE",
"425 1446 LINE",
"351 1446 LINE",
"147 0 LINE"
);
}
);
width = 1212;
}
);
leftKerningGroup = N;
leftMetricsKey = H;
rightKerningGroup = K;
rightMetricsKey = X;
unicode = 004B;
},
{
glyphname = L;
lastChange = "2019-05-01 05:36:38 +0000";
layers = (
{
anchors = (
{
name = bottom;
position = "{531, 0}";
},
{
name = top;
position = "{461, 1446}";
},
{
name = topright;
position = "{1113, 1446}";
}
);
background = {
anchors = (
{
name = bottom;
position = "{629, 0}";
},
{
name = top;
position = "{337, 1484}";
},
{
name = topright;
position = "{1021, 1484}";
}
);
paths = (
{
closed = 1;
nodes = (
"105 50 LINE SMOOTH",
"105 16 OFFCURVE",
"117 0 OFFCURVE",
"159 0 CURVE SMOOTH",
"1181 0 LINE SMOOTH",
"1215 0 OFFCURVE",
"1231 20 OFFCURVE",
"1231 44 CURVE SMOOTH",
"1231 290 LINE SMOOTH",
"1231 318 OFFCURVE",
"1213 328 OFFCURVE",
"1185 328 CURVE SMOOTH",
"583 328 LINE SMOOTH",
"565 328 OFFCURVE",
"559 334 OFFCURVE",
"559 356 CURVE SMOOTH",
"559 1442 LINE SMOOTH",
"559 1468 OFFCURVE",
"547 1484 OFFCURVE",
"523 1484 CURVE SMOOTH",
"143 1484 LINE SMOOTH",
"121 1484 OFFCURVE",
"105 1468 OFFCURVE",
"105 1438 CURVE SMOOTH"
);
}
);
};
layerId = "258ED206-D907-4350-8EBA-CBDDA1C16BF7";
paths = (
{
closed = 1;
nodes = (
"1019 0 LINE",
"1067 320 LINE",
"493 320 LINE",
"663 1446 LINE",
"277 1446 LINE",
"57 0 LINE"
);
}
);
width = 1125;
},
{
anchors = (
{
name = bottom;
position = "{515, 0}";
},
{
name = top;
position = "{391, 1446}";
},
{
name = topright;
position = "{901, 1446}";
}
);
background = {
anchors = (
{
name = bottom;
position = "{633, 0}";
},
{
name = top;
position = "{269, 1484}";
},
{
name = topright;
position = "{841, 1484}";
}
);
paths = (
{
closed = 1;
nodes = (
"223 20 LINE SMOOTH",
"223 6 OFFCURVE",
"227 0 OFFCURVE",
"241 0 CURVE",
"1061 0 LINE",
"1071 0 OFFCURVE",
"1075 4 OFFCURVE",
"1075 14 CURVE SMOOTH",
"1075 66 LINE SMOOTH",
"1075 78 OFFCURVE",
"1071 80 OFFCURVE",
"1059 80 CURVE SMOOTH",
"333 80 LINE SMOOTH",
"319 80 OFFCURVE",
"315 82 OFFCURVE",
"315 98 CURVE SMOOTH",
"315 1464 LINE SMOOTH",
"315 1480 OFFCURVE",
"311 1484 OFFCURVE",
"297 1484 CURVE SMOOTH",
"241 1484 LINE SMOOTH",
"227 1484 OFFCURVE",
"223 1480 OFFCURVE",
"223 1464 CURVE SMOOTH"
);
}
);
};
layerId = "91AB5BCA-6A50-42DA-B2F7-8181BF189245";
paths = (
{
closed = 1;
nodes = (
"905 0 LINE",
"917 86 LINE",
"237 86 LINE",
"429 1446 LINE",
"351 1446 LINE",
"147 0 LINE"
);
}
);
width = 1058;
}
);
leftKerningGroup = N;
leftMetricsKey = H;
rightKerningGroup = L;
rightMetricsKey = X;
unicode = 004C;
},
{
glyphname = Lslash;
lastChange = "2019-05-01 05:36:38 +0000";
layers = (
{
background = {
components = (
{
name = L;
transform = "{1, 0, 0, 1, 44, 0}";
}
);
paths = (
{
closed = 1;
nodes = (
"922 1072 OFFCURVE",
"908 1086 OFFCURVE",
"874 1076 CURVE SMOOTH",
"86 866 LINE SMOOTH",
"62 860 OFFCURVE",
"48 850 OFFCURVE",
"48 820 CURVE SMOOTH",
"48 586 LINE SMOOTH",
"48 554 OFFCURVE",
"60 540 OFFCURVE",
"98 552 CURVE SMOOTH",
"882 774 LINE SMOOTH",
"910 782 OFFCURVE",
"922 798 OFFCURVE",
"922 820 CURVE SMOOTH",
"922 1042 LINE SMOOTH"
);
}
);
};
components = (
{
name = L;
transform = "{1, 0, 0, 1, 88, 0}";
}
);
layerId = "258ED206-D907-4350-8EBA-CBDDA1C16BF7";
paths = (
{
closed = 1;
nodes = (
"922 786 LINE",
"922 1088 LINE",
"48 856 LINE",
"48 538 LINE"
);
}
);
width = 1213;
},
{
background = {
components = (
{
name = L;
transform = "{1, 0, 0, 1, 8, 0}";
}
);
paths = (
{
closed = 1;
nodes = (
"661 850 OFFCURVE",
"657 854 OFFCURVE",
"647 852 CURVE SMOOTH",
"97 712 LINE SMOOTH",
"91 710 OFFCURVE",
"87 704 OFFCURVE",
"87 694 CURVE SMOOTH",
"87 648 LINE SMOOTH",
"87 638 OFFCURVE",
"91 636 OFFCURVE",
"101 638 CURVE SMOOTH",
"649 780 LINE SMOOTH",
"657 782 OFFCURVE",
"661 788 OFFCURVE",
"661 796 CURVE SMOOTH",
"661 842 LINE SMOOTH"
);
}
);
};
components = (
{
name = L;
transform = "{1, 0, 0, 1, 17, 0}";
}
);
layerId = "91AB5BCA-6A50-42DA-B2F7-8181BF189245";
paths = (
{
closed = 1;
nodes = (
"661 784 LINE",
"661 856 LINE",
"87 710 LINE",
"87 634 LINE"
);
}
);
width = 1075;
}
);
leftKerningGroup = N;
rightKerningGroup = L;
rightMetricsKey = L;
unicode = 0141;
},
{
glyphname = M;
lastChange = "2019-05-06 20:19:55 +0000";
layers = (
{
background = {
paths = (
{
closed = 1;
nodes = (
"451 0 LINE SMOOTH",
"487 0 OFFCURVE",
"495 8 OFFCURVE",
"495 44 CURVE SMOOTH",
"495 928 LINE SMOOTH",
"495 954 OFFCURVE",
"509 962 OFFCURVE",
"519 930 CURVE SMOOTH",
"807 36 LINE SMOOTH",
"815 12 OFFCURVE",
"831 0 OFFCURVE",
"855 0 CURVE SMOOTH",
"1065 0 LINE SMOOTH",
"1087 0 OFFCURVE",
"1105 14 OFFCURVE",
"1113 36 CURVE SMOOTH",
"1401 946 LINE SMOOTH",
"1409 970 OFFCURVE",
"1425 970 OFFCURVE",
"1425 948 CURVE SMOOTH",
"1425 50 LINE SMOOTH",
"1425 16 OFFCURVE",
"1437 0 OFFCURVE",
"1477 0 CURVE SMOOTH",
"1815 0 LINE SMOOTH",
"1861 0 OFFCURVE",
"1879 16 OFFCURVE",
"1879 58 CURVE SMOOTH",
"1879 1442 LINE SMOOTH",
"1879 1468 OFFCURVE",
"1867 1484 OFFCURVE",
"1843 1484 CURVE SMOOTH",
"1265 1484 LINE SMOOTH",
"1237 1484 OFFCURVE",
"1221 1462 OFFCURVE",
"1211 1426 CURVE SMOOTH",
"1025 812 LINE SMOOTH",
"1019 794 OFFCURVE",
"1007 790 OFFCURVE",
"999 812 CURVE SMOOTH",
"791 1448 LINE SMOOTH",
"781 1476 OFFCURVE",
"769 1484 OFFCURVE",
"735 1484 CURVE SMOOTH",
"175 1484 LINE SMOOTH",
"145 1484 OFFCURVE",
"133 1470 OFFCURVE",
"133 1438 CURVE SMOOTH",
"133 56 LINE SMOOTH",
"133 22 OFFCURVE",
"153 0 OFFCURVE",
"185 0 CURVE SMOOTH"
);
}
);
};
guideLines = (
{
angle = -105;
position = "{471, 261}";
},
{
angle = 105;
position = "{471, 261}";
}
);
layerId = "258ED206-D907-4350-8EBA-CBDDA1C16BF7";
paths = (
{
closed = 1;
nodes = (
"443 0 LINE",
"603 1048 LINE",
"725 0 LINE",
"1003 0 LINE",
"1441 1048 LINE",
"1283 0 LINE",
"1671 0 LINE",
"1889 1446 LINE",
"1317 1446 LINE",
"949 564 LINE",
"851 1446 LINE",
"275 1446 LINE",
"57 0 LINE"
);
}
);
width = 1888;
},
{
background = {
guideLines = (
{
position = "{34, 566}";
showMeasurement = 1;
}
);
paths = (
{
closed = 1;
nodes = (
"267 0 LINE SMOOTH",
"281 0 OFFCURVE",
"287 6 OFFCURVE",
"287 18 CURVE SMOOTH",
"287 1244 LINE SMOOTH",
"287 1252 OFFCURVE",
"291 1250 OFFCURVE",
"293 1244 CURVE SMOOTH",
"781 20 LINE SMOOTH",
"787 6 OFFCURVE",
"797 0 OFFCURVE",
"819 0 CURVE SMOOTH",
"873 0 LINE SMOOTH",
"891 0 OFFCURVE",
"899 6 OFFCURVE",
"905 22 CURVE SMOOTH",
"1403 1254 LINE SMOOTH",
"1405 1260 OFFCURVE",
"1409 1264 OFFCURVE",
"1409 1254 CURVE SMOOTH",
"1409 18 LINE SMOOTH",
"1409 4 OFFCURVE",
"1415 0 OFFCURVE",
"1429 0 CURVE SMOOTH",
"1483 0 LINE SMOOTH",
"1495 0 OFFCURVE",
"1501 6 OFFCURVE",
"1501 20 CURVE SMOOTH",
"1501 1464 LINE SMOOTH",
"1501 1480 OFFCURVE",
"1497 1484 OFFCURVE",
"1483 1484 CURVE SMOOTH",
"1425 1484 LINE SMOOTH",
"1413 1484 OFFCURVE",
"1407 1480 OFFCURVE",
"1403 1470 CURVE SMOOTH",
"861 130 LINE SMOOTH",
"849 102 OFFCURVE",
"839 102 OFFCURVE",
"829 128 CURVE SMOOTH",
"295 1468 LINE",
"291 1480 OFFCURVE",
"285 1484 OFFCURVE",
"269 1484 CURVE SMOOTH",
"217 1484 LINE SMOOTH",
"203 1484 OFFCURVE",
"199 1480 OFFCURVE",
"199 1464 CURVE SMOOTH",
"199 20 LINE SMOOTH",
"199 6 OFFCURVE",
"203 0 OFFCURVE",
"217 0 CURVE SMOOTH"
);
}
);
};
guideLines = (
{
position = "{105, 525}";
showMeasurement = 1;
},
{
angle = 68.255;
position = "{387, 0}";
}
);
layerId = "91AB5BCA-6A50-42DA-B2F7-8181BF189245";
paths = (
{
closed = 1;
nodes = (
"227 0 LINE",
"399 1216 LINE",
"675 0 LINE",
"781 0 LINE",
"1407 1232 LINE",
"1233 0 LINE",
"1313 0 LINE",
"1515 1446 LINE",
"1437 1446 LINE",
"739 88 LINE",
"433 1446 LINE",
"351 1446 LINE",
"149 0 LINE"
);
}
);
width = 1606;
}
);
leftKerningGroup = N;
leftMetricsKey = H;
rightKerningGroup = N;
rightMetricsKey = H;
unicode = 004D;
},
{
glyphname = N;
lastChange = "2019-05-06 20:19:55 +0000";
layers = (
{
anchors = (
{
name = bottom;
position = "{725, 0}";
},
{
name = top;
position = "{945, 1446}";
}
);
background = {
anchors = (
{
name = bottom;
position = "{833, 0}";
},
{
name = top;
position = "{833, 1484}";
}
);
paths = (
{
closed = 1;
nodes = (
"1139 1484 OFFCURVE",
"1125 1468 OFFCURVE",
"1125 1442 CURVE SMOOTH",
"1125 788 LINE SMOOTH",
"1125 756 OFFCURVE",
"1111 756 OFFCURVE",
"1093 780 CURVE SMOOTH",
"613 1448 LINE SMOOTH",
"591 1478 OFFCURVE",
"579 1484 OFFCURVE",
"545 1484 CURVE SMOOTH",
"219 1484 LINE SMOOTH",
"189 1484 OFFCURVE",
"175 1470 OFFCURVE",
"175 1438 CURVE SMOOTH",
"175 40 LINE SMOOTH",
"175 10 OFFCURVE",
"195 0 OFFCURVE",
"225 0 CURVE SMOOTH",
"497 0 LINE SMOOTH",
"533 0 OFFCURVE",
"547 12 OFFCURVE",
"545 44 CURVE SMOOTH",
"545 772 LINE SMOOTH",
"545 786 OFFCURVE",
"555 790 OFFCURVE",
"565 776 CURVE SMOOTH",
"1115 30 LINE SMOOTH",
"1135 4 OFFCURVE",
"1147 0 OFFCURVE",
"1169 0 CURVE SMOOTH",
"1443 0 LINE SMOOTH",
"1469 0 OFFCURVE",
"1489 14 OFFCURVE",
"1489 36 CURVE SMOOTH",
"1489 1450 LINE SMOOTH",
"1489 1472 OFFCURVE",
"1479 1484 OFFCURVE",
"1459 1484 CURVE SMOOTH",
"1169 1484 LINE SMOOTH"
);
}
);
};
guideLines = (
{
angle = 125.0467;
position = "{539, 296}";
}
);
layerId = "258ED206-D907-4350-8EBA-CBDDA1C16BF7";
paths = (
{
closed = 1;
nodes = (
"445 0 LINE",
"575 862 LINE",
"1045 0 LINE",
"1395 0 LINE",
"1615 1446 LINE",
"1227 1446 LINE",
"1105 640 LINE",
"667 1446 LINE",
"277 1446 LINE",
"57 0 LINE"
);
}
);
width = 1614;
},
{
anchors = (
{
name = bottom;
position = "{569, 0}";
},
{
name = top;
position = "{817, 1446}";
}
);
background = {
anchors = (
{
name = bottom;
position = "{699, 0}";
},
{
name = top;
position = "{769, 1484}";
}
);
guideLines = (
{
position = "{43, 576}";
showMeasurement = 1;
}
);
paths = (
{
closed = 1;
nodes = (
"1179 1484 OFFCURVE",
"1175 1478 OFFCURVE",
"1175 1466 CURVE SMOOTH",
"1175 214 LINE SMOOTH",
"1175 202 OFFCURVE",
"1161 190 OFFCURVE",
"1147 210 CURVE SMOOTH",
"293 1470 LINE SMOOTH",
"285 1482 OFFCURVE",
"279 1484 OFFCURVE",
"263 1484 CURVE SMOOTH",
"227 1484 LINE",
"213 1484 OFFCURVE",
"209 1480 OFFCURVE",
"209 1464 CURVE SMOOTH",
"209 20 LINE SMOOTH",
"209 6 OFFCURVE",
"213 0 OFFCURVE",
"227 0 CURVE SMOOTH",
"277 0 LINE SMOOTH",
"291 0 OFFCURVE",
"297 6 OFFCURVE",
"297 18 CURVE SMOOTH",
"297 1274 LINE SMOOTH",
"297 1290 OFFCURVE",
"307 1294 OFFCURVE",
"321 1274 CURVE SMOOTH",
"1177 12 LINE SMOOTH",
"1187 -2 OFFCURVE",
"1199 0 OFFCURVE",
"1215 0 CURVE SMOOTH",
"1245 0 LINE SMOOTH",
"1257 0 OFFCURVE",
"1263 6 OFFCURVE",
"1263 20 CURVE SMOOTH",
"1263 1464 LINE SMOOTH",
"1263 1480 OFFCURVE",
"1259 1484 OFFCURVE",
"1245 1484 CURVE SMOOTH",
"1191 1484 LINE SMOOTH"
);
}
);
};
guideLines = (
{
position = "{114, 534}";
showMeasurement = 1;
},
{
angle = 123.9688;
position = "{116, 610}";
}
);
layerId = "91AB5BCA-6A50-42DA-B2F7-8181BF189245";
paths = (
{
closed = 1;
nodes = (
"219 0 LINE",
"401 1286 LINE",
"1017 0 LINE",
"1079 0 LINE",
"1283 1446 LINE",
"1211 1446 LINE",
"1029 156 LINE",
"409 1446 LINE",
"351 1446 LINE",
"147 0 LINE"
);
}
);
width = 1372;
}
);
leftKerningGroup = N;
leftMetricsKey = H;
rightKerningGroup = N;
rightMetricsKey = H;
unicode = 004E;
},
{
glyphname = Eng;
lastChange = "2019-05-06 20:19:55 +0000";
layers = (
{
background = {
paths = (
{
closed = 1;
nodes = (
"1114 1484 LINE SMOOTH",
"1084 1484 OFFCURVE",
"1070 1468 OFFCURVE",
"1070 1442 CURVE SMOOTH",
"1070 868 LINE SMOOTH",
"1070 836 OFFCURVE",
"1056 836 OFFCURVE",
"1038 860 CURVE",
"558 1448 LINE SMOOTH",
"534 1478 OFFCURVE",
"524 1484 OFFCURVE",
"490 1484 CURVE SMOOTH",
"164 1484 LINE SMOOTH",
"134 1484 OFFCURVE",
"120 1470 OFFCURVE",
"120 1438 CURVE SMOOTH",
"120 40 LINE SMOOTH",
"120 10 OFFCURVE",
"140 0 OFFCURVE",
"170 0 CURVE SMOOTH",
"442 0 LINE SMOOTH",
"478 0 OFFCURVE",
"492 12 OFFCURVE",
"490 44 CURVE",
"490 772 LINE",
"490 786 OFFCURVE",
"498 790 OFFCURVE",
"510 776 CURVE SMOOTH",
"990 194 LINE",
"990 176 LINE SMOOTH",
"984 62 OFFCURVE",
"924 20 OFFCURVE",
"834 20 CURVE SMOOTH",
"790 20 OFFCURVE",
"744 30 OFFCURVE",
"712 34 CURVE SMOOTH",
"680 38 OFFCURVE",
"666 18 OFFCURVE",
"664 -12 CURVE SMOOTH",
"646 -240 LINE SMOOTH",
"642 -296 OFFCURVE",
"662 -318 OFFCURVE",
"708 -326 CURVE SMOOTH",
"798 -342 OFFCURVE",
"886 -350 OFFCURVE",
"968 -350 CURVE SMOOTH",
"1272 -350 OFFCURVE",
"1434 -228 OFFCURVE",
"1434 94 CURVE SMOOTH",
"1434 1450 LINE SMOOTH",
"1434 1472 OFFCURVE",
"1424 1484 OFFCURVE",
"1404 1484 CURVE SMOOTH"
);
}
);
};
components = (
{
name = N;
},
{
alignment = -1;
name = "_j-hook";
transform = "{1, 0, 0, 1, 668, -460}";
}
);
layerId = "258ED206-D907-4350-8EBA-CBDDA1C16BF7";
width = 1614;
},
{
background = {
paths = (
{
closed = 1;
nodes = (
"1206 1484 LINE SMOOTH",
"1194 1484 OFFCURVE",
"1190 1478 OFFCURVE",
"1190 1466 CURVE SMOOTH",
"1190 214 LINE SMOOTH",
"1190 202 OFFCURVE",
"1176 188 OFFCURVE",
"1162 208 CURVE SMOOTH",
"310 1470 LINE SMOOTH",
"302 1482 OFFCURVE",
"296 1484 OFFCURVE",
"282 1484 CURVE SMOOTH",
"240 1484 LINE SMOOTH",
"226 1484 OFFCURVE",
"222 1480 OFFCURVE",
"222 1464 CURVE SMOOTH",
"222 20 LINE SMOOTH",
"222 6 OFFCURVE",
"226 0 OFFCURVE",
"240 0 CURVE SMOOTH",
"290 0 LINE SMOOTH",
"304 0 OFFCURVE",
"310 6 OFFCURVE",
"310 18 CURVE SMOOTH",
"310 1280 LINE SMOOTH",
"310 1296 OFFCURVE",
"314 1300 OFFCURVE",
"328 1280 CURVE SMOOTH",
"1184 24 LINE",
"1184 -82 LINE SMOOTH",
"1184 -224 OFFCURVE",
"1122 -270 OFFCURVE",
"1014 -270 CURVE SMOOTH",
"954 -270 OFFCURVE",
"906 -256 OFFCURVE",
"874 -244 CURVE SMOOTH",
"864 -240 OFFCURVE",
"860 -242 OFFCURVE",
"858 -252 CURVE",
"852 -302 LINE",
"852 -310 OFFCURVE",
"854 -316 OFFCURVE",
"860 -320 CURVE SMOOTH",
"874 -330 OFFCURVE",
"940 -350 OFFCURVE",
"1022 -350 CURVE SMOOTH",
"1210 -350 OFFCURVE",
"1276 -248 OFFCURVE",
"1276 -92 CURVE SMOOTH",
"1276 1464 LINE SMOOTH",
"1276 1480 OFFCURVE",
"1272 1484 OFFCURVE",
"1258 1484 CURVE SMOOTH"
);
}
);
};
components = (
{
name = N;
},
{
alignment = -1;
name = "_j-hook";
transform = "{1, 0, 0, 1, 610, -460}";
}
);
layerId = "91AB5BCA-6A50-42DA-B2F7-8181BF189245";
width = 1372;
}
);
leftKerningGroup = N;
leftMetricsKey = N;
rightKerningGroup = N;
rightMetricsKey = N;
unicode = 014A;
},
{
glyphname = O;
lastChange = "2019-04-30 05:13:52 +0000";
layers = (
{
anchors = (
{
name = bottom;
position = "{719, 0}";
},
{
name = horn;
position = "{1369, 1094}";
},
{
name = ogonek;
position = "{899, 20}";
},
{
name = top;
position = "{917, 1446}";
}
);
background = {
anchors = (
{
name = bottom;
position = "{827, 0}";
},
{
name = ogonek;
position = "{1009, 20}";
},
{
name = top;
position = "{823, 1484}";
}
);
paths = (
{
closed = 1;
nodes = (
"1261 -20 OFFCURVE",
"1541 278 OFFCURVE",
"1541 738 CURVE SMOOTH",
"1541 1202 OFFCURVE",
"1255 1504 OFFCURVE",
"825 1504 CURVE SMOOTH",
"391 1504 OFFCURVE",
"105 1202 OFFCURVE",
"105 738 CURVE SMOOTH",
"105 276 OFFCURVE",
"383 -20 OFFCURVE",
"825 -20 CURVE SMOOTH"
);
},
{
closed = 1;
nodes = (
"647 292 OFFCURVE",
"581 412 OFFCURVE",
"581 732 CURVE SMOOTH",
"581 1062 OFFCURVE",
"651 1196 OFFCURVE",
"825 1196 CURVE SMOOTH",
"995 1196 OFFCURVE",
"1065 1062 OFFCURVE",
"1065 732 CURVE SMOOTH",
"1065 412 OFFCURVE",
"999 292 OFFCURVE",
"825 292 CURVE SMOOTH"
);
}
);
};
guideLines = (
{
angle = 90;
position = "{-485, 389}";
}
);
layerId = "258ED206-D907-4350-8EBA-CBDDA1C16BF7";
paths = (
{
closed = 1;
nodes = (
"1137 -20 OFFCURVE",
"1453 272 OFFCURVE",
"1521 720 CURVE SMOOTH",
"1589 1172 OFFCURVE",
"1357 1466 OFFCURVE",
"939 1466 CURVE SMOOTH",
"521 1466 OFFCURVE",
"197 1172 OFFCURVE",
"129 720 CURVE SMOOTH",
"61 270 OFFCURVE",
"287 -20 OFFCURVE",
"715 -20 CURVE SMOOTH"
);
},
{
closed = 1;
nodes = (
"603 292 OFFCURVE",
"503 402 OFFCURVE",
"549 714 CURVE SMOOTH",
"599 1036 OFFCURVE",
"733 1154 OFFCURVE",
"893 1154 CURVE SMOOTH",
"1051 1154 OFFCURVE",
"1149 1036 OFFCURVE",
"1099 714 CURVE SMOOTH",
"1053 402 OFFCURVE",
"921 292 OFFCURVE",
"761 292 CURVE SMOOTH"
);
}
);
width = 1593;
},
{
anchors = (
{
name = bottom;
position = "{602, 0}";
},
{
name = horn;
position = "{1118, 1212}";
},
{
name = ogonek;
position = "{730, 18}";
},
{
name = top;
position = "{806, 1446}";
}
);
background = {
anchors = (
{
name = bottom;
position = "{724, 0}";
},
{
name = ogonek;
position = "{864, 18}";
},
{
name = top;
position = "{724, 1484}";
}
);
paths = (
{
closed = 1;
nodes = (
"1096 -20 OFFCURVE",
"1322 244 OFFCURVE",
"1322 738 CURVE SMOOTH",
"1322 1236 OFFCURVE",
"1096 1504 OFFCURVE",
"722 1504 CURVE SMOOTH",
"346 1504 OFFCURVE",
"118 1234 OFFCURVE",
"118 734 CURVE SMOOTH",
"118 242 OFFCURVE",
"342 -20 OFFCURVE",
"720 -20 CURVE SMOOTH"
);
},
{
closed = 1;
nodes = (
"392 64 OFFCURVE",
"214 286 OFFCURVE",
"214 738 CURVE SMOOTH",
"214 1194 OFFCURVE",
"392 1420 OFFCURVE",
"722 1420 CURVE SMOOTH",
"1050 1420 OFFCURVE",
"1226 1196 OFFCURVE",
"1226 738 CURVE SMOOTH",
"1226 284 OFFCURVE",
"1054 64 OFFCURVE",
"724 64 CURVE SMOOTH"
);
}
);
};
guideLines = (
{
angle = 90;
position = "{-454, 400}";
},
{
angle = 90;
position = "{389, 593}";
}
);
layerId = "91AB5BCA-6A50-42DA-B2F7-8181BF189245";
paths = (
{
closed = 1;
nodes = (
"932 -20 OFFCURVE",
"1170 238 OFFCURVE",
"1238 720 CURVE SMOOTH",
"1306 1206 OFFCURVE",
"1142 1466 OFFCURVE",
"806 1466 CURVE SMOOTH",
"468 1466 OFFCURVE",
"226 1204 OFFCURVE",
"158 716 CURVE SMOOTH",
"90 236 OFFCURVE",
"256 -20 OFFCURVE",
"596 -20 CURVE SMOOTH"
);
},
{
closed = 1;
nodes = (
"312 62 OFFCURVE",
"178 278 OFFCURVE",
"240 720 CURVE SMOOTH",
"302 1164 OFFCURVE",
"498 1384 OFFCURVE",
"794 1384 CURVE SMOOTH",
"1090 1384 OFFCURVE",
"1220 1166 OFFCURVE",
"1158 720 CURVE SMOOTH",
"1096 276 OFFCURVE",
"906 62 OFFCURVE",
"610 62 CURVE SMOOTH"
);
}
);
width = 1339;
}
);
leftKerningGroup = O;
rightKerningGroup = O;
unicode = 004F;
},
{
glyphname = Oslash;
lastChange = "2019-05-07 06:03:45 +0000";
layers = (
{
anchors = (
{
name = top;
position = "{928, 1446}";
}
);
background = {
anchors = (
{
name = top;
position = "{818, 1446}";
}
);
paths = (
{
closed = 1;
nodes = (
"1460 1446 LINE SMOOTH",
"1444 1462 OFFCURVE",
"1420 1458 OFFCURVE",
"1400 1438 CURVE SMOOTH",
"1272 1314 LINE",
"1156 1412 OFFCURVE",
"1002 1466 OFFCURVE",
"820 1466 CURVE SMOOTH",
"396 1466 OFFCURVE",
"118 1172 OFFCURVE",
"118 720 CURVE SMOOTH",
"118 552 OFFCURVE",
"156 408 OFFCURVE",
"224 292 CURVE",
"92 164 LINE SMOOTH",
"70 140 OFFCURVE",
"72 120 OFFCURVE",
"100 92 CURVE SMOOTH",
"176 14 LINE SMOOTH",
"208 -18 OFFCURVE",
"232 -16 OFFCURVE",
"260 14 CURVE SMOOTH",
"372 122 LINE",
"488 32 OFFCURVE",
"640 -20 OFFCURVE",
"820 -20 CURVE SMOOTH",
"1246 -20 OFFCURVE",
"1518 272 OFFCURVE",
"1518 720 CURVE SMOOTH",
"1518 884 OFFCURVE",
"1482 1026 OFFCURVE",
"1414 1140 CURVE",
"1562 1286 LINE",
"1582 1302 OFFCURVE",
"1580 1322 OFFCURVE",
"1564 1338 CURVE SMOOTH"
);
},
{
closed = 1;
nodes = (
"582 1036 OFFCURVE",
"650 1166 OFFCURVE",
"820 1166 CURVE SMOOTH",
"906 1166 OFFCURVE",
"966 1132 OFFCURVE",
"1004 1052 CURVE",
"584 642 LINE",
"582 666 OFFCURVE",
"582 690 OFFCURVE",
"582 714 CURVE"
);
},
{
closed = 1;
nodes = (
"1054 402 OFFCURVE",
"990 284 OFFCURVE",
"820 284 CURVE SMOOTH",
"734 284 OFFCURVE",
"674 314 OFFCURVE",
"636 380 CURVE",
"1052 788 LINE",
"1054 762 OFFCURVE",
"1054 740 OFFCURVE",
"1054 714 CURVE SMOOTH"
);
}
);
};
layerId = "258ED206-D907-4350-8EBA-CBDDA1C16BF7";
paths = (
{
closed = 1;
nodes = (
"284 122 LINE",
"386 32 OFFCURVE",
"528 -20 OFFCURVE",
"708 -20 CURVE SMOOTH",
"1130 -20 OFFCURVE",
"1446 272 OFFCURVE",
"1514 720 CURVE SMOOTH",
"1538 884 OFFCURVE",
"1524 1026 OFFCURVE",
"1474 1140 CURVE",
"1672 1312 LINE",
"1546 1472 LINE",
"1358 1314 LINE",
"1258 1412 OFFCURVE",
"1114 1466 OFFCURVE",
"932 1466 CURVE SMOOTH",
"512 1466 OFFCURVE",
"190 1172 OFFCURVE",
"122 720 CURVE SMOOTH",
"96 552 OFFCURVE",
"112 408 OFFCURVE",
"162 292 CURVE",
"-24 134 LINE",
"106 -28 LINE"
);
},
{
closed = 1;
nodes = (
"668 284 OFFCURVE",
"614 314 OFFCURVE",
"586 380 CURVE",
"1062 790 LINE",
"1044 670 OFFCURVE",
"1024 576 OFFCURVE",
"998 502 CURVE SMOOTH",
"944 348 OFFCURVE",
"866 284 OFFCURVE",
"754 284 CURVE SMOOTH"
);
},
{
closed = 1;
nodes = (
"586 740 OFFCURVE",
"604 824 OFFCURVE",
"626 894 CURVE SMOOTH",
"682 1084 OFFCURVE",
"764 1166 OFFCURVE",
"888 1166 CURVE SMOOTH",
"972 1166 OFFCURVE",
"1028 1132 OFFCURVE",
"1052 1052 CURVE",
"572 640 LINE"
);
}
);
width = 1600;
},
{
anchors = (
{
name = top;
position = "{805, 1446}";
}
);
background = {
anchors = (
{
name = top;
position = "{703, 1446}";
}
);
paths = (
{
closed = 1;
nodes = (
"1295 1460 LINE",
"1287 1468 OFFCURVE",
"1279 1464 OFFCURVE",
"1271 1454 CURVE",
"1125 1286 LINE",
"1023 1404 OFFCURVE",
"881 1466 OFFCURVE",
"703 1466 CURVE SMOOTH",
"337 1466 OFFCURVE",
"115 1204 OFFCURVE",
"115 716 CURVE SMOOTH",
"115 518 OFFCURVE",
"151 358 OFFCURVE",
"221 240 CURVE",
"57 50 LINE",
"49 40 OFFCURVE",
"51 36 OFFCURVE",
"65 22 CURVE SMOOTH",
"99 -10 LINE",
"115 -22 OFFCURVE",
"125 -22 OFFCURVE",
"135 -6 CURVE",
"279 158 LINE",
"377 40 OFFCURVE",
"521 -20 OFFCURVE",
"701 -20 CURVE SMOOTH",
"1067 -20 OFFCURVE",
"1289 238 OFFCURVE",
"1289 720 CURVE SMOOTH",
"1289 920 OFFCURVE",
"1251 1082 OFFCURVE",
"1181 1204 CURVE",
"1347 1396 LINE",
"1353 1404 OFFCURVE",
"1351 1412 OFFCURVE",
"1345 1418 CURVE"
);
},
{
closed = 1;
nodes = (
"213 1164 OFFCURVE",
"381 1382 OFFCURVE",
"703 1382 CURVE SMOOTH",
"863 1382 OFFCURVE",
"983 1328 OFFCURVE",
"1065 1218 CURVE",
"285 314 LINE",
"237 418 OFFCURVE",
"213 552 OFFCURVE",
"213 720 CURVE SMOOTH"
);
},
{
closed = 1;
nodes = (
"1189 276 OFFCURVE",
"1027 64 OFFCURVE",
"705 64 CURVE SMOOTH",
"543 64 OFFCURVE",
"421 118 OFFCURVE",
"337 228 CURVE",
"1117 1132 LINE",
"1165 1026 OFFCURVE",
"1189 890 OFFCURVE",
"1189 720 CURVE SMOOTH"
);
}
);
};
layerId = "91AB5BCA-6A50-42DA-B2F7-8181BF189245";
paths = (
{
closed = 1;
nodes = (
"233 158 LINE",
"307 40 OFFCURVE",
"431 -20 OFFCURVE",
"597 -20 CURVE SMOOTH",
"933 -20 OFFCURVE",
"1175 238 OFFCURVE",
"1241 720 CURVE SMOOTH",
"1269 920 OFFCURVE",
"1257 1082 OFFCURVE",
"1211 1204 CURVE",
"1401 1408 LINE",
"1343 1470 LINE",
"1171 1286 LINE",
"1093 1404 OFFCURVE",
"971 1466 OFFCURVE",
"807 1466 CURVE SMOOTH",
"471 1466 OFFCURVE",
"229 1204 OFFCURVE",
"161 716 CURVE SMOOTH",
"133 518 OFFCURVE",
"143 358 OFFCURVE",
"191 240 CURVE",
"3 38 LINE",
"59 -26 LINE"
);
},
{
closed = 1;
nodes = (
"463 64 OFFCURVE",
"359 118 OFFCURVE",
"297 228 CURVE",
"1141 1132 LINE",
"1171 1026 OFFCURVE",
"1173 890 OFFCURVE",
"1149 720 CURVE SMOOTH",
"1087 276 OFFCURVE",
"909 64 OFFCURVE",
"613 64 CURVE SMOOTH"
);
},
{
closed = 1;
nodes = (
"231 418 OFFCURVE",
"229 552 OFFCURVE",
"251 720 CURVE SMOOTH",
"315 1164 OFFCURVE",
"499 1382 OFFCURVE",
"795 1382 CURVE SMOOTH",
"943 1382 OFFCURVE",
"1045 1328 OFFCURVE",
"1105 1218 CURVE",
"261 314 LINE"
);
}
);
width = 1346;
}
);
leftKerningGroup = Oslash;
rightKerningGroup = Oslash;
unicode = 00D8;
},
{
glyphname = OE;
lastChange = "2019-05-07 06:03:45 +0000";
layers = (
{
background = {
paths = (
{
closed = 1;
nodes = (
"1519 328 LINE",
"1519 584 LINE",
"1957 584 LINE",
"1957 906 LINE",
"1519 906 LINE",
"1519 1156 LINE",
"2217 1156 LINE",
"2219 1484 LINE",
"1255 1484 LINE",
"1131 1484 LINE",
"1061 1498 OFFCURVE",
"975 1504 OFFCURVE",
"873 1504 CURVE SMOOTH",
"391 1504 OFFCURVE",
"105 1202 OFFCURVE",
"105 738 CURVE SMOOTH",
"105 276 OFFCURVE",
"383 -20 OFFCURVE",
"849 -20 CURVE SMOOTH",
"961 -20 OFFCURVE",
"1055 -14 OFFCURVE",
"1131 0 CURVE",
"1231 0 LINE",
"1245 0 OFFCURVE",
"1259 0 OFFCURVE",
"1273 0 CURVE",
"2189 0 LINE SMOOTH",
"2223 0 OFFCURVE",
"2237 20 OFFCURVE",
"2237 44 CURVE SMOOTH",
"2237 290 LINE SMOOTH",
"2237 318 OFFCURVE",
"2221 328 OFFCURVE",
"2193 328 CURVE SMOOTH"
);
},
{
closed = 1;
nodes = (
"647 292 OFFCURVE",
"581 412 OFFCURVE",
"581 732 CURVE SMOOTH",
"581 1062 OFFCURVE",
"651 1196 OFFCURVE",
"825 1196 CURVE SMOOTH",
"995 1196 OFFCURVE",
"1065 1062 OFFCURVE",
"1065 732 CURVE SMOOTH",
"1065 412 OFFCURVE",
"999 292 OFFCURVE",
"825 292 CURVE SMOOTH"
);
}
);
};
layerId = "258ED206-D907-4350-8EBA-CBDDA1C16BF7";
paths = (
{
closed = 1;
nodes = (
"845 -20 OFFCURVE",
"937 -14 OFFCURVE",
"1013 0 CURVE",
"1109 0 LINE",
"2083 0 LINE",
"2133 320 LINE",
"1437 320 LINE",
"1475 570 LINE",
"1899 570 LINE",
"1947 884 LINE",
"1523 884 LINE",
"1559 1128 LINE",
"2237 1128 LINE",
"2287 1446 LINE",
"1353 1446 LINE",
"1231 1446 LINE",
"1167 1460 OFFCURVE",
"1083 1466 OFFCURVE",
"985 1466 CURVE SMOOTH",
"519 1466 OFFCURVE",
"197 1172 OFFCURVE",
"129 720 CURVE SMOOTH",
"59 270 OFFCURVE",
"287 -20 OFFCURVE",
"737 -20 CURVE SMOOTH"
);
},
{
closed = 1;
nodes = (
"587 284 OFFCURVE",
"541 402 OFFCURVE",
"589 714 CURVE SMOOTH",
"637 1036 OFFCURVE",
"725 1166 OFFCURVE",
"893 1166 CURVE SMOOTH",
"1059 1166 OFFCURVE",
"1107 1036 OFFCURVE",
"1057 714 CURVE SMOOTH",
"1009 402 OFFCURVE",
"929 284 OFFCURVE",
"759 284 CURVE SMOOTH"
);
}
);
width = 2246;
},
{
background = {
paths = (
{
closed = 1;
nodes = (
"1310 80 LINE SMOOTH",
"1296 80 OFFCURVE",
"1292 82 OFFCURVE",
"1292 98 CURVE SMOOTH",
"1292 692 LINE SMOOTH",
"1292 708 OFFCURVE",
"1296 710 OFFCURVE",
"1310 710 CURVE SMOOTH",
"1864 710 LINE SMOOTH",
"1876 710 OFFCURVE",
"1880 712 OFFCURVE",
"1880 724 CURVE SMOOTH",
"1880 776 LINE SMOOTH",
"1880 786 OFFCURVE",
"1876 790 OFFCURVE",
"1866 790 CURVE SMOOTH",
"1310 790 LINE SMOOTH",
"1296 790 OFFCURVE",
"1292 792 OFFCURVE",
"1292 804 CURVE SMOOTH",
"1292 1386 LINE SMOOTH",
"1292 1402 OFFCURVE",
"1296 1404 OFFCURVE",
"1310 1404 CURVE SMOOTH",
"2026 1404 LINE SMOOTH",
"2038 1404 OFFCURVE",
"2042 1406 OFFCURVE",
"2042 1418 CURVE SMOOTH",
"2042 1470 LINE SMOOTH",
"2042 1480 OFFCURVE",
"2038 1484 OFFCURVE",
"2028 1484 CURVE SMOOTH",
"1218 1484 LINE SMOOTH",
"1204 1484 OFFCURVE",
"1200 1480 OFFCURVE",
"1200 1464 CURVE SMOOTH",
"1200 1200 LINE",
"1100 1400 OFFCURVE",
"926 1504 OFFCURVE",
"692 1504 CURVE SMOOTH",
"316 1504 OFFCURVE",
"88 1234 OFFCURVE",
"88 734 CURVE SMOOTH",
"88 242 OFFCURVE",
"312 -20 OFFCURVE",
"690 -20 CURVE SMOOTH",
"924 -20 OFFCURVE",
"1100 82 OFFCURVE",
"1200 280 CURVE",
"1200 20 LINE SMOOTH",
"1200 4 OFFCURVE",
"1204 0 OFFCURVE",
"1218 0 CURVE SMOOTH",
"2058 0 LINE SMOOTH",
"2068 0 OFFCURVE",
"2072 4 OFFCURVE",
"2072 14 CURVE SMOOTH",
"2072 66 LINE SMOOTH",
"2072 78 OFFCURVE",
"2068 80 OFFCURVE",
"2056 80 CURVE SMOOTH"
);
},
{
closed = 1;
nodes = (
"362 64 OFFCURVE",
"184 286 OFFCURVE",
"184 738 CURVE SMOOTH",
"184 1194 OFFCURVE",
"362 1420 OFFCURVE",
"692 1420 CURVE SMOOTH",
"1020 1420 OFFCURVE",
"1190 1196 OFFCURVE",
"1190 738 CURVE SMOOTH",
"1190 284 OFFCURVE",
"1024 64 OFFCURVE",
"694 64 CURVE SMOOTH"
);
}
);
};
layerId = "91AB5BCA-6A50-42DA-B2F7-8181BF189245";
paths = (
{
closed = 1;
nodes = (
"806 -20 OFFCURVE",
"978 80 OFFCURVE",
"1094 274 CURVE",
"1056 0 LINE",
"1838 0 LINE",
"1850 78 LINE",
"1148 78 LINE",
"1236 692 LINE",
"1764 692 LINE",
"1774 770 LINE",
"1246 770 LINE",
"1330 1368 LINE",
"2004 1368 LINE",
"2014 1446 LINE",
"1258 1446 LINE",
"1220 1170 LINE",
"1158 1366 OFFCURVE",
"1016 1466 OFFCURVE",
"806 1466 CURVE SMOOTH",
"470 1466 OFFCURVE",
"228 1204 OFFCURVE",
"158 716 CURVE SMOOTH",
"90 236 OFFCURVE",
"258 -20 OFFCURVE",
"596 -20 CURVE SMOOTH"
);
},
{
closed = 1;
nodes = (
"314 62 OFFCURVE",
"184 278 OFFCURVE",
"246 720 CURVE SMOOTH",
"308 1164 OFFCURVE",
"498 1384 OFFCURVE",
"796 1384 CURVE SMOOTH",
"1090 1384 OFFCURVE",
"1212 1166 OFFCURVE",
"1148 720 CURVE SMOOTH",
"1086 276 OFFCURVE",
"908 62 OFFCURVE",
"612 62 CURVE SMOOTH"
);
}
);
width = 2052;
}
);
leftKerningGroup = O;
leftMetricsKey = O;
rightKerningGroup = E;
rightMetricsKey = E;
unicode = 0152;
},
{
glyphname = P;
lastChange = "2019-05-07 23:01:45 +0000";
layers = (
{
background = {
paths = (
{
closed = 1;
nodes = (
"1411 1324 OFFCURVE",
"1137 1484 OFFCURVE",
"809 1484 CURVE SMOOTH",
"147 1484 LINE SMOOTH",
"123 1484 OFFCURVE",
"109 1468 OFFCURVE",
"109 1438 CURVE SMOOTH",
"109 50 LINE SMOOTH",
"109 16 OFFCURVE",
"121 0 OFFCURVE",
"161 0 CURVE SMOOTH",
"497 0 LINE SMOOTH",
"543 0 OFFCURVE",
"563 16 OFFCURVE",
"563 58 CURVE SMOOTH",
"563 510 LINE SMOOTH",
"563 524 OFFCURVE",
"569 532 OFFCURVE",
"587 532 CURVE SMOOTH",
"861 532 LINE SMOOTH",
"1187 532 OFFCURVE",
"1411 710 OFFCURVE",
"1411 1002 CURVE SMOOTH"
);
},
{
closed = 1;
nodes = (
"947 922 OFFCURVE",
"889 852 OFFCURVE",
"793 852 CURVE SMOOTH",
"597 852 LINE SMOOTH",
"571 852 OFFCURVE",
"563 866 OFFCURVE",
"563 896 CURVE SMOOTH",
"563 1122 LINE SMOOTH",
"563 1152 OFFCURVE",
"575 1164 OFFCURVE",
"609 1164 CURVE SMOOTH",
"781 1164 LINE SMOOTH",
"873 1164 OFFCURVE",
"947 1104 OFFCURVE",
"947 1008 CURVE SMOOTH"
);
}
);
};
layerId = "258ED206-D907-4350-8EBA-CBDDA1C16BF7";
paths = (
{
closed = 1;
nodes = (
"445 0 LINE",
"521 498 LINE",
"751 498 LINE SMOOTH",
"1067 498 OFFCURVE",
"1291 670 OFFCURVE",
"1335 956 CURVE SMOOTH",
"1383 1270 OFFCURVE",
"1163 1446 OFFCURVE",
"845 1446 CURVE SMOOTH",
"277 1446 LINE",
"57 0 LINE"
);
},
{
closed = 1;
nodes = (
"617 1158 LINE",
"839 1158 LINE SMOOTH",
"925 1158 OFFCURVE",
"997 1076 OFFCURVE",
"983 976 CURVE SMOOTH",
"969 882 OFFCURVE",
"881 788 OFFCURVE",
"783 788 CURVE SMOOTH",
"561 788 LINE"
);
}
);
width = 1373;
},
{
background = {
paths = (
{
closed = 1;
nodes = (
"1213 1368 OFFCURVE",
"991 1484 OFFCURVE",
"681 1484 CURVE SMOOTH",
"237 1484 LINE SMOOTH",
"223 1484 OFFCURVE",
"219 1480 OFFCURVE",
"219 1464 CURVE SMOOTH",
"219 16 LINE SMOOTH",
"219 6 OFFCURVE",
"225 0 OFFCURVE",
"235 0 CURVE SMOOTH",
"295 0 LINE SMOOTH",
"305 0 OFFCURVE",
"311 6 OFFCURVE",
"311 18 CURVE SMOOTH",
"311 636 LINE SMOOTH",
"311 648 OFFCURVE",
"315 654 OFFCURVE",
"327 654 CURVE SMOOTH",
"693 654 LINE SMOOTH",
"995 654 OFFCURVE",
"1213 774 OFFCURVE",
"1213 1070 CURVE SMOOTH"
);
},
{
closed = 1;
nodes = (
"1117 830 OFFCURVE",
"949 734 OFFCURVE",
"693 734 CURVE SMOOTH",
"325 734 LINE SMOOTH",
"315 734 OFFCURVE",
"311 740 OFFCURVE",
"311 754 CURVE SMOOTH",
"311 1388 LINE SMOOTH",
"311 1400 OFFCURVE",
"317 1404 OFFCURVE",
"329 1404 CURVE SMOOTH",
"679 1404 LINE SMOOTH",
"949 1404 OFFCURVE",
"1117 1324 OFFCURVE",
"1117 1076 CURVE SMOOTH"
);
}
);
};
layerId = "91AB5BCA-6A50-42DA-B2F7-8181BF189245";
paths = (
{
closed = 1;
nodes = (
"227 0 LINE",
"305 554 LINE",
"647 554 LINE SMOOTH",
"919 554 OFFCURVE",
"1137 716 OFFCURVE",
"1179 1006 CURVE SMOOTH",
"1219 1296 OFFCURVE",
"1041 1446 OFFCURVE",
"761 1446 CURVE SMOOTH",
"351 1446 LINE",
"149 0 LINE"
);
},
{
closed = 1;
nodes = (
"419 1362 LINE",
"747 1362 LINE SMOOTH",
"991 1362 OFFCURVE",
"1131 1252 OFFCURVE",
"1099 1012 CURVE SMOOTH",
"1065 772 OFFCURVE",
"889 640 OFFCURVE",
"659 640 CURVE SMOOTH",
"317 640 LINE"
);
}
);
width = 1240;
}
);
leftKerningGroup = N;
leftMetricsKey = H;
rightKerningGroup = P;
rightMetricsKey = O;
unicode = 0050;
},
{
glyphname = Thorn;
lastChange = "2019-05-07 23:01:45 +0000";
layers = (
{
background = {
paths = (
{
closed = 1;
nodes = (
"1469 1060 OFFCURVE",
"1195 1216 OFFCURVE",
"867 1216 CURVE SMOOTH",
"615 1216 LINE SMOOTH",
"601 1216 OFFCURVE",
"595 1224 OFFCURVE",
"595 1240 CURVE SMOOTH",
"595 1442 LINE SMOOTH",
"595 1468 OFFCURVE",
"583 1484 OFFCURVE",
"559 1484 CURVE SMOOTH",
"179 1484 LINE SMOOTH",
"157 1484 OFFCURVE",
"141 1468 OFFCURVE",
"141 1438 CURVE SMOOTH",
"141 50 LINE SMOOTH",
"141 16 OFFCURVE",
"153 0 OFFCURVE",
"193 0 CURVE SMOOTH",
"529 0 LINE SMOOTH",
"575 0 OFFCURVE",
"595 16 OFFCURVE",
"595 58 CURVE SMOOTH",
"595 262 LINE SMOOTH",
"595 276 OFFCURVE",
"601 284 OFFCURVE",
"619 284 CURVE SMOOTH",
"919 284 LINE SMOOTH",
"1245 284 OFFCURVE",
"1469 458 OFFCURVE",
"1469 744 CURVE SMOOTH"
);
},
{
closed = 1;
nodes = (
"1005 670 OFFCURVE",
"947 604 OFFCURVE",
"851 604 CURVE SMOOTH",
"629 604 LINE SMOOTH",
"603 604 OFFCURVE",
"595 618 OFFCURVE",
"595 648 CURVE SMOOTH",
"595 854 LINE SMOOTH",
"595 884 OFFCURVE",
"607 896 OFFCURVE",
"641 896 CURVE SMOOTH",
"839 896 LINE SMOOTH",
"931 896 OFFCURVE",
"1005 840 OFFCURVE",
"1005 750 CURVE SMOOTH"
);
}
);
};
layerId = "258ED206-D907-4350-8EBA-CBDDA1C16BF7";
paths = (
{
closed = 1;
nodes = (
"499 0 LINE",
"541 276 LINE",
"855 276 LINE SMOOTH",
"1171 276 OFFCURVE",
"1413 446 OFFCURVE",
"1455 726 CURVE SMOOTH",
"1501 1034 OFFCURVE",
"1259 1186 OFFCURVE",
"941 1186 CURVE SMOOTH",
"679 1186 LINE",
"717 1446 LINE",
"277 1446 LINE",
"57 0 LINE"
);
},
{
closed = 1;
nodes = (
"631 874 LINE",
"867 874 LINE SMOOTH",
"955 874 OFFCURVE",
"1021 820 OFFCURVE",
"1007 732 CURVE SMOOTH",
"995 654 OFFCURVE",
"927 588 OFFCURVE",
"835 588 CURVE SMOOTH",
"587 588 LINE"
);
}
);
width = 1526;
},
{
background = {
paths = (
{
closed = 1;
nodes = (
"1213 1044 OFFCURVE",
"993 1158 OFFCURVE",
"681 1158 CURVE SMOOTH",
"323 1158 LINE SMOOTH",
"315 1158 OFFCURVE",
"311 1162 OFFCURVE",
"311 1168 CURVE SMOOTH",
"311 1464 LINE SMOOTH",
"311 1480 OFFCURVE",
"307 1484 OFFCURVE",
"293 1484 CURVE SMOOTH",
"237 1484 LINE SMOOTH",
"223 1484 OFFCURVE",
"219 1480 OFFCURVE",
"219 1464 CURVE SMOOTH",
"219 16 LINE SMOOTH",
"219 6 OFFCURVE",
"225 0 OFFCURVE",
"235 0 CURVE SMOOTH",
"295 0 LINE SMOOTH",
"305 0 OFFCURVE",
"311 6 OFFCURVE",
"311 18 CURVE SMOOTH",
"311 346 LINE SMOOTH",
"311 358 OFFCURVE",
"315 364 OFFCURVE",
"327 364 CURVE SMOOTH",
"693 364 LINE SMOOTH",
"993 364 OFFCURVE",
"1213 478 OFFCURVE",
"1213 780 CURVE SMOOTH"
);
},
{
closed = 1;
nodes = (
"1117 536 OFFCURVE",
"949 444 OFFCURVE",
"693 444 CURVE SMOOTH",
"325 444 LINE SMOOTH",
"315 444 OFFCURVE",
"311 450 OFFCURVE",
"311 464 CURVE SMOOTH",
"311 1062 LINE SMOOTH",
"311 1074 OFFCURVE",
"317 1078 OFFCURVE",
"329 1078 CURVE SMOOTH",
"679 1078 LINE SMOOTH",
"949 1078 OFFCURVE",
"1117 1002 OFFCURVE",
"1117 780 CURVE SMOOTH"
);
}
);
};
layerId = "91AB5BCA-6A50-42DA-B2F7-8181BF189245";
paths = (
{
closed = 1;
nodes = (
"231 0 LINE",
"281 354 LINE",
"623 354 LINE SMOOTH",
"893 354 OFFCURVE",
"1107 466 OFFCURVE",
"1147 760 CURVE SMOOTH",
"1183 1018 OFFCURVE",
"1003 1130 OFFCURVE",
"721 1130 CURVE SMOOTH",
"389 1130 LINE",
"435 1446 LINE",
"351 1446 LINE",
"149 0 LINE"
);
},
{
closed = 1;
nodes = (
"379 1052 LINE",
"709 1052 LINE SMOOTH",
"951 1052 OFFCURVE",
"1091 976 OFFCURVE",
"1061 760 CURVE SMOOTH",
"1027 522 OFFCURVE",
"863 432 OFFCURVE",
"633 432 CURVE SMOOTH",
"291 432 LINE"
);
}
);
width = 1243;
}
);
leftKerningGroup = N;
leftMetricsKey = P;
rightKerningGroup = P;
rightMetricsKey = P;
unicode = 00DE;
},
{
glyphname = Q;
lastChange = "2019-05-07 06:03:45 +0000";
layers = (
{
background = {
paths = (
{
closed = 1;
nodes = (
"89 276 OFFCURVE",
"367 -20 OFFCURVE",
"809 -20 CURVE SMOOTH",
"861 -20 OFFCURVE",
"903 -18 OFFCURVE",
"951 -12 CURVE SMOOTH",
"965 -10 OFFCURVE",
"975 -12 OFFCURVE",
"981 -20 CURVE SMOOTH",
"1095 -168 OFFCURVE",
"1239 -256 OFFCURVE",
"1439 -256 CURVE SMOOTH",
"1503 -256 OFFCURVE",
"1527 -244 OFFCURVE",
"1527 -194 CURVE SMOOTH",
"1527 26 LINE SMOOTH",
"1527 40 OFFCURVE",
"1521 56 OFFCURVE",
"1493 60 CURVE SMOOTH",
"1407 72 OFFCURVE",
"1313 122 OFFCURVE",
"1313 156 CURVE SMOOTH",
"1313 164 OFFCURVE",
"1313 168 OFFCURVE",
"1317 172 CURVE",
"1451 304 OFFCURVE",
"1527 498 OFFCURVE",
"1527 738 CURVE SMOOTH",
"1527 1202 OFFCURVE",
"1241 1504 OFFCURVE",
"809 1504 CURVE SMOOTH",
"375 1504 OFFCURVE",
"89 1202 OFFCURVE",
"89 738 CURVE SMOOTH"
);
},
{
closed = 1;
nodes = (
"565 1064 OFFCURVE",
"635 1196 OFFCURVE",
"809 1196 CURVE SMOOTH",
"981 1196 OFFCURVE",
"1051 1064 OFFCURVE",
"1051 734 CURVE SMOOTH",
"1051 412 OFFCURVE",
"985 292 OFFCURVE",
"809 292 CURVE SMOOTH",
"631 292 OFFCURVE",
"565 412 OFFCURVE",
"565 734 CURVE SMOOTH"
);
}
);
};
layerId = "258ED206-D907-4350-8EBA-CBDDA1C16BF7";
paths = (
{
closed = 1;
nodes = (
"1421 54 LINE",
"1323 54 OFFCURVE",
"1241 104 OFFCURVE",
"1235 160 CURVE",
"1385 300 OFFCURVE",
"1487 486 OFFCURVE",
"1523 720 CURVE SMOOTH",
"1591 1172 OFFCURVE",
"1359 1466 OFFCURVE",
"939 1466 CURVE SMOOTH",
"521 1466 OFFCURVE",
"197 1172 OFFCURVE",
"129 720 CURVE SMOOTH",
"61 270 OFFCURVE",
"287 -20 OFFCURVE",
"715 -20 CURVE SMOOTH",
"765 -20 OFFCURVE",
"805 -18 OFFCURVE",
"875 -10 CURVE",
"1013 -226 OFFCURVE",
"1145 -250 OFFCURVE",
"1375 -250 CURVE"
);
},
{
closed = 1;
nodes = (
"591 292 OFFCURVE",
"505 402 OFFCURVE",
"551 716 CURVE SMOOTH",
"601 1038 OFFCURVE",
"725 1154 OFFCURVE",
"893 1154 CURVE SMOOTH",
"1059 1154 OFFCURVE",
"1149 1038 OFFCURVE",
"1101 716 CURVE SMOOTH",
"1053 402 OFFCURVE",
"933 292 OFFCURVE",
"761 292 CURVE SMOOTH"
);
}
);
width = 1595;
},
{
background = {
paths = (
{
closed = 1;
nodes = (
"103 232 OFFCURVE",
"337 -20 OFFCURVE",
"705 -20 CURVE SMOOTH",
"757 -20 OFFCURVE",
"817 -14 OFFCURVE",
"867 -2 CURVE SMOOTH",
"881 2 OFFCURVE",
"891 -2 OFFCURVE",
"897 -10 CURVE SMOOTH",
"1027 -192 OFFCURVE",
"1159 -244 OFFCURVE",
"1247 -244 CURVE SMOOTH",
"1275 -244 OFFCURVE",
"1287 -240 OFFCURVE",
"1287 -218 CURVE SMOOTH",
"1287 -174 LINE SMOOTH",
"1287 -168 OFFCURVE",
"1285 -162 OFFCURVE",
"1273 -160 CURVE SMOOTH",
"1123 -140 OFFCURVE",
"989 -22 OFFCURVE",
"989 32 CURVE SMOOTH",
"989 40 OFFCURVE",
"991 44 OFFCURVE",
"1001 50 CURVE SMOOTH",
"1195 166 OFFCURVE",
"1307 378 OFFCURVE",
"1307 738 CURVE SMOOTH",
"1307 1240 OFFCURVE",
"1081 1504 OFFCURVE",
"705 1504 CURVE SMOOTH",
"329 1504 OFFCURVE",
"103 1240 OFFCURVE",
"103 738 CURVE SMOOTH"
);
},
{
closed = 1;
nodes = (
"199 1184 OFFCURVE",
"371 1420 OFFCURVE",
"705 1420 CURVE SMOOTH",
"1039 1420 OFFCURVE",
"1211 1184 OFFCURVE",
"1211 738 CURVE SMOOTH",
"1211 282 OFFCURVE",
"1033 64 OFFCURVE",
"705 64 CURVE SMOOTH",
"377 64 OFFCURVE",
"199 282 OFFCURVE",
"199 734 CURVE SMOOTH"
);
}
);
};
layerId = "91AB5BCA-6A50-42DA-B2F7-8181BF189245";
paths = (
{
closed = 1;
nodes = (
"1099 -158 LINE",
"983 -152 OFFCURVE",
"887 -100 OFFCURVE",
"845 36 CURVE",
"1077 158 OFFCURVE",
"1193 388 OFFCURVE",
"1239 720 CURVE SMOOTH",
"1307 1210 OFFCURVE",
"1141 1466 OFFCURVE",
"805 1466 CURVE SMOOTH",
"467 1466 OFFCURVE",
"227 1210 OFFCURVE",
"159 720 CURVE SMOOTH",
"89 226 OFFCURVE",
"267 -20 OFFCURVE",
"595 -20 CURVE SMOOTH",
"647 -20 OFFCURVE",
"699 -12 OFFCURVE",
"761 2 CURVE",
"827 -196 OFFCURVE",
"999 -238 OFFCURVE",
"1087 -238 CURVE"
);
},
{
closed = 1;
nodes = (
"313 62 OFFCURVE",
"177 274 OFFCURVE",
"239 716 CURVE SMOOTH",
"301 1154 OFFCURVE",
"493 1384 OFFCURVE",
"793 1384 CURVE SMOOTH",
"1093 1384 OFFCURVE",
"1221 1154 OFFCURVE",
"1159 720 CURVE SMOOTH",
"1097 274 OFFCURVE",
"901 62 OFFCURVE",
"607 62 CURVE SMOOTH"
);
}
);
width = 1340;
}
);
leftKerningGroup = O;
leftMetricsKey = O;
rightKerningGroup = O;
rightMetricsKey = O;
unicode = 0051;
},
{
glyphname = R;
lastChange = "2019-05-07 06:03:45 +0000";
layers = (
{
anchors = (
{
name = bottom;
position = "{637, 0}";
},
{
name = top;
position = "{837, 1446}";
}
);
background = {
anchors = (
{
name = bottom;
position = "{739, 0}";
},
{
name = top;
position = "{719, 1484}";
}
);
paths = (
{
closed = 1;
nodes = (
"1153 624 LINE SMOOTH",
"1147 640 OFFCURVE",
"1147 656 OFFCURVE",
"1161 662 CURVE SMOOTH",
"1313 720 OFFCURVE",
"1423 872 OFFCURVE",
"1423 1060 CURVE SMOOTH",
"1423 1328 OFFCURVE",
"1199 1484 OFFCURVE",
"813 1484 CURVE SMOOTH",
"145 1484 LINE SMOOTH",
"121 1484 OFFCURVE",
"107 1468 OFFCURVE",
"107 1438 CURVE SMOOTH",
"107 50 LINE SMOOTH",
"107 16 OFFCURVE",
"119 0 OFFCURVE",
"159 0 CURVE SMOOTH",
"495 0 LINE SMOOTH",
"541 0 OFFCURVE",
"561 16 OFFCURVE",
"561 58 CURVE SMOOTH",
"561 568 LINE SMOOTH",
"561 574 OFFCURVE",
"567 590 OFFCURVE",
"585 590 CURVE SMOOTH",
"677 590 LINE SMOOTH",
"715 590 OFFCURVE",
"731 580 OFFCURVE",
"739 558 CURVE SMOOTH",
"927 42 LINE SMOOTH",
"935 14 OFFCURVE",
"953 0 OFFCURVE",
"981 0 CURVE SMOOTH",
"1369 0 LINE SMOOTH",
"1401 0 OFFCURVE",
"1419 30 OFFCURVE",
"1405 64 CURVE SMOOTH"
);
},
{
closed = 1;
nodes = (
"595 888 LINE SMOOTH",
"569 888 OFFCURVE",
"561 900 OFFCURVE",
"561 930 CURVE SMOOTH",
"561 1148 LINE SMOOTH",
"561 1178 OFFCURVE",
"573 1188 OFFCURVE",
"607 1188 CURVE SMOOTH",
"783 1188 LINE SMOOTH",
"873 1188 OFFCURVE",
"953 1134 OFFCURVE",
"953 1032 CURVE SMOOTH",
"953 946 OFFCURVE",
"897 888 OFFCURVE",
"795 888 CURVE SMOOTH"
);
}
);
};
layerId = "258ED206-D907-4350-8EBA-CBDDA1C16BF7";
paths = (
{
closed = 1;
nodes = (
"443 0 LINE",
"519 498 LINE",
"723 498 LINE",
"855 0 LINE",
"1251 0 LINE",
"1083 560 LINE",
"1229 642 OFFCURVE",
"1341 758 OFFCURVE",
"1375 980 CURVE SMOOTH",
"1415 1242 OFFCURVE",
"1301 1446 OFFCURVE",
"927 1446 CURVE SMOOTH",
"275 1446 LINE",
"57 0 LINE"
);
},
{
closed = 1;
nodes = (
"619 1158 LINE",
"841 1158 LINE SMOOTH",
"927 1158 OFFCURVE",
"1001 1076 OFFCURVE",
"985 976 CURVE SMOOTH",
"971 882 OFFCURVE",
"883 788 OFFCURVE",
"785 788 CURVE SMOOTH",
"563 788 LINE"
);
}
);
width = 1384;
},
{
anchors = (
{
name = bottom;
position = "{545, 0}";
},
{
name = top;
position = "{735, 1446}";
}
);
background = {
anchors = (
{
name = bottom;
position = "{661, 0}";
},
{
name = top;
position = "{647, 1484}";
}
);
paths = (
{
closed = 1;
nodes = (
"885 718 LINE",
"883 724 OFFCURVE",
"885 730 OFFCURVE",
"893 732 CURVE SMOOTH",
"1031 768 OFFCURVE",
"1197 870 OFFCURVE",
"1197 1116 CURVE SMOOTH",
"1197 1360 OFFCURVE",
"1029 1484 OFFCURVE",
"741 1484 CURVE SMOOTH",
"225 1484 LINE SMOOTH",
"211 1484 OFFCURVE",
"207 1480 OFFCURVE",
"207 1464 CURVE SMOOTH",
"207 18 LINE SMOOTH",
"207 6 OFFCURVE",
"211 0 OFFCURVE",
"227 0 CURVE SMOOTH",
"279 0 LINE SMOOTH",
"295 0 OFFCURVE",
"299 6 OFFCURVE",
"299 22 CURVE SMOOTH",
"299 688 LINE SMOOTH",
"299 702 OFFCURVE",
"305 710 OFFCURVE",
"323 710 CURVE SMOOTH",
"755 710 LINE SMOOTH",
"781 710 OFFCURVE",
"791 704 OFFCURVE",
"797 690 CURVE SMOOTH",
"1081 18 LINE SMOOTH",
"1087 6 OFFCURVE",
"1091 0 OFFCURVE",
"1105 0 CURVE SMOOTH",
"1161 0 LINE SMOOTH",
"1175 0 OFFCURVE",
"1183 14 OFFCURVE",
"1177 28 CURVE SMOOTH"
);
},
{
closed = 1;
nodes = (
"313 790 LINE SMOOTH",
"303 790 OFFCURVE",
"299 796 OFFCURVE",
"299 808 CURVE SMOOTH",
"299 1388 LINE SMOOTH",
"299 1400 OFFCURVE",
"305 1404 OFFCURVE",
"321 1404 CURVE SMOOTH",
"739 1404 LINE SMOOTH",
"981 1404 OFFCURVE",
"1101 1306 OFFCURVE",
"1101 1102 CURVE SMOOTH",
"1101 878 OFFCURVE",
"957 790 OFFCURVE",
"671 790 CURVE SMOOTH"
);
}
);
};
layerId = "91AB5BCA-6A50-42DA-B2F7-8181BF189245";
paths = (
{
closed = 1;
nodes = (
"219 0 LINE",
"317 688 LINE",
"763 688 LINE",
"935 0 LINE",
"1017 0 LINE",
"841 706 LINE",
"975 742 OFFCURVE",
"1145 846 OFFCURVE",
"1179 1088 CURVE SMOOTH",
"1211 1326 OFFCURVE",
"1077 1446 OFFCURVE",
"819 1446 CURVE SMOOTH",
"351 1446 LINE",
"147 0 LINE"
);
},
{
closed = 1;
nodes = (
"411 1366 LINE",
"807 1366 LINE SMOOTH",
"1025 1366 OFFCURVE",
"1127 1280 OFFCURVE",
"1099 1074 CURVE SMOOTH",
"1069 856 OFFCURVE",
"919 770 OFFCURVE",
"663 770 CURVE SMOOTH",
"327 770 LINE"
);
}
);
width = 1209;
}
);
leftKerningGroup = N;
leftMetricsKey = H;
rightKerningGroup = R;
rightMetricsKey = "=X+30";
unicode = 0052;
},
{
glyphname = S;
lastChange = "2019-05-07 06:03:45 +0000";
layers = (
{
anchors = (
{
name = bottom;
position = "{665, 0}";
},
{
name = top;
position = "{885, 1446}";
}
);
background = {
anchors = (
{
name = bottom;
position = "{771, 0}";
},
{
name = top;
position = "{771, 1484}";
}
);
paths = (
{
closed = 1;
nodes = (
"1077 1058 OFFCURVE",
"1089 1056 OFFCURVE",
"1109 1070 CURVE SMOOTH",
"1327 1228 LINE SMOOTH",
"1353 1248 OFFCURVE",
"1339 1270 OFFCURVE",
"1327 1288 CURVE SMOOTH",
"1235 1418 OFFCURVE",
"1009 1504 OFFCURVE",
"771 1504 CURVE SMOOTH",
"393 1504 OFFCURVE",
"155 1290 OFFCURVE",
"155 1030 CURVE SMOOTH",
"155 820 OFFCURVE",
"307 646 OFFCURVE",
"547 586 CURVE SMOOTH",
"851 512 LINE SMOOTH",
"937 492 OFFCURVE",
"977 452 OFFCURVE",
"977 404 CURVE SMOOTH",
"977 330 OFFCURVE",
"881 288 OFFCURVE",
"735 288 CURVE SMOOTH",
"577 288 OFFCURVE",
"499 334 OFFCURVE",
"411 448 CURVE SMOOTH",
"395 468 OFFCURVE",
"371 476 OFFCURVE",
"335 452 CURVE SMOOTH",
"129 310 LINE SMOOTH",
"101 288 OFFCURVE",
"101 272 OFFCURVE",
"117 244 CURVE SMOOTH",
"211 86 OFFCURVE",
"477 -20 OFFCURVE",
"769 -20 CURVE SMOOTH",
"1163 -20 OFFCURVE",
"1409 172 OFFCURVE",
"1409 468 CURVE SMOOTH",
"1409 674 OFFCURVE",
"1293 842 OFFCURVE",
"1043 904 CURVE SMOOTH",
"711 990 LINE SMOOTH",
"611 1014 OFFCURVE",
"583 1056 OFFCURVE",
"583 1092 CURVE SMOOTH",
"583 1142 OFFCURVE",
"637 1194 OFFCURVE",
"787 1194 CURVE SMOOTH",
"943 1194 OFFCURVE",
"1001 1138 OFFCURVE",
"1049 1086 CURVE SMOOTH"
);
}
);
};
guideLines = (
{
angle = 214.3236;
position = "{698, 302}";
}
);
layerId = "258ED206-D907-4350-8EBA-CBDDA1C16BF7";
paths = (
{
closed = 1;
nodes = (
"1029 -20 OFFCURVE",
"1327 164 OFFCURVE",
"1363 410 CURVE SMOOTH",
"1385 554 OFFCURVE",
"1399 814 OFFCURVE",
"993 886 CURVE SMOOTH",
"775 924 LINE SMOOTH",
"653 946 OFFCURVE",
"627 984 OFFCURVE",
"637 1050 CURVE SMOOTH",
"645 1102 OFFCURVE",
"699 1164 OFFCURVE",
"851 1164 CURVE SMOOTH",
"985 1164 OFFCURVE",
"1059 1120 OFFCURVE",
"1053 1008 CURVE",
"1445 1008 LINE",
"1455 1246 OFFCURVE",
"1239 1464 OFFCURVE",
"887 1464 CURVE SMOOTH",
"557 1464 OFFCURVE",
"257 1294 OFFCURVE",
"215 1002 CURVE SMOOTH",
"183 756 OFFCURVE",
"309 612 OFFCURVE",
"529 576 CURVE SMOOTH",
"747 538 LINE SMOOTH",
"865 518 OFFCURVE",
"981 498 OFFCURVE",
"969 410 CURVE SMOOTH",
"953 308 OFFCURVE",
"833 278 OFFCURVE",
"711 278 CURVE SMOOTH",
"577 278 OFFCURVE",
"497 338 OFFCURVE",
"491 440 CURVE",
"89 440 LINE",
"65 118 OFFCURVE",
"367 -20 OFFCURVE",
"669 -20 CURVE SMOOTH"
);
}
);
width = 1478;
},
{
anchors = (
{
name = bottom;
position = "{520, 0}";
},
{
name = top;
position = "{734, 1446}";
}
);
background = {
anchors = (
{
name = bottom;
position = "{658, 0}";
},
{
name = top;
position = "{650, 1484}";
}
);
paths = (
{
closed = 1;
nodes = (
"1024 1240 OFFCURVE",
"1028 1236 OFFCURVE",
"1038 1244 CURVE SMOOTH",
"1082 1284 LINE SMOOTH",
"1094 1294 OFFCURVE",
"1090 1304 OFFCURVE",
"1082 1312 CURVE SMOOTH",
"968 1432 OFFCURVE",
"834 1504 OFFCURVE",
"648 1504 CURVE SMOOTH",
"374 1504 OFFCURVE",
"184 1362 OFFCURVE",
"184 1112 CURVE SMOOTH",
"184 984 OFFCURVE",
"244 842 OFFCURVE",
"460 760 CURVE SMOOTH",
"762 644 LINE SMOOTH",
"980 560 OFFCURVE",
"1026 478 OFFCURVE",
"1026 360 CURVE SMOOTH",
"1026 146 OFFCURVE",
"868 64 OFFCURVE",
"630 64 CURVE SMOOTH",
"416 64 OFFCURVE",
"320 138 OFFCURVE",
"208 282 CURVE SMOOTH",
"198 294 OFFCURVE",
"188 296 OFFCURVE",
"168 282 CURVE SMOOTH",
"146 266 LINE SMOOTH",
"126 252 OFFCURVE",
"124 240 OFFCURVE",
"134 226 CURVE SMOOTH",
"252 58 OFFCURVE",
"408 -20 OFFCURVE",
"630 -20 CURVE SMOOTH",
"932 -20 OFFCURVE",
"1118 120 OFFCURVE",
"1118 364 CURVE SMOOTH",
"1118 532 OFFCURVE",
"1032 652 OFFCURVE",
"796 738 CURVE SMOOTH",
"520 838 LINE SMOOTH",
"306 916 OFFCURVE",
"276 1036 OFFCURVE",
"276 1114 CURVE SMOOTH",
"276 1312 OFFCURVE",
"424 1420 OFFCURVE",
"642 1420 CURVE SMOOTH",
"810 1420 OFFCURVE",
"932 1348 OFFCURVE",
"1012 1254 CURVE SMOOTH"
);
}
);
};
layerId = "91AB5BCA-6A50-42DA-B2F7-8181BF189245";
paths = (
{
closed = 1;
nodes = (
"854 -20 OFFCURVE",
"1036 150 OFFCURVE",
"1064 354 CURVE SMOOTH",
"1088 518 OFFCURVE",
"1032 668 OFFCURVE",
"832 728 CURVE SMOOTH",
"560 808 LINE SMOOTH",
"358 868 OFFCURVE",
"300 942 OFFCURVE",
"318 1066 CURVE SMOOTH",
"348 1286 OFFCURVE",
"566 1382 OFFCURVE",
"724 1382 CURVE SMOOTH",
"906 1382 OFFCURVE",
"1060 1300 OFFCURVE",
"1064 1064 CURVE",
"1140 1080 LINE",
"1150 1280 OFFCURVE",
"1042 1464 OFFCURVE",
"740 1464 CURVE SMOOTH",
"472 1464 OFFCURVE",
"270 1292 OFFCURVE",
"238 1064 CURVE SMOOTH",
"214 892 OFFCURVE",
"312 798 OFFCURVE",
"500 744 CURVE SMOOTH",
"786 664 LINE SMOOTH",
"950 618 OFFCURVE",
"1006 504 OFFCURVE",
"984 350 CURVE SMOOTH",
"960 180 OFFCURVE",
"782 58 OFFCURVE",
"550 58 CURVE SMOOTH",
"354 58 OFFCURVE",
"186 156 OFFCURVE",
"174 352 CURVE",
"94 334 LINE",
"102 110 OFFCURVE",
"296 -20 OFFCURVE",
"538 -20 CURVE SMOOTH"
);
}
);
width = 1207;
}
);
leftKerningGroup = S;
rightKerningGroup = S;
unicode = 0053;
},
{
glyphname = Schwa;
lastChange = "2019-05-07 06:03:45 +0000";
layers = (
{
background = {
paths = (
{
closed = 1;
nodes = (
"1057 862 OFFCURVE",
"1043 850 OFFCURVE",
"1017 850 CURVE SMOOTH",
"151 850 LINE SMOOTH",
"107 850 OFFCURVE",
"105 828 OFFCURVE",
"105 784 CURVE SMOOTH",
"105 272 OFFCURVE",
"347 -20 OFFCURVE",
"813 -20 CURVE SMOOTH",
"1199 -20 OFFCURVE",
"1537 316 OFFCURVE",
"1537 760 CURVE SMOOTH",
"1537 1198 OFFCURVE",
"1263 1504 OFFCURVE",
"819 1504 CURVE SMOOTH",
"527 1504 OFFCURVE",
"315 1378 OFFCURVE",
"191 1134 CURVE SMOOTH",
"175 1102 OFFCURVE",
"177 1084 OFFCURVE",
"201 1072 CURVE SMOOTH",
"477 936 LINE SMOOTH",
"511 918 OFFCURVE",
"523 924 OFFCURVE",
"531 938 CURVE SMOOTH",
"623 1088 OFFCURVE",
"699 1156 OFFCURVE",
"823 1156 CURVE SMOOTH",
"1019 1156 OFFCURVE",
"1057 1012 OFFCURVE",
"1057 894 CURVE SMOOTH"
);
},
{
closed = 1;
nodes = (
"1029 384 OFFCURVE",
"971 292 OFFCURVE",
"809 292 CURVE SMOOTH",
"673 292 OFFCURVE",
"591 402 OFFCURVE",
"591 534 CURVE SMOOTH",
"591 564 OFFCURVE",
"601 570 OFFCURVE",
"635 570 CURVE SMOOTH",
"1053 568 LINE"
);
}
);
};
layerId = "258ED206-D907-4350-8EBA-CBDDA1C16BF7";
paths = (
{
closed = 1;
nodes = (
"1075 -20 OFFCURVE",
"1453 308 OFFCURVE",
"1519 742 CURVE SMOOTH",
"1583 1168 OFFCURVE",
"1365 1466 OFFCURVE",
"933 1466 CURVE SMOOTH",
"651 1466 OFFCURVE",
"427 1344 OFFCURVE",
"271 1106 CURVE SMOOTH",
"251 1074 OFFCURVE",
"249 1056 OFFCURVE",
"271 1046 CURVE SMOOTH",
"517 912 LINE SMOOTH",
"549 896 OFFCURVE",
"561 900 OFFCURVE",
"571 914 CURVE SMOOTH",
"683 1060 OFFCURVE",
"767 1128 OFFCURVE",
"887 1128 CURVE SMOOTH",
"1077 1128 OFFCURVE",
"1091 986 OFFCURVE",
"1075 872 CURVE SMOOTH",
"1069 840 OFFCURVE",
"1053 828 OFFCURVE",
"1029 828 CURVE SMOOTH",
"191 828 LINE SMOOTH",
"147 828 OFFCURVE",
"143 808 OFFCURVE",
"135 764 CURVE SMOOTH",
"59 266 OFFCURVE",
"251 -20 OFFCURVE",
"703 -20 CURVE SMOOTH"
);
},
{
closed = 1;
nodes = (
"613 284 OFFCURVE",
"551 392 OFFCURVE",
"569 520 CURVE SMOOTH",
"575 550 OFFCURVE",
"585 556 OFFCURVE",
"617 556 CURVE SMOOTH",
"1021 554 LINE",
"973 374 OFFCURVE",
"901 284 OFFCURVE",
"745 284 CURVE SMOOTH"
);
}
);
width = 1587;
},
{
background = {
paths = (
{
closed = 1;
nodes = (
"1217 762 OFFCURVE",
"1215 760 OFFCURVE",
"1205 760 CURVE SMOOTH",
"135 760 LINE SMOOTH",
"119 760 OFFCURVE",
"119 750 OFFCURVE",
"119 738 CURVE SMOOTH",
"119 348 OFFCURVE",
"251 -20 OFFCURVE",
"721 -20 CURVE SMOOTH",
"1179 -20 OFFCURVE",
"1321 360 OFFCURVE",
"1321 732 CURVE SMOOTH",
"1321 1062 OFFCURVE",
"1221 1504 OFFCURVE",
"721 1504 CURVE SMOOTH",
"265 1504 OFFCURVE",
"177 1120 OFFCURVE",
"147 1044 CURVE SMOOTH",
"143 1034 OFFCURVE",
"141 1028 OFFCURVE",
"149 1026 CURVE SMOOTH",
"225 1000 LINE SMOOTH",
"233 998 OFFCURVE",
"237 996 OFFCURVE",
"239 1000 CURVE SMOOTH",
"267 1062 OFFCURVE",
"303 1418 OFFCURVE",
"721 1418 CURVE SMOOTH",
"1157 1418 OFFCURVE",
"1217 1008 OFFCURVE",
"1217 772 CURVE SMOOTH"
);
},
{
closed = 1;
nodes = (
"1211 382 OFFCURVE",
"1113 66 OFFCURVE",
"721 66 CURVE SMOOTH",
"327 66 OFFCURVE",
"223 384 OFFCURVE",
"223 664 CURVE SMOOTH",
"223 672 OFFCURVE",
"227 676 OFFCURVE",
"239 676 CURVE SMOOTH",
"1217 676 LINE"
);
}
);
};
layerId = "91AB5BCA-6A50-42DA-B2F7-8181BF189245";
paths = (
{
closed = 1;
nodes = (
"1007 -20 OFFCURVE",
"1185 352 OFFCURVE",
"1237 714 CURVE SMOOTH",
"1283 1036 OFFCURVE",
"1255 1466 OFFCURVE",
"805 1466 CURVE SMOOTH",
"397 1466 OFFCURVE",
"265 1092 OFFCURVE",
"227 1018 CURVE SMOOTH",
"223 1008 OFFCURVE",
"219 1002 OFFCURVE",
"227 1000 CURVE SMOOTH",
"291 976 LINE SMOOTH",
"299 974 OFFCURVE",
"301 972 OFFCURVE",
"303 976 CURVE SMOOTH",
"339 1036 OFFCURVE",
"419 1382 OFFCURVE",
"793 1382 CURVE SMOOTH",
"1183 1382 OFFCURVE",
"1183 982 OFFCURVE",
"1151 752 CURVE SMOOTH",
"1149 742 OFFCURVE",
"1147 742 OFFCURVE",
"1137 742 CURVE SMOOTH",
"177 742 LINE SMOOTH",
"163 742 OFFCURVE",
"161 732 OFFCURVE",
"159 720 CURVE SMOOTH",
"107 340 OFFCURVE",
"175 -20 OFFCURVE",
"597 -20 CURVE SMOOTH"
);
},
{
closed = 1;
nodes = (
"255 64 OFFCURVE",
"205 374 OFFCURVE",
"243 648 CURVE SMOOTH",
"245 656 OFFCURVE",
"249 660 OFFCURVE",
"259 660 CURVE SMOOTH",
"1137 660 LINE",
"1091 372 OFFCURVE",
"959 64 OFFCURVE",
"609 64 CURVE SMOOTH"
);
}
);
width = 1339;
}
);
leftKerningGroup = e;
leftMetricsKey = O;
rightKerningGroup = e;
rightMetricsKey = O;
unicode = 018F;
},
{
glyphname = T;
lastChange = "2019-05-07 06:03:45 +0000";
layers = (
{
anchors = (
{
name = bottom;
position = "{564, 0}";
},
{
name = top;
position = "{784, 1446}";
}
);
background = {
anchors = (
{
name = bottom;
position = "{682, 0}";
},
{
name = top;
position = "{682, 1484}";
}
);
paths = (
{
closed = 1;
nodes = (
"34 1172 OFFCURVE",
"52 1162 OFFCURVE",
"80 1162 CURVE SMOOTH",
"432 1162 LINE SMOOTH",
"448 1162 OFFCURVE",
"454 1154 OFFCURVE",
"454 1134 CURVE SMOOTH",
"454 40 LINE SMOOTH",
"454 14 OFFCURVE",
"468 0 OFFCURVE",
"490 0 CURVE SMOOTH",
"870 0 LINE SMOOTH",
"892 0 OFFCURVE",
"908 14 OFFCURVE",
"908 44 CURVE SMOOTH",
"908 1142 LINE SMOOTH",
"908 1156 OFFCURVE",
"916 1162 OFFCURVE",
"932 1162 CURVE SMOOTH",
"1286 1162 LINE SMOOTH",
"1312 1162 OFFCURVE",
"1330 1172 OFFCURVE",
"1330 1200 CURVE SMOOTH",
"1330 1438 LINE SMOOTH",
"1330 1464 OFFCURVE",
"1314 1484 OFFCURVE",
"1280 1484 CURVE SMOOTH",
"84 1484 LINE SMOOTH",
"50 1484 OFFCURVE",
"34 1464 OFFCURVE",
"34 1438 CURVE SMOOTH",
"34 1200 LINE SMOOTH"
);
}
);
};
layerId = "258ED206-D907-4350-8EBA-CBDDA1C16BF7";
paths = (
{
closed = 1;
nodes = (
"738 0 LINE",
"906 1104 LINE",
"1318 1104 LINE",
"1370 1446 LINE",
"164 1446 LINE",
"112 1104 LINE",
"518 1104 LINE",
"352 0 LINE"
);
}
);
width = 1269;
},
{
anchors = (
{
name = bottom;
position = "{505, 4}";
},
{
name = top;
position = "{707, 1446}";
}
);
background = {
anchors = (
{
name = bottom;
position = "{623, 0}";
},
{
name = top;
position = "{623, 1484}";
}
);
paths = (
{
closed = 1;
nodes = (
"71 1406 OFFCURVE",
"75 1404 OFFCURVE",
"87 1404 CURVE SMOOTH",
"555 1404 LINE SMOOTH",
"571 1404 OFFCURVE",
"575 1402 OFFCURVE",
"575 1386 CURVE SMOOTH",
"575 20 LINE SMOOTH",
"575 4 OFFCURVE",
"579 0 OFFCURVE",
"595 0 CURVE SMOOTH",
"649 0 LINE SMOOTH",
"663 0 OFFCURVE",
"667 4 OFFCURVE",
"667 20 CURVE SMOOTH",
"667 1386 LINE SMOOTH",
"667 1402 OFFCURVE",
"671 1404 OFFCURVE",
"687 1404 CURVE SMOOTH",
"1113 1404 LINE SMOOTH",
"1125 1404 OFFCURVE",
"1129 1406 OFFCURVE",
"1129 1418 CURVE SMOOTH",
"1129 1470 LINE SMOOTH",
"1129 1480 OFFCURVE",
"1125 1484 OFFCURVE",
"1115 1484 CURVE SMOOTH",
"85 1484 LINE SMOOTH",
"75 1484 OFFCURVE",
"71 1480 OFFCURVE",
"71 1470 CURVE SMOOTH",
"71 1418 LINE SMOOTH"
);
}
);
};
layerId = "91AB5BCA-6A50-42DA-B2F7-8181BF189245";
paths = (
{
closed = 1;
nodes = (
"537 0 LINE",
"729 1366 LINE",
"1149 1366 LINE",
"1159 1446 LINE",
"211 1446 LINE",
"201 1366 LINE",
"657 1366 LINE",
"465 0 LINE"
);
}
);
width = 1110;
}
);
leftKerningGroup = T;
leftMetricsKey = X;
rightKerningGroup = T;
rightMetricsKey = X;
unicode = 0054;
},
{
glyphname = Tbar;
lastChange = "2019-05-07 23:00:56 +0000";
layers = (
{
background = {
components = (
{
name = T;
transform = "{1, 0, 0, 1, -22, 0}";
}
);
paths = (
{
closed = 1;
nodes = (
"1064 828 OFFCURVE",
"1050 844 OFFCURVE",
"1028 844 CURVE SMOOTH",
"226 844 LINE SMOOTH",
"202 844 OFFCURVE",
"188 828 OFFCURVE",
"188 798 CURVE SMOOTH",
"188 612 LINE SMOOTH",
"188 578 OFFCURVE",
"200 562 OFFCURVE",
"240 562 CURVE SMOOTH",
"998 562 LINE SMOOTH",
"1044 562 OFFCURVE",
"1064 578 OFFCURVE",
"1064 618 CURVE SMOOTH",
"1064 804 LINE SMOOTH"
);
}
);
};
components = (
{
name = T;
}
);
layerId = "258ED206-D907-4350-8EBA-CBDDA1C16BF7";
paths = (
{
closed = 1;
nodes = (
"1052 548 LINE",
"1092 822 LINE",
"238 822 LINE",
"198 548 LINE"
);
}
);
width = 1269;
},
{
background = {
components = (
{
name = T;
transform = "{1, 0, 0, 1, 4, 0}";
}
);
guideLines = (
{
angle = 90;
position = "{179, 188}";
showMeasurement = 1;
}
);
paths = (
{
closed = 1;
nodes = (
"1016 798 OFFCURVE",
"1012 804 OFFCURVE",
"1002 804 CURVE SMOOTH",
"298 804 LINE SMOOTH",
"288 804 OFFCURVE",
"284 798 OFFCURVE",
"284 786 CURVE SMOOTH",
"284 740 LINE SMOOTH",
"284 726 OFFCURVE",
"288 720 OFFCURVE",
"304 720 CURVE SMOOTH",
"990 720 LINE SMOOTH",
"1008 720 OFFCURVE",
"1016 726 OFFCURVE",
"1016 742 CURVE SMOOTH",
"1016 788 LINE SMOOTH"
);
}
);
};
components = (
{
name = T;
}
);
guideLines = (
{
angle = 90;
position = "{233, 175}";
showMeasurement = 1;
}
);
layerId = "91AB5BCA-6A50-42DA-B2F7-8181BF189245";
paths = (
{
closed = 1;
nodes = (
"928 702 LINE",
"928 784 LINE",
"214 784 LINE",
"214 702 LINE"
);
}
);
width = 1110;
}
);
leftKerningGroup = T;
leftMetricsKey = T;
rightKerningGroup = T;
rightMetricsKey = T;
unicode = 0166;
},
{
glyphname = U;
lastChange = "2019-05-07 06:03:45 +0000";
layers = (
{
anchors = (
{
name = bottom;
position = "{669, 0}";
},
{
name = horn;
position = "{1389, 1094}";
},
{
name = ogonek;
position = "{831, 24}";
},
{
name = top;
position = "{889, 1446}";
}
);
background = {
anchors = (
{
name = ogonek;
position = "{971, 20}";
},
{
name = top;
position = "{781, 1484}";
}
);
paths = (
{
closed = 1;
nodes = (
"1387 1442 LINE SMOOTH",
"1387 1468 OFFCURVE",
"1375 1484 OFFCURVE",
"1351 1484 CURVE SMOOTH",
"1051 1484 LINE SMOOTH",
"1027 1484 OFFCURVE",
"1013 1468 OFFCURVE",
"1013 1438 CURVE SMOOTH",
"1013 584 LINE SMOOTH",
"1013 362 OFFCURVE",
"905 298 OFFCURVE",
"781 298 CURVE SMOOTH",
"645 298 OFFCURVE",
"561 374 OFFCURVE",
"561 578 CURVE SMOOTH",
"561 1442 LINE SMOOTH",
"561 1468 OFFCURVE",
"549 1484 OFFCURVE",
"525 1484 CURVE SMOOTH",
"145 1484 LINE SMOOTH",
"123 1484 OFFCURVE",
"107 1468 OFFCURVE",
"107 1438 CURVE SMOOTH",
"107 626 LINE SMOOTH",
"107 208 OFFCURVE",
"269 -20 OFFCURVE",
"747 -20 CURVE SMOOTH",
"1129 -20 OFFCURVE",
"1387 124 OFFCURVE",
"1387 586 CURVE SMOOTH"
);
}
);
};
layerId = "258ED206-D907-4350-8EBA-CBDDA1C16BF7";
paths = (
{
closed = 1;
nodes = (
"1129 -20 OFFCURVE",
"1325 230 OFFCURVE",
"1381 598 CURVE SMOOTH",
"1509 1446 LINE",
"1117 1446 LINE",
"987 582 LINE SMOOTH",
"957 382 OFFCURVE",
"835 306 OFFCURVE",
"717 306 CURVE SMOOTH",
"595 306 OFFCURVE",
"499 382 OFFCURVE",
"529 582 CURVE SMOOTH",
"661 1446 LINE",
"269 1446 LINE",
"141 598 LINE SMOOTH",
"85 230 OFFCURVE",
"203 -20 OFFCURVE",
"667 -20 CURVE SMOOTH"
);
}
);
width = 1478;
},
{
anchors = (
{
name = bottom;
position = "{585, 4}";
},
{
name = horn;
position = "{1171, 1212}";
},
{
name = ogonek;
position = "{719, 18}";
},
{
name = top;
position = "{793, 1446}";
}
);
background = {
anchors = (
{
name = ogonek;
position = "{849, 18}";
},
{
name = top;
position = "{713, 1484}";
}
);
paths = (
{
closed = 1;
nodes = (
"1199 1466 LINE SMOOTH",
"1199 1478 OFFCURVE",
"1195 1484 OFFCURVE",
"1183 1484 CURVE SMOOTH",
"1135 1484 LINE SMOOTH",
"1123 1484 OFFCURVE",
"1119 1478 OFFCURVE",
"1119 1466 CURVE SMOOTH",
"1119 458 LINE SMOOTH",
"1119 194 OFFCURVE",
"985 64 OFFCURVE",
"709 64 CURVE SMOOTH",
"437 64 OFFCURVE",
"303 192 OFFCURVE",
"303 452 CURVE SMOOTH",
"303 1464 LINE SMOOTH",
"303 1480 OFFCURVE",
"299 1484 OFFCURVE",
"283 1484 CURVE SMOOTH",
"227 1484 LINE SMOOTH",
"215 1484 OFFCURVE",
"211 1478 OFFCURVE",
"211 1462 CURVE SMOOTH",
"211 490 LINE SMOOTH",
"211 142 OFFCURVE",
"369 -20 OFFCURVE",
"705 -20 CURVE SMOOTH",
"1037 -20 OFFCURVE",
"1199 138 OFFCURVE",
"1199 460 CURVE SMOOTH"
);
}
);
};
layerId = "91AB5BCA-6A50-42DA-B2F7-8181BF189245";
paths = (
{
closed = 1;
nodes = (
"881 -20 OFFCURVE",
"1047 134 OFFCURVE",
"1091 448 CURVE SMOOTH",
"1231 1446 LINE",
"1159 1446 LINE",
"1019 444 LINE SMOOTH",
"983 188 OFFCURVE",
"841 56 OFFCURVE",
"595 56 CURVE SMOOTH",
"351 56 OFFCURVE",
"253 192 OFFCURVE",
"289 444 CURVE SMOOTH",
"429 1446 LINE",
"351 1446 LINE",
"215 478 LINE SMOOTH",
"167 138 OFFCURVE",
"283 -20 OFFCURVE",
"585 -20 CURVE SMOOTH"
);
}
);
width = 1291;
}
);
leftKerningGroup = U;
leftMetricsKey = H;
rightKerningGroup = U;
rightMetricsKey = "=H-30";
unicode = 0055;
},
{
glyphname = V;
lastChange = "2019-05-07 06:03:45 +0000";
layers = (
{
background = {
paths = (
{
closed = 1;
nodes = (
"1117 1484 LINE SMOOTH",
"1093 1484 OFFCURVE",
"1071 1468 OFFCURVE",
"1065 1442 CURVE SMOOTH",
"815 566 LINE SMOOTH",
"809 546 OFFCURVE",
"801 546 OFFCURVE",
"795 564 CURVE SMOOTH",
"527 1442 LINE SMOOTH",
"519 1468 OFFCURVE",
"501 1484 OFFCURVE",
"477 1484 CURVE SMOOTH",
"91 1484 LINE SMOOTH",
"59 1484 OFFCURVE",
"41 1456 OFFCURVE",
"53 1426 CURVE SMOOTH",
"517 50 LINE SMOOTH",
"527 16 OFFCURVE",
"551 0 OFFCURVE",
"591 0 CURVE SMOOTH",
"915 0 LINE SMOOTH",
"955 0 OFFCURVE",
"979 16 OFFCURVE",
"989 50 CURVE SMOOTH",
"1453 1426 LINE SMOOTH",
"1463 1456 OFFCURVE",
"1447 1484 OFFCURVE",
"1415 1484 CURVE SMOOTH"
);
}
);
};
guideLines = (
{
angle = -108.62;
position = "{383, 211}";
}
);
layerId = "258ED206-D907-4350-8EBA-CBDDA1C16BF7";
paths = (
{
closed = 1;
nodes = (
"851 0 LINE",
"1557 1446 LINE",
"1191 1446 LINE",
"709 456 LINE",
"525 1446 LINE",
"161 1446 LINE",
"427 0 LINE"
);
}
);
width = 1456;
},
{
background = {
paths = (
{
closed = 1;
nodes = (
"1177 1484 LINE SMOOTH",
"1165 1484 OFFCURVE",
"1159 1480 OFFCURVE",
"1155 1470 CURVE SMOOTH",
"667 130 LINE SMOOTH",
"657 102 OFFCURVE",
"645 102 OFFCURVE",
"635 128 CURVE SMOOTH",
"161 1468 LINE SMOOTH",
"157 1480 OFFCURVE",
"151 1484 OFFCURVE",
"135 1484 CURVE SMOOTH",
"89 1484 LINE SMOOTH",
"75 1484 OFFCURVE",
"69 1476 OFFCURVE",
"73 1464 CURVE SMOOTH",
"583 20 LINE SMOOTH",
"587 6 OFFCURVE",
"599 0 OFFCURVE",
"621 0 CURVE SMOOTH",
"685 0 LINE SMOOTH",
"703 0 OFFCURVE",
"711 6 OFFCURVE",
"717 22 CURVE SMOOTH",
"1241 1466 LINE SMOOTH",
"1245 1476 OFFCURVE",
"1239 1484 OFFCURVE",
"1227 1484 CURVE SMOOTH"
);
}
);
};
layerId = "91AB5BCA-6A50-42DA-B2F7-8181BF189245";
paths = (
{
closed = 1;
nodes = (
"585 0 LINE",
"1271 1446 LINE",
"1193 1446 LINE",
"543 82 LINE",
"289 1446 LINE",
"211 1446 LINE",
"479 0 LINE"
);
}
);
width = 1220;
}
);
leftKerningGroup = V;
leftMetricsKey = X;
rightKerningGroup = V;
rightMetricsKey = X;
unicode = 0056;
},
{
glyphname = W;
lastChange = "2019-05-07 06:03:45 +0000";
layers = (
{
anchors = (
{
name = top;
position = "{1107, 1446}";
}
);
background = {
anchors = (
{
name = top;
position = "{1053, 1484}";
}
);
paths = (
{
closed = 1;
nodes = (
"1813 1484 LINE SMOOTH",
"1771 1484 OFFCURVE",
"1755 1468 OFFCURVE",
"1749 1442 CURVE SMOOTH",
"1545 678 LINE SMOOTH",
"1541 662 OFFCURVE",
"1527 666 OFFCURVE",
"1523 682 CURVE SMOOTH",
"1303 1442 LINE SMOOTH",
"1295 1468 OFFCURVE",
"1281 1484 OFFCURVE",
"1239 1484 CURVE SMOOTH",
"959 1484 LINE SMOOTH",
"917 1484 OFFCURVE",
"901 1468 OFFCURVE",
"895 1442 CURVE SMOOTH",
"685 692 LINE SMOOTH",
"679 670 OFFCURVE",
"669 670 OFFCURVE",
"661 700 CURVE SMOOTH",
"449 1442 LINE SMOOTH",
"441 1468 OFFCURVE",
"427 1484 OFFCURVE",
"385 1484 CURVE SMOOTH",
"55 1484 LINE SMOOTH",
"3 1484 OFFCURVE",
"-17 1450 OFFCURVE",
"-5 1404 CURVE SMOOTH",
"403 50 LINE SMOOTH",
"415 16 OFFCURVE",
"435 0 OFFCURVE",
"475 0 CURVE SMOOTH",
"761 0 LINE SMOOTH",
"803 0 OFFCURVE",
"823 16 OFFCURVE",
"833 50 CURVE SMOOTH",
"1039 750 LINE SMOOTH",
"1053 790 OFFCURVE",
"1063 786 OFFCURVE",
"1071 754 CURVE SMOOTH",
"1279 50 LINE SMOOTH",
"1289 16 OFFCURVE",
"1311 0 OFFCURVE",
"1351 0 CURVE SMOOTH",
"1627 0 LINE SMOOTH",
"1667 0 OFFCURVE",
"1687 16 OFFCURVE",
"1699 50 CURVE SMOOTH",
"2105 1404 LINE SMOOTH",
"2117 1450 OFFCURVE",
"2097 1484 OFFCURVE",
"2045 1484 CURVE SMOOTH"
);
}
);
};
guideLines = (
{
angle = -73.94;
position = "{226, 670}";
},
{
angle = 74.3834;
position = "{429, 670}";
}
);
layerId = "258ED206-D907-4350-8EBA-CBDDA1C16BF7";
paths = (
{
closed = 1;
nodes = (
"659 0 LINE",
"1007 786 LINE",
"1115 0 LINE",
"1403 0 LINE",
"2053 1446 LINE",
"1679 1446 LINE",
"1347 670 LINE",
"1241 1446 LINE",
"971 1446 LINE",
"639 670 LINE",
"535 1446 LINE",
"161 1446 LINE",
"375 0 LINE"
);
}
);
width = 1952;
},
{
anchors = (
{
name = top;
position = "{1023, 1446}";
}
);
background = {
anchors = (
{
name = top;
position = "{959, 1484}";
}
);
guideLines = (
{
position = "{24, 125}";
showMeasurement = 1;
}
);
paths = (
{
closed = 1;
nodes = (
"1803 1484 LINE SMOOTH",
"1791 1484 OFFCURVE",
"1781 1480 OFFCURVE",
"1779 1470 CURVE SMOOTH",
"1401 144 LINE SMOOTH",
"1393 116 OFFCURVE",
"1385 116 OFFCURVE",
"1377 142 CURVE SMOOTH",
"1007 1468 LINE SMOOTH",
"1003 1480 OFFCURVE",
"999 1484 OFFCURVE",
"983 1484 CURVE SMOOTH",
"933 1484 LINE SMOOTH",
"915 1484 OFFCURVE",
"909 1476 OFFCURVE",
"907 1470 CURVE SMOOTH",
"529 144 LINE SMOOTH",
"521 116 OFFCURVE",
"513 116 OFFCURVE",
"505 142 CURVE SMOOTH",
"135 1468 LINE SMOOTH",
"131 1480 OFFCURVE",
"127 1484 OFFCURVE",
"111 1484 CURVE SMOOTH",
"61 1484 LINE SMOOTH",
"47 1484 OFFCURVE",
"41 1476 OFFCURVE",
"45 1464 CURVE SMOOTH",
"449 20 LINE SMOOTH",
"453 6 OFFCURVE",
"465 0 OFFCURVE",
"485 0 CURVE SMOOTH",
"549 0 LINE SMOOTH",
"569 0 OFFCURVE",
"577 6 OFFCURVE",
"581 22 CURVE SMOOTH",
"951 1316 LINE SMOOTH",
"953 1324 OFFCURVE",
"957 1324 OFFCURVE",
"959 1316 CURVE SMOOTH",
"1321 20 LINE SMOOTH",
"1325 6 OFFCURVE",
"1337 0 OFFCURVE",
"1357 0 CURVE SMOOTH",
"1421 0 LINE SMOOTH",
"1441 0 OFFCURVE",
"1449 6 OFFCURVE",
"1453 22 CURVE SMOOTH",
"1867 1466 LINE SMOOTH",
"1869 1476 OFFCURVE",
"1865 1484 OFFCURVE",
"1853 1484 CURVE SMOOTH"
);
}
);
};
guideLines = (
{
position = "{97, 116}";
showMeasurement = 1;
}
);
layerId = "91AB5BCA-6A50-42DA-B2F7-8181BF189245";
paths = (
{
closed = 1;
nodes = (
"477 0 LINE",
"999 1296 LINE",
"1151 0 LINE",
"1251 0 LINE",
"1837 1446 LINE",
"1759 1446 LINE",
"1217 98 LINE",
"1057 1446 LINE",
"985 1446 LINE",
"443 98 LINE",
"293 1446 LINE",
"211 1446 LINE",
"381 0 LINE"
);
}
);
width = 1786;
}
);
leftKerningGroup = W;
leftMetricsKey = X;
rightKerningGroup = W;
rightMetricsKey = X;
unicode = 0057;
},
{
glyphname = X;
lastChange = "2019-05-01 05:36:38 +0000";
layers = (
{
background = {
paths = (
{
closed = 1;
nodes = (
"1005 806 LINE",
"1449 1484 LINE",
"1015 1484 LINE",
"787 1082 LINE",
"559 1484 LINE",
"49 1484 LINE",
"521 748 LINE",
"103 102 LINE SMOOTH",
"51 22 OFFCURVE",
"73 0 OFFCURVE",
"129 0 CURVE SMOOTH",
"477 0 LINE",
"743 466 LINE",
"1015 0 LINE",
"1435 0 LINE SMOOTH",
"1491 0 OFFCURVE",
"1513 24 OFFCURVE",
"1463 102 CURVE SMOOTH"
);
}
);
};
layerId = "258ED206-D907-4350-8EBA-CBDDA1C16BF7";
paths = (
{
closed = 1;
nodes = (
"369 0 LINE",
"695 454 LINE",
"891 0 LINE",
"1373 0 LINE",
"987 786 LINE",
"1515 1446 LINE",
"1111 1446 LINE",
"831 1054 LINE",
"667 1446 LINE",
"189 1446 LINE",
"537 730 LINE",
"-43 0 LINE"
);
}
);
width = 1476;
},
{
background = {
guideLines = (
{
angle = 90;
position = "{56, 437}";
},
{
angle = 90;
position = "{567, 372}";
},
{
position = "{22, 716}";
showMeasurement = 1;
},
{
position = "{16, 32}";
showMeasurement = 1;
},
{
position = "{86, 454}";
showMeasurement = 1;
},
{
position = "{84, 290}";
showMeasurement = 1;
},
{
angle = 236.602;
position = "{299, 374}";
},
{
angle = 123.344;
position = "{356, 374}";
},
{
angle = 56.5817;
position = "{344, 370}";
},
{
angle = 123.4;
position = "{309, 370}";
}
);
paths = (
{
closed = 1;
nodes = (
"697 748 LINE SMOOTH",
"689 760 OFFCURVE",
"691 768 OFFCURVE",
"699 780 CURVE SMOOTH",
"1167 1472 LINE SMOOTH",
"1171 1478 OFFCURVE",
"1171 1484 OFFCURVE",
"1163 1484 CURVE SMOOTH",
"1081 1484 LINE SMOOTH",
"1073 1484 OFFCURVE",
"1069 1482 OFFCURVE",
"1065 1476 CURVE SMOOTH",
"651 862 LINE SMOOTH",
"637 842 OFFCURVE",
"629 844 OFFCURVE",
"617 860 CURVE SMOOTH",
"203 1476 LINE SMOOTH",
"199 1482 OFFCURVE",
"197 1484 OFFCURVE",
"185 1484 CURVE SMOOTH",
"107 1484 LINE SMOOTH",
"99 1484 OFFCURVE",
"97 1474 OFFCURVE",
"101 1468 CURVE SMOOTH",
"565 782 LINE SMOOTH",
"575 766 OFFCURVE",
"577 754 OFFCURVE",
"567 740 CURVE SMOOTH",
"83 20 LINE SMOOTH",
"73 4 OFFCURVE",
"77 0 OFFCURVE",
"89 0 CURVE SMOOTH",
"161 0 LINE SMOOTH",
"167 0 OFFCURVE",
"173 2 OFFCURVE",
"177 8 CURVE SMOOTH",
"611 648 LINE SMOOTH",
"631 678 OFFCURVE",
"639 676 OFFCURVE",
"653 654 CURVE SMOOTH",
"1093 8 LINE SMOOTH",
"1097 2 OFFCURVE",
"1099 0 OFFCURVE",
"1107 0 CURVE SMOOTH",
"1179 0 LINE SMOOTH",
"1191 0 OFFCURVE",
"1199 4 OFFCURVE",
"1187 20 CURVE SMOOTH"
);
}
);
};
guideLines = (
{
angle = 90;
position = "{127, 405}";
},
{
angle = 90;
position = "{577, 345}";
},
{
position = "{97, 664}";
showMeasurement = 1;
},
{
position = "{92, 29}";
showMeasurement = 1;
},
{
position = "{153, 421}";
showMeasurement = 1;
},
{
position = "{151, 269}";
showMeasurement = 1;
},
{
angle = 236.602;
position = "{341, 347}";
},
{
angle = 123.344;
position = "{390, 347}";
},
{
angle = 56.5817;
position = "{381, 343}";
},
{
angle = 123.4;
position = "{349, 343}";
}
);
layerId = "91AB5BCA-6A50-42DA-B2F7-8181BF189245";
paths = (
{
closed = 1;
nodes = (
"99 0 LINE",
"609 664 LINE",
"931 0 LINE",
"1023 0 LINE",
"665 742 LINE",
"1203 1446 LINE",
"1111 1446 LINE",
"629 816 LINE",
"327 1446 LINE",
"231 1446 LINE",
"571 742 LINE",
"7 0 LINE"
);
}
);
width = 1176;
}
);
leftKerningGroup = X;
rightKerningGroup = X;
unicode = 0058;
},
{
glyphname = Y;
lastChange = "2019-05-07 06:03:45 +0000";
layers = (
{
anchors = (
{
name = bottom;
position = "{643, 0}";
},
{
name = top;
position = "{845, 1446}";
}
);
background = {
anchors = (
{
name = top;
position = "{809, 1484}";
}
);
paths = (
{
closed = 1;
nodes = (
"1155 1484 LINE SMOOTH",
"1117 1484 OFFCURVE",
"1103 1476 OFFCURVE",
"1087 1442 CURVE SMOOTH",
"845 996 LINE SMOOTH",
"831 972 OFFCURVE",
"823 974 OFFCURVE",
"811 998 CURVE SMOOTH",
"565 1442 LINE SMOOTH",
"547 1474 OFFCURVE",
"537 1484 OFFCURVE",
"497 1484 CURVE SMOOTH",
"95 1484 LINE SMOOTH",
"53 1484 OFFCURVE",
"39 1460 OFFCURVE",
"59 1428 CURVE SMOOTH",
"527 664 LINE SMOOTH",
"545 634 OFFCURVE",
"555 618 OFFCURVE",
"555 576 CURVE SMOOTH",
"555 50 LINE SMOOTH",
"555 16 OFFCURVE",
"567 0 OFFCURVE",
"607 0 CURVE SMOOTH",
"943 0 LINE SMOOTH",
"989 0 OFFCURVE",
"1009 16 OFFCURVE",
"1009 58 CURVE SMOOTH",
"1009 550 LINE SMOOTH",
"1009 634 OFFCURVE",
"1011 654 OFFCURVE",
"1029 682 CURVE SMOOTH",
"1497 1438 LINE SMOOTH",
"1513 1464 OFFCURVE",
"1503 1484 OFFCURVE",
"1469 1484 CURVE SMOOTH"
);
}
);
};
guideLines = (
{
angle = 58.823;
position = "{521, 670}";
}
);
layerId = "258ED206-D907-4350-8EBA-CBDDA1C16BF7";
paths = (
{
closed = 1;
nodes = (
"835 0 LINE",
"927 602 LINE",
"1567 1446 LINE",
"1145 1446 LINE",
"785 932 LINE",
"579 1446 LINE",
"161 1446 LINE",
"539 602 LINE",
"449 0 LINE"
);
}
);
width = 1466;
},
{
anchors = (
{
name = bottom;
position = "{489, 0}";
},
{
name = top;
position = "{689, 1450}";
}
);
background = {
anchors = (
{
name = top;
position = "{595, 1484}";
}
);
paths = (
{
closed = 1;
nodes = (
"1079 1484 LINE SMOOTH",
"1061 1484 OFFCURVE",
"1057 1482 OFFCURVE",
"1047 1466 CURVE SMOOTH",
"629 748 LINE SMOOTH",
"613 722 OFFCURVE",
"599 720 OFFCURVE",
"581 752 CURVE SMOOTH",
"161 1466 LINE SMOOTH",
"153 1480 OFFCURVE",
"147 1484 OFFCURVE",
"129 1484 CURVE SMOOTH",
"83 1484 LINE SMOOTH",
"63 1484 OFFCURVE",
"59 1474 OFFCURVE",
"67 1460 CURVE SMOOTH",
"555 630 LINE SMOOTH",
"563 616 OFFCURVE",
"565 610 OFFCURVE",
"565 590 CURVE SMOOTH",
"565 22 LINE SMOOTH",
"565 8 OFFCURVE",
"571 0 OFFCURVE",
"589 0 CURVE SMOOTH",
"627 0 LINE SMOOTH",
"649 0 OFFCURVE",
"657 8 OFFCURVE",
"657 26 CURVE SMOOTH",
"657 612 LINE SMOOTH",
"657 632 OFFCURVE",
"657 640 OFFCURVE",
"665 652 CURVE SMOOTH",
"1143 1462 LINE SMOOTH",
"1151 1474 OFFCURVE",
"1145 1484 OFFCURVE",
"1131 1484 CURVE SMOOTH"
);
}
);
};
guideLines = (
{
angle = 239.8907;
position = "{283, 335}";
},
{
angle = -59.5603;
position = "{248, 328}";
}
);
layerId = "91AB5BCA-6A50-42DA-B2F7-8181BF189245";
paths = (
{
closed = 1;
nodes = (
"523 0 LINE",
"611 622 LINE",
"1165 1446 LINE",
"1085 1446 LINE",
"587 702 LINE",
"291 1446 LINE",
"211 1446 LINE",
"539 624 LINE",
"453 0 LINE"
);
}
);
width = 1114;
}
);
leftKerningGroup = Y;
leftMetricsKey = X;
rightKerningGroup = Y;
rightMetricsKey = X;
unicode = 0059;
},
{
glyphname = Z;
lastChange = "2019-05-07 06:03:45 +0000";
layers = (
{
anchors = (
{
name = bottom;
position = "{614, 0}";
},
{
name = top;
position = "{880, 1446}";
}
);
background = {
anchors = (
{
name = bottom;
position = "{720, 0}";
},
{
name = top;
position = "{768, 1484}";
}
);
paths = (
{
closed = 1;
nodes = (
"1380 0 LINE",
"1380 332 LINE",
"698 332 LINE",
"1392 1308 LINE",
"1392 1484 LINE",
"144 1484 LINE",
"144 1154 LINE",
"758 1154 LINE",
"78 182 LINE",
"78 0 LINE"
);
}
);
};
layerId = "258ED206-D907-4350-8EBA-CBDDA1C16BF7";
paths = (
{
closed = 1;
nodes = (
"1214 0 LINE",
"1264 324 LINE",
"584 324 LINE",
"1420 1276 LINE",
"1446 1446 LINE",
"276 1446 LINE",
"226 1126 LINE",
"840 1126 LINE",
"20 178 LINE",
"-8 0 LINE"
);
}
);
width = 1380;
},
{
anchors = (
{
name = bottom;
position = "{497, 0}";
},
{
name = top;
position = "{687, 1446}";
}
);
background = {
anchors = (
{
name = bottom;
position = "{619, 0}";
},
{
name = top;
position = "{605, 1484}";
}
);
paths = (
{
closed = 1;
nodes = (
"1083 0 LINE",
"1083 80 LINE",
"215 80 LINE",
"1083 1430 LINE",
"1083 1484 LINE",
"125 1484 LINE",
"125 1404 LINE",
"967 1404 LINE",
"105 56 LINE",
"105 0 LINE"
);
}
);
};
guideLines = (
{
angle = 237.1304;
position = "{457, 659}";
}
);
layerId = "91AB5BCA-6A50-42DA-B2F7-8181BF189245";
paths = (
{
closed = 1;
nodes = (
"913 0 LINE",
"925 78 LINE",
"139 78 LINE",
"1109 1386 LINE",
"1117 1446 LINE",
"257 1446 LINE",
"247 1368 LINE",
"1011 1368 LINE",
"47 62 LINE",
"37 0 LINE"
);
}
);
width = 1097;
}
);
leftKerningGroup = Z;
leftMetricsKey = "=H/2";
rightKerningGroup = Z;
rightMetricsKey = "=H/2";
unicode = 005A;
},
{
glyphname = a;
lastChange = "2019-05-07 23:01:45 +0000";
layers = (
{
anchors = (
{
name = bottom;
position = "{503, 0}";
},
{
name = ogonek;
position = "{917, 20}";
},
{
name = top;
position = "{661, 1034}";
}
);
background = {
anchors = (
{
name = ogonek;
position = "{983, 20}";
},
{
name = top;
position = "{559, 1060}";
}
);
guideLines = (
{
angle = 90;
position = "{330, 102}";
}
);
paths = (
{
closed = 1;
nodes = (
"645 112 OFFCURVE",
"661 110 OFFCURVE",
"665 84 CURVE SMOOTH",
"667 70 LINE SMOOTH",
"673 32 OFFCURVE",
"683 0 OFFCURVE",
"719 0 CURVE SMOOTH",
"993 0 LINE SMOOTH",
"1031 0 OFFCURVE",
"1039 14 OFFCURVE",
"1039 54 CURVE SMOOTH",
"1039 750 LINE SMOOTH",
"1039 946 OFFCURVE",
"929 1080 OFFCURVE",
"559 1080 CURVE SMOOTH",
"297 1080 OFFCURVE",
"115 1012 OFFCURVE",
"55 842 CURVE SMOOTH",
"37 792 OFFCURVE",
"49 782 OFFCURVE",
"69 778 CURVE SMOOTH",
"331 726 LINE SMOOTH",
"367 720 OFFCURVE",
"375 726 OFFCURVE",
"385 748 CURVE SMOOTH",
"419 822 OFFCURVE",
"485 842 OFFCURVE",
"541 842 CURVE SMOOTH",
"621 842 OFFCURVE",
"659 800 OFFCURVE",
"659 726 CURVE SMOOTH",
"659 692 LINE SMOOTH",
"659 668 OFFCURVE",
"639 664 OFFCURVE",
"629 664 CURVE SMOOTH",
"615 664 LINE SMOOTH",
"237 664 OFFCURVE",
"1 506 OFFCURVE",
"1 272 CURVE SMOOTH",
"1 106 OFFCURVE",
"121 -20 OFFCURVE",
"321 -20 CURVE SMOOTH",
"445 -20 OFFCURVE",
"539 24 OFFCURVE",
"611 84 CURVE SMOOTH"
);
},
{
closed = 1;
nodes = (
"659 342 LINE SMOOTH",
"659 312 OFFCURVE",
"637 290 OFFCURVE",
"613 270 CURVE SMOOTH",
"591 252 OFFCURVE",
"555 232 OFFCURVE",
"503 232 CURVE SMOOTH",
"431 232 OFFCURVE",
"389 270 OFFCURVE",
"389 326 CURVE SMOOTH",
"389 438 OFFCURVE",
"557 484 OFFCURVE",
"621 484 CURVE SMOOTH",
"629 484 LINE SMOOTH",
"653 484 OFFCURVE",
"659 472 OFFCURVE",
"659 448 CURVE SMOOTH"
);
}
);
};
guideLines = (
{
angle = 270;
position = "{327, 93}";
},
{
angle = 270;
position = "{292, 516}";
}
);
layerId = "258ED206-D907-4350-8EBA-CBDDA1C16BF7";
paths = (
{
closed = 1;
nodes = (
"465 -20 OFFCURVE",
"557 24 OFFCURVE",
"641 164 CURVE",
"649 0 LINE",
"969 0 LINE",
"1081 732 LINE SMOOTH",
"1109 922 OFFCURVE",
"1021 1054 OFFCURVE",
"665 1054 CURVE SMOOTH",
"399 1054 OFFCURVE",
"171 956 OFFCURVE",
"121 712 CURVE",
"435 712 LINE",
"477 782 OFFCURVE",
"555 800 OFFCURVE",
"609 802 CURVE SMOOTH",
"685 804 OFFCURVE",
"717 774 OFFCURVE",
"707 708 CURVE SMOOTH",
"701 664 LINE",
"621 664 LINE SMOOTH",
"247 664 OFFCURVE",
"55 534 OFFCURVE",
"21 310 CURVE SMOOTH",
"-11 96 OFFCURVE",
"131 -20 OFFCURVE",
"327 -20 CURVE SMOOTH"
);
},
{
closed = 1;
nodes = (
"433 226 OFFCURVE",
"379 272 OFFCURVE",
"391 350 CURVE SMOOTH",
"405 452 OFFCURVE",
"549 480 OFFCURVE",
"611 480 CURVE SMOOTH",
"673 480 LINE",
"653 350 LINE",
"641 284 OFFCURVE",
"575 226 OFFCURVE",
"499 226 CURVE SMOOTH"
);
}
);
width = 1161;
},
{
anchors = (
{
name = bottom;
position = "{450, 0}";
},
{
name = ogonek;
position = "{784, 28}";
},
{
name = top;
position = "{594, 1034}";
}
);
background = {
anchors = (
{
name = ogonek;
position = "{910, 28}";
},
{
name = top;
position = "{540, 1060}";
}
);
paths = (
{
closed = 1;
nodes = (
"834 156 OFFCURVE",
"842 154 OFFCURVE",
"844 140 CURVE SMOOTH",
"848 18 LINE SMOOTH",
"848 4 OFFCURVE",
"854 0 OFFCURVE",
"866 0 CURVE SMOOTH",
"902 0 LINE SMOOTH",
"914 0 OFFCURVE",
"922 4 OFFCURVE",
"922 20 CURVE SMOOTH",
"922 734 LINE SMOOTH",
"922 950 OFFCURVE",
"774 1080 OFFCURVE",
"548 1080 CURVE SMOOTH",
"358 1080 OFFCURVE",
"224 986 OFFCURVE",
"140 862 CURVE SMOOTH",
"132 852 OFFCURVE",
"134 846 OFFCURVE",
"140 842 CURVE SMOOTH",
"188 812 LINE SMOOTH",
"196 806 OFFCURVE",
"200 810 OFFCURVE",
"208 820 CURVE SMOOTH",
"298 940 OFFCURVE",
"406 1004 OFFCURVE",
"544 1004 CURVE SMOOTH",
"724 1004 OFFCURVE",
"842 896 OFFCURVE",
"842 726 CURVE SMOOTH",
"842 664 LINE SMOOTH",
"842 646 OFFCURVE",
"830 636 OFFCURVE",
"808 634 CURVE SMOOTH",
"598 616 LINE SMOOTH",
"270 588 OFFCURVE",
"104 472 OFFCURVE",
"104 270 CURVE SMOOTH",
"104 90 OFFCURVE",
"234 -20 OFFCURVE",
"444 -20 CURVE SMOOTH",
"592 -20 OFFCURVE",
"714 34 OFFCURVE",
"824 144 CURVE SMOOTH"
);
},
{
closed = 1;
nodes = (
"842 342 LINE SMOOTH",
"842 282 OFFCURVE",
"802 214 OFFCURVE",
"728 154 CURVE SMOOTH",
"652 94 OFFCURVE",
"554 56 OFFCURVE",
"456 56 CURVE SMOOTH",
"294 56 OFFCURVE",
"188 138 OFFCURVE",
"188 276 CURVE SMOOTH",
"188 430 OFFCURVE",
"322 522 OFFCURVE",
"636 546 CURVE SMOOTH",
"814 560 LINE SMOOTH",
"832 562 OFFCURVE",
"842 554 OFFCURVE",
"842 532 CURVE SMOOTH"
);
}
);
};
guideLines = (
{
position = "{372, 208}";
showMeasurement = 1;
}
);
hints = (
{
horizontal = 1;
place = "{7018, 302}";
type = Stem;
}
);
layerId = "91AB5BCA-6A50-42DA-B2F7-8181BF189245";
paths = (
{
closed = 1;
nodes = (
"500 -20 OFFCURVE",
"642 28 OFFCURVE",
"750 200 CURVE",
"726 0 LINE",
"792 0 LINE",
"892 716 LINE SMOOTH",
"922 926 OFFCURVE",
"798 1054 OFFCURVE",
"596 1054 CURVE SMOOTH",
"374 1054 OFFCURVE",
"232 904 OFFCURVE",
"202 758 CURVE",
"280 758 LINE",
"320 900 OFFCURVE",
"444 978 OFFCURVE",
"582 978 CURVE SMOOTH",
"744 978 OFFCURVE",
"844 880 OFFCURVE",
"820 714 CURVE SMOOTH",
"806 614 LINE",
"586 606 LINE SMOOTH",
"268 594 OFFCURVE",
"126 496 OFFCURVE",
"94 264 CURVE SMOOTH",
"70 88 OFFCURVE",
"172 -20 OFFCURVE",
"360 -20 CURVE SMOOTH"
);
},
{
closed = 1;
nodes = (
"236 54 OFFCURVE",
"152 134 OFFCURVE",
"170 270 CURVE SMOOTH",
"196 450 OFFCURVE",
"306 526 OFFCURVE",
"610 532 CURVE SMOOTH",
"794 536 LINE",
"766 334 LINE SMOOTH",
"746 194 OFFCURVE",
"540 54 OFFCURVE",
"382 54 CURVE SMOOTH"
);
}
);
width = 1035;
}
);
leftKerningGroup = o;
leftMetricsKey = "=|e";
rightKerningGroup = n;
unicode = 0061;
},
{
glyphname = ae;
lastChange = "2019-05-07 23:01:45 +0000";
layers = (
{
anchors = (
{
name = top;
position = "{980, 1034}";
}
);
background = {
anchors = (
{
name = top;
position = "{886, 1060}";
}
);
paths = (
{
closed = 1;
nodes = (
"1730 458 LINE SMOOTH",
"1764 460 OFFCURVE",
"1766 474 OFFCURVE",
"1766 508 CURVE SMOOTH",
"1766 870 OFFCURVE",
"1536 1080 OFFCURVE",
"1222 1080 CURVE SMOOTH",
"1118 1080 OFFCURVE",
"1018 1052 OFFCURVE",
"932 1000 CURVE",
"856 1050 OFFCURVE",
"738 1078 OFFCURVE",
"560 1080 CURVE SMOOTH",
"254 1080 OFFCURVE",
"140 998 OFFCURVE",
"64 842 CURVE SMOOTH",
"54 820 OFFCURVE",
"60 782 OFFCURVE",
"78 778 CURVE SMOOTH",
"340 726 LINE SMOOTH",
"376 720 OFFCURVE",
"384 722 OFFCURVE",
"394 748 CURVE",
"428 822 OFFCURVE",
"494 842 OFFCURVE",
"550 842 CURVE SMOOTH",
"630 842 OFFCURVE",
"668 800 OFFCURVE",
"668 726 CURVE SMOOTH",
"668 692 LINE SMOOTH",
"668 668 OFFCURVE",
"648 664 OFFCURVE",
"632 664 CURVE",
"586 662 LINE SMOOTH",
"202 644 OFFCURVE",
"10 500 OFFCURVE",
"10 286 CURVE SMOOTH",
"10 104 OFFCURVE",
"130 -20 OFFCURVE",
"356 -20 CURVE SMOOTH",
"540 -20 OFFCURVE",
"670 24 OFFCURVE",
"792 142 CURVE SMOOTH",
"800 150 OFFCURVE",
"806 150 OFFCURVE",
"814 142 CURVE SMOOTH",
"914 40 OFFCURVE",
"1062 -20 OFFCURVE",
"1230 -20 CURVE SMOOTH",
"1454 -20 OFFCURVE",
"1590 34 OFFCURVE",
"1734 236 CURVE",
"1752 258 OFFCURVE",
"1746 276 OFFCURVE",
"1726 284 CURVE SMOOTH",
"1544 358 LINE SMOOTH",
"1518 368 OFFCURVE",
"1512 366 OFFCURVE",
"1502 356 CURVE SMOOTH",
"1414 270 OFFCURVE",
"1352 244 OFFCURVE",
"1284 244 CURVE SMOOTH",
"1168 244 OFFCURVE",
"1078 302 OFFCURVE",
"1078 424 CURVE SMOOTH",
"1078 448 OFFCURVE",
"1088 458 OFFCURVE",
"1108 458 CURVE SMOOTH"
);
},
{
closed = 1;
nodes = (
"1340 846 OFFCURVE",
"1378 744 OFFCURVE",
"1378 692 CURVE SMOOTH",
"1378 668 OFFCURVE",
"1370 664 OFFCURVE",
"1344 664 CURVE SMOOTH",
"1084 666 LINE",
"1082 790 OFFCURVE",
"1158 846 OFFCURVE",
"1240 846 CURVE SMOOTH"
);
},
{
closed = 1;
nodes = (
"668 320 LINE SMOOTH",
"668 254 OFFCURVE",
"594 216 OFFCURVE",
"518 216 CURVE SMOOTH",
"440 216 OFFCURVE",
"398 254 OFFCURVE",
"398 312 CURVE SMOOTH",
"398 410 OFFCURVE",
"528 460 OFFCURVE",
"604 466 CURVE SMOOTH",
"632 468 LINE SMOOTH",
"656 468 OFFCURVE",
"668 456 OFFCURVE",
"668 432 CURVE SMOOTH"
);
}
);
};
layerId = "258ED206-D907-4350-8EBA-CBDDA1C16BF7";
paths = (
{
closed = 1;
nodes = (
"486 -20 OFFCURVE",
"618 24 OFFCURVE",
"754 138 CURVE SMOOTH",
"762 146 OFFCURVE",
"768 146 OFFCURVE",
"774 138 CURVE SMOOTH",
"856 40 OFFCURVE",
"990 -20 OFFCURVE",
"1154 -20 CURVE SMOOTH",
"1380 -20 OFFCURVE",
"1528 40 OFFCURVE",
"1710 264 CURVE",
"1490 360 LINE",
"1384 268 OFFCURVE",
"1316 238 OFFCURVE",
"1244 238 CURVE SMOOTH",
"1134 238 OFFCURVE",
"1056 304 OFFCURVE",
"1078 446 CURVE",
"1744 446 LINE",
"1802 830 OFFCURVE",
"1612 1054 OFFCURVE",
"1308 1054 CURVE SMOOTH",
"1210 1054 OFFCURVE",
"1108 1026 OFFCURVE",
"1016 976 CURVE",
"950 1024 OFFCURVE",
"840 1052 OFFCURVE",
"668 1054 CURVE SMOOTH",
"358 1054 OFFCURVE",
"222 954 OFFCURVE",
"116 766 CURVE",
"440 700 LINE",
"490 796 OFFCURVE",
"564 820 OFFCURVE",
"624 820 CURVE SMOOTH",
"702 820 OFFCURVE",
"730 780 OFFCURVE",
"720 708 CURVE SMOOTH",
"712 650 LINE",
"630 646 LINE SMOOTH",
"256 628 OFFCURVE",
"48 488 OFFCURVE",
"16 278 CURVE SMOOTH",
"-10 102 OFFCURVE",
"88 -20 OFFCURVE",
"308 -20 CURVE SMOOTH"
);
},
{
closed = 1;
nodes = (
"424 210 OFFCURVE",
"390 248 OFFCURVE",
"398 304 CURVE SMOOTH",
"412 400 OFFCURVE",
"546 448 OFFCURVE",
"620 454 CURVE SMOOTH",
"682 458 LINE",
"660 312 LINE SMOOTH",
"650 248 OFFCURVE",
"572 210 OFFCURVE",
"500 210 CURVE SMOOTH"
);
},
{
closed = 1;
nodes = (
"1114 650 LINE",
"1130 770 OFFCURVE",
"1212 824 OFFCURVE",
"1292 824 CURVE SMOOTH",
"1390 824 OFFCURVE",
"1408 708 OFFCURVE",
"1398 648 CURVE"
);
}
);
width = 1804;
},
{
anchors = (
{
name = top;
position = "{929, 1034}";
}
);
background = {
anchors = (
{
name = top;
position = "{881, 1060}";
}
);
paths = (
{
closed = 1;
nodes = (
"1701 508 LINE SMOOTH",
"1729 508 OFFCURVE",
"1737 522 OFFCURVE",
"1737 548 CURVE SMOOTH",
"1737 888 OFFCURVE",
"1553 1080 OFFCURVE",
"1279 1080 CURVE SMOOTH",
"1091 1080 OFFCURVE",
"947 1000 OFFCURVE",
"867 842 CURVE",
"827 1002 OFFCURVE",
"715 1080 OFFCURVE",
"517 1080 CURVE SMOOTH",
"347 1080 OFFCURVE",
"193 1000 OFFCURVE",
"107 862 CURVE SMOOTH",
"101 852 OFFCURVE",
"101 846 OFFCURVE",
"107 842 CURVE SMOOTH",
"151 812 LINE SMOOTH",
"159 806 OFFCURVE",
"163 808 OFFCURVE",
"173 820 CURVE SMOOTH",
"265 940 OFFCURVE",
"373 1004 OFFCURVE",
"501 1004 CURVE SMOOTH",
"701 1004 OFFCURVE",
"809 896 OFFCURVE",
"809 726 CURVE SMOOTH",
"809 664 LINE SMOOTH",
"809 646 OFFCURVE",
"797 636 OFFCURVE",
"773 634 CURVE SMOOTH",
"549 616 LINE SMOOTH",
"223 588 OFFCURVE",
"71 468 OFFCURVE",
"71 272 CURVE SMOOTH",
"71 90 OFFCURVE",
"195 -20 OFFCURVE",
"403 -20 CURVE SMOOTH",
"665 -20 OFFCURVE",
"781 124 OFFCURVE",
"853 216 CURVE SMOOTH",
"857 222 OFFCURVE",
"859 222 OFFCURVE",
"863 216 CURVE SMOOTH",
"921 130 OFFCURVE",
"1029 -20 OFFCURVE",
"1273 -20 CURVE SMOOTH",
"1467 -20 OFFCURVE",
"1629 74 OFFCURVE",
"1697 200 CURVE SMOOTH",
"1703 212 OFFCURVE",
"1701 216 OFFCURVE",
"1695 220 CURVE SMOOTH",
"1651 250 LINE SMOOTH",
"1641 256 OFFCURVE",
"1639 254 OFFCURVE",
"1629 242 CURVE SMOOTH",
"1571 162 OFFCURVE",
"1485 56 OFFCURVE",
"1277 56 CURVE SMOOTH",
"1053 56 OFFCURVE",
"877 268 OFFCURVE",
"877 456 CURVE SMOOTH",
"877 498 OFFCURVE",
"883 506 OFFCURVE",
"917 506 CURVE SMOOTH"
);
},
{
closed = 1;
nodes = (
"1493 1004 OFFCURVE",
"1651 828 OFFCURVE",
"1651 612 CURVE SMOOTH",
"1651 588 OFFCURVE",
"1649 580 OFFCURVE",
"1617 580 CURVE SMOOTH",
"881 582 LINE",
"883 836 OFFCURVE",
"1053 1004 OFFCURVE",
"1273 1004 CURVE SMOOTH"
);
},
{
closed = 1;
nodes = (
"809 354 LINE",
"809 198 OFFCURVE",
"637 68 OFFCURVE",
"423 58 CURVE SMOOTH",
"255 50 OFFCURVE",
"157 142 OFFCURVE",
"157 276 CURVE SMOOTH",
"157 430 OFFCURVE",
"289 520 OFFCURVE",
"589 544 CURVE SMOOTH",
"779 558 LINE SMOOTH",
"805 560 OFFCURVE",
"809 550 OFFCURVE",
"809 530 CURVE SMOOTH"
);
}
);
};
hints = (
{
horizontal = 1;
place = "{7052, 336}";
type = Stem;
}
);
layerId = "91AB5BCA-6A50-42DA-B2F7-8181BF189245";
paths = (
{
closed = 1;
nodes = (
"589 -20 OFFCURVE",
"713 120 OFFCURVE",
"789 210 CURVE SMOOTH",
"795 216 OFFCURVE",
"797 216 OFFCURVE",
"799 210 CURVE SMOOTH",
"839 126 OFFCURVE",
"913 -20 OFFCURVE",
"1133 -20 CURVE SMOOTH",
"1311 -20 OFFCURVE",
"1473 78 OFFCURVE",
"1553 208 CURVE",
"1503 252 LINE",
"1437 166 OFFCURVE",
"1341 54 OFFCURVE",
"1147 54 CURVE SMOOTH",
"947 54 OFFCURVE",
"821 286 OFFCURVE",
"849 494 CURVE",
"1623 496 LINE",
"1673 852 OFFCURVE",
"1535 1054 OFFCURVE",
"1289 1054 CURVE SMOOTH",
"1121 1054 OFFCURVE",
"983 976 OFFCURVE",
"889 820 CURVE",
"873 976 OFFCURVE",
"783 1054 OFFCURVE",
"607 1054 CURVE SMOOTH",
"451 1054 OFFCURVE",
"299 970 OFFCURVE",
"199 826 CURVE",
"249 784 LINE",
"353 910 OFFCURVE",
"463 978 OFFCURVE",
"581 978 CURVE SMOOTH",
"761 978 OFFCURVE",
"843 874 OFFCURVE",
"819 708 CURVE SMOOTH",
"807 620 LINE",
"571 600 LINE SMOOTH",
"277 574 OFFCURVE",
"121 456 OFFCURVE",
"95 266 CURVE SMOOTH",
"69 88 OFFCURVE",
"167 -20 OFFCURVE",
"353 -20 CURVE SMOOTH"
);
},
{
closed = 1;
nodes = (
"229 48 OFFCURVE",
"155 138 OFFCURVE",
"173 270 CURVE SMOOTH",
"193 420 OFFCURVE",
"325 508 OFFCURVE",
"597 530 CURVE SMOOTH",
"797 546 LINE",
"769 346 LINE",
"747 194 OFFCURVE",
"575 66 OFFCURVE",
"381 56 CURVE SMOOTH"
);
},
{
closed = 1;
nodes = (
"865 568 LINE",
"901 816 OFFCURVE",
"1077 978 OFFCURVE",
"1273 978 CURVE SMOOTH",
"1471 978 OFFCURVE",
"1587 794 OFFCURVE",
"1555 566 CURVE"
);
}
);
width = 1756;
}
);
leftKerningGroup = o;
leftMetricsKey = a;
rightKerningGroup = e;
rightMetricsKey = e;
unicode = 00E6;
},
{
glyphname = b;
lastChange = "2019-05-07 23:01:46 +0000";
layers = (
{
background = {
paths = (
{
closed = 1;
nodes = (
"357 0 OFFCURVE",
"373 14 OFFCURVE",
"383 46 CURVE SMOOTH",
"415 140 LINE SMOOTH",
"421 156 OFFCURVE",
"429 158 OFFCURVE",
"441 146 CURVE SMOOTH",
"519 44 OFFCURVE",
"627 -20 OFFCURVE",
"753 -20 CURVE SMOOTH",
"1045 -20 OFFCURVE",
"1207 198 OFFCURVE",
"1207 538 CURVE SMOOTH",
"1207 872 OFFCURVE",
"1055 1080 OFFCURVE",
"795 1080 CURVE SMOOTH",
"705 1080 OFFCURVE",
"623 1054 OFFCURVE",
"541 976 CURVE SMOOTH",
"521 960 OFFCURVE",
"503 960 OFFCURVE",
"503 992 CURVE SMOOTH",
"503 1442 LINE SMOOTH",
"503 1468 OFFCURVE",
"491 1484 OFFCURVE",
"467 1484 CURVE SMOOTH",
"141 1484 LINE SMOOTH",
"119 1484 OFFCURVE",
"103 1468 OFFCURVE",
"103 1438 CURVE SMOOTH",
"103 50 LINE SMOOTH",
"103 16 OFFCURVE",
"115 0 OFFCURVE",
"157 0 CURVE SMOOTH",
"331 0 LINE SMOOTH"
);
},
{
closed = 1;
nodes = (
"543 806 OFFCURVE",
"589 836 OFFCURVE",
"651 836 CURVE SMOOTH",
"749 836 OFFCURVE",
"803 762 OFFCURVE",
"803 530 CURVE SMOOTH",
"803 296 OFFCURVE",
"749 214 OFFCURVE",
"645 214 CURVE SMOOTH",
"561 214 OFFCURVE",
"503 270 OFFCURVE",
"503 370 CURVE SMOOTH",
"503 756 LINE"
);
}
);
};
layerId = "258ED206-D907-4350-8EBA-CBDDA1C16BF7";
paths = (
{
closed = 1;
nodes = (
"945 -20 OFFCURVE",
"1135 194 OFFCURVE",
"1185 524 CURVE SMOOTH",
"1235 850 OFFCURVE",
"1119 1054 OFFCURVE",
"865 1054 CURVE SMOOTH",
"765 1054 OFFCURVE",
"645 1004 OFFCURVE",
"557 878 CURVE",
"649 1486 LINE",
"261 1486 LINE",
"37 0 LINE",
"309 0 LINE",
"369 144 LINE",
"409 32 OFFCURVE",
"533 -20 OFFCURVE",
"661 -20 CURVE SMOOTH"
);
},
{
closed = 1;
nodes = (
"513 252 OFFCURVE",
"475 336 OFFCURVE",
"503 528 CURVE",
"503 528 LINE",
"531 706 OFFCURVE",
"597 780 OFFCURVE",
"685 780 CURVE SMOOTH",
"765 780 OFFCURVE",
"825 736 OFFCURVE",
"793 528 CURVE SMOOTH",
"763 320 OFFCURVE",
"691 252 OFFCURVE",
"599 252 CURVE"
);
}
);
width = 1234;
},
{
background = {
paths = (
{
closed = 1;
nodes = (
"240 0 OFFCURVE",
"246 6 OFFCURVE",
"246 26 CURVE SMOOTH",
"250 128 LINE SMOOTH",
"250 146 OFFCURVE",
"260 148 OFFCURVE",
"270 134 CURVE SMOOTH",
"294 100 OFFCURVE",
"394 -20 OFFCURVE",
"600 -20 CURVE SMOOTH",
"888 -20 OFFCURVE",
"1056 192 OFFCURVE",
"1056 534 CURVE SMOOTH",
"1056 832 OFFCURVE",
"928 1080 OFFCURVE",
"622 1080 CURVE SMOOTH",
"410 1080 OFFCURVE",
"298 964 OFFCURVE",
"278 946 CURVE SMOOTH",
"260 930 OFFCURVE",
"252 930 OFFCURVE",
"252 956 CURVE SMOOTH",
"252 1462 LINE SMOOTH",
"252 1478 OFFCURVE",
"248 1484 OFFCURVE",
"236 1484 CURVE SMOOTH",
"190 1484 LINE SMOOTH",
"178 1484 OFFCURVE",
"172 1478 OFFCURVE",
"172 1464 CURVE SMOOTH",
"172 26 LINE SMOOTH",
"172 6 OFFCURVE",
"178 0 OFFCURVE",
"194 0 CURVE SMOOTH",
"216 0 LINE SMOOTH"
);
},
{
closed = 1;
nodes = (
"332 926 OFFCURVE",
"460 1004 OFFCURVE",
"608 1004 CURVE SMOOTH",
"844 1004 OFFCURVE",
"970 818 OFFCURVE",
"970 534 CURVE SMOOTH",
"970 206 OFFCURVE",
"800 56 OFFCURVE",
"592 56 CURVE SMOOTH",
"424 56 OFFCURVE",
"252 192 OFFCURVE",
"252 354 CURVE SMOOTH",
"252 830 LINE"
);
}
);
};
layerId = "91AB5BCA-6A50-42DA-B2F7-8181BF189245";
paths = (
{
closed = 1;
nodes = (
"758 -20 OFFCURVE",
"916 188 OFFCURVE",
"964 520 CURVE SMOOTH",
"1004 812 OFFCURVE",
"922 1054 OFFCURVE",
"648 1054 CURVE SMOOTH",
"410 1054 OFFCURVE",
"312 884 OFFCURVE",
"288 840 CURVE",
"378 1486 LINE",
"306 1486 LINE",
"98 0 LINE",
"162 0 LINE",
"198 212 LINE",
"206 164 OFFCURVE",
"244 -20 OFFCURVE",
"498 -20 CURVE SMOOTH"
);
},
{
closed = 1;
nodes = (
"310 54 OFFCURVE",
"202 208 OFFCURVE",
"220 356 CURVE",
"264 678 LINE",
"278 722 OFFCURVE",
"342 978 OFFCURVE",
"630 978 CURVE SMOOTH",
"846 978 OFFCURVE",
"926 798 OFFCURVE",
"886 520 CURVE SMOOTH",
"842 200 OFFCURVE",
"694 54 OFFCURVE",
"506 54 CURVE SMOOTH"
);
}
);
width = 1094;
}
);
leftKerningGroup = h;
leftMetricsKey = n;
rightKerningGroup = o;
rightMetricsKey = o;
unicode = 0062;
},
{
glyphname = c;
lastChange = "2019-05-07 23:00:56 +0000";
layers = (
{
anchors = (
{
name = bottom;
position = "{477, 0}";
},
{
name = top;
position = "{637, 1034}";
}
);
background = {
anchors = (
{
name = bottom;
position = "{533, 0}";
},
{
name = top;
position = "{535, 1060}";
}
);
paths = (
{
closed = 1;
nodes = (
"219 1080 OFFCURVE",
"-19 856 OFFCURVE",
"-19 526 CURVE SMOOTH",
"-19 202 OFFCURVE",
"215 -20 OFFCURVE",
"535 -20 CURVE SMOOTH",
"859 -20 OFFCURVE",
"991 210 OFFCURVE",
"1011 314 CURVE SMOOTH",
"1019 344 OFFCURVE",
"1015 356 OFFCURVE",
"993 360 CURVE SMOOTH",
"805 396 LINE SMOOTH",
"779 400 OFFCURVE",
"771 396 OFFCURVE",
"765 386 CURVE SMOOTH",
"715 296 OFFCURVE",
"677 228 OFFCURVE",
"567 228 CURVE SMOOTH",
"453 228 OFFCURVE",
"385 308 OFFCURVE",
"385 530 CURVE SMOOTH",
"385 744 OFFCURVE",
"447 828 OFFCURVE",
"545 828 CURVE SMOOTH",
"641 828 OFFCURVE",
"659 752 OFFCURVE",
"667 702 CURVE SMOOTH",
"671 680 OFFCURVE",
"679 672 OFFCURVE",
"701 674 CURVE SMOOTH",
"975 688 LINE SMOOTH",
"1009 690 OFFCURVE",
"1021 706 OFFCURVE",
"1011 740 CURVE SMOOTH",
"979 894 OFFCURVE",
"821 1080 OFFCURVE",
"535 1080 CURVE SMOOTH"
);
}
);
};
guideLines = (
{
angle = -0.5577;
position = "{-492, 167}";
},
{
position = "{512, 123}";
},
{
angle = 3.769;
position = "{407, 307}";
}
);
layerId = "258ED206-D907-4350-8EBA-CBDDA1C16BF7";
paths = (
{
closed = 1;
nodes = (
"757 -20 OFFCURVE",
"953 180 OFFCURVE",
"985 400 CURVE",
"681 400 LINE",
"669 358 OFFCURVE",
"625 248 OFFCURVE",
"527 248 CURVE SMOOTH",
"429 248 OFFCURVE",
"369 346 OFFCURVE",
"395 516 CURVE SMOOTH",
"421 682 OFFCURVE",
"499 766 OFFCURVE",
"599 766 CURVE SMOOTH",
"697 766 OFFCURVE",
"711 670 OFFCURVE",
"709 612 CURVE",
"1023 612 LINE",
"1053 844 OFFCURVE",
"931 1054 OFFCURVE",
"639 1054 CURVE SMOOTH",
"341 1054 OFFCURVE",
"87 832 OFFCURVE",
"39 512 CURVE SMOOTH",
"-9 196 OFFCURVE",
"183 -20 OFFCURVE",
"477 -20 CURVE SMOOTH"
);
}
);
width = 1060;
},
{
anchors = (
{
name = bottom;
position = "{471, 0}";
},
{
name = top;
position = "{613, 1034}";
}
);
background = {
anchors = (
{
name = bottom;
position = "{563, 0}";
},
{
name = top;
position = "{559, 1060}";
}
);
paths = (
{
closed = 1;
nodes = (
"279 1080 OFFCURVE",
"81 850 OFFCURVE",
"81 526 CURVE SMOOTH",
"81 200 OFFCURVE",
"275 -20 OFFCURVE",
"561 -20 CURVE SMOOTH",
"731 -20 OFFCURVE",
"875 58 OFFCURVE",
"971 214 CURVE SMOOTH",
"975 222 OFFCURVE",
"973 230 OFFCURVE",
"967 234 CURVE SMOOTH",
"921 264 LINE SMOOTH",
"913 270 OFFCURVE",
"909 268 OFFCURVE",
"901 256 CURVE SMOOTH",
"813 120 OFFCURVE",
"705 56 OFFCURVE",
"569 56 CURVE SMOOTH",
"325 56 OFFCURVE",
"165 246 OFFCURVE",
"165 530 CURVE SMOOTH",
"165 814 OFFCURVE",
"325 1004 OFFCURVE",
"571 1004 CURVE SMOOTH",
"683 1004 OFFCURVE",
"773 956 OFFCURVE",
"883 822 CURVE SMOOTH",
"891 812 OFFCURVE",
"899 810 OFFCURVE",
"905 814 CURVE SMOOTH",
"953 846 LINE SMOOTH",
"959 850 OFFCURVE",
"961 854 OFFCURVE",
"953 866 CURVE SMOOTH",
"861 998 OFFCURVE",
"739 1080 OFFCURVE",
"561 1080 CURVE SMOOTH"
);
}
);
};
layerId = "91AB5BCA-6A50-42DA-B2F7-8181BF189245";
paths = (
{
closed = 1;
nodes = (
"623 -20 OFFCURVE",
"795 56 OFFCURVE",
"869 276 CURVE",
"793 276 LINE",
"739 122 OFFCURVE",
"613 54 OFFCURVE",
"485 54 CURVE SMOOTH",
"269 54 OFFCURVE",
"167 238 OFFCURVE",
"205 516 CURVE SMOOTH",
"245 792 OFFCURVE",
"403 978 OFFCURVE",
"617 978 CURVE SMOOTH",
"737 978 OFFCURVE",
"841 918 OFFCURVE",
"859 754 CURVE",
"937 758 LINE",
"927 966 OFFCURVE",
"779 1054 OFFCURVE",
"619 1054 CURVE SMOOTH",
"361 1054 OFFCURVE",
"175 830 OFFCURVE",
"129 512 CURVE SMOOTH",
"85 196 OFFCURVE",
"209 -20 OFFCURVE",
"467 -20 CURVE SMOOTH"
);
}
);
width = 1053;
}
);
leftKerningGroup = o;
leftMetricsKey = e;
rightKerningGroup = o;
unicode = 0063;
},
{
glyphname = d;
lastChange = "2019-05-07 23:01:45 +0000";
layers = (
{
anchors = (
{
name = bottom;
position = "{503, 0}";
},
{
name = center;
position = "{581, 516}";
},
{
name = topright;
position = "{1215, 1034}";
}
);
background = {
anchors = (
{
name = bottom;
position = "{595, 0}";
},
{
name = center;
position = "{595, 530}";
},
{
name = topright;
position = "{1167, 1060}";
}
);
paths = (
{
closed = 1;
nodes = (
"1077 0 LINE SMOOTH",
"1119 0 OFFCURVE",
"1131 16 OFFCURVE",
"1131 50 CURVE SMOOTH",
"1131 1438 LINE SMOOTH",
"1131 1468 OFFCURVE",
"1115 1484 OFFCURVE",
"1093 1484 CURVE SMOOTH",
"769 1484 LINE SMOOTH",
"745 1484 OFFCURVE",
"733 1468 OFFCURVE",
"733 1442 CURVE SMOOTH",
"733 992 LINE SMOOTH",
"733 960 OFFCURVE",
"715 960 OFFCURVE",
"695 976 CURVE SMOOTH",
"613 1056 OFFCURVE",
"537 1080 OFFCURVE",
"447 1080 CURVE SMOOTH",
"227 1080 OFFCURVE",
"27 862 OFFCURVE",
"27 526 CURVE SMOOTH",
"27 164 OFFCURVE",
"191 -20 OFFCURVE",
"427 -20 CURVE SMOOTH",
"551 -20 OFFCURVE",
"629 20 OFFCURVE",
"707 92 CURVE SMOOTH",
"721 104 OFFCURVE",
"737 102 OFFCURVE",
"737 84 CURVE SMOOTH",
"737 46 LINE SMOOTH",
"737 12 OFFCURVE",
"761 0 OFFCURVE",
"787 0 CURVE SMOOTH"
);
},
{
closed = 1;
nodes = (
"731 352 LINE SMOOTH",
"731 274 OFFCURVE",
"669 220 OFFCURVE",
"591 220 CURVE SMOOTH",
"489 220 OFFCURVE",
"431 298 OFFCURVE",
"431 528 CURVE SMOOTH",
"431 760 OFFCURVE",
"497 832 OFFCURVE",
"591 832 CURVE SMOOTH",
"653 832 OFFCURVE",
"689 806 OFFCURVE",
"731 756 CURVE"
);
}
);
};
layerId = "258ED206-D907-4350-8EBA-CBDDA1C16BF7";
paths = (
{
closed = 1;
nodes = (
"565 -20 OFFCURVE",
"677 68 OFFCURVE",
"743 212 CURVE",
"757 0 LINE",
"1031 0 LINE",
"1257 1486 LINE",
"869 1486 LINE",
"783 916 LINE",
"735 1022 OFFCURVE",
"621 1054 OFFCURVE",
"519 1054 CURVE SMOOTH",
"267 1054 OFFCURVE",
"89 850 OFFCURVE",
"41 524 CURVE SMOOTH",
"-11 194 OFFCURVE",
"115 -20 OFFCURVE",
"399 -20 CURVE SMOOTH"
);
},
{
closed = 1;
nodes = (
"443 252 OFFCURVE",
"383 320 OFFCURVE",
"415 528 CURVE SMOOTH",
"445 736 OFFCURVE",
"531 780 OFFCURVE",
"609 780 CURVE SMOOTH",
"695 780 OFFCURVE",
"755 728 OFFCURVE",
"731 568 CURVE",
"717 478 LINE",
"693 324 OFFCURVE",
"619 252 OFFCURVE",
"533 252 CURVE"
);
}
);
width = 1231;
},
{
anchors = (
{
name = bottom;
position = "{476, 0}";
},
{
name = center;
position = "{570, 516}";
},
{
name = topright;
position = "{1262, 1446}";
}
);
background = {
anchors = (
{
name = bottom;
position = "{596, 0}";
},
{
name = center;
position = "{620, 530}";
},
{
name = topright;
position = "{1246, 1484}";
}
);
paths = (
{
closed = 1;
nodes = (
"970 0 LINE SMOOTH",
"988 0 OFFCURVE",
"994 6 OFFCURVE",
"994 24 CURVE SMOOTH",
"994 1466 LINE SMOOTH",
"994 1478 OFFCURVE",
"988 1484 OFFCURVE",
"978 1484 CURVE SMOOTH",
"932 1484 LINE SMOOTH",
"918 1484 OFFCURVE",
"914 1478 OFFCURVE",
"914 1464 CURVE SMOOTH",
"914 986 LINE SMOOTH",
"914 960 OFFCURVE",
"910 952 OFFCURVE",
"886 972 CURVE SMOOTH",
"824 1020 OFFCURVE",
"738 1080 OFFCURVE",
"592 1080 CURVE SMOOTH",
"298 1080 OFFCURVE",
"106 850 OFFCURVE",
"106 510 CURVE SMOOTH",
"106 156 OFFCURVE",
"312 -20 OFFCURVE",
"568 -20 CURVE SMOOTH",
"760 -20 OFFCURVE",
"862 98 OFFCURVE",
"894 132 CURVE SMOOTH",
"910 148 OFFCURVE",
"918 146 OFFCURVE",
"918 124 CURVE SMOOTH",
"918 22 LINE SMOOTH",
"918 8 OFFCURVE",
"924 0 OFFCURVE",
"938 0 CURVE SMOOTH"
);
},
{
closed = 1;
nodes = (
"914 340 LINE SMOOTH",
"914 220 OFFCURVE",
"770 56 OFFCURVE",
"578 56 CURVE SMOOTH",
"374 56 OFFCURVE",
"190 200 OFFCURVE",
"190 518 CURVE SMOOTH",
"190 822 OFFCURVE",
"360 1004 OFFCURVE",
"594 1004 CURVE SMOOTH",
"716 1004 OFFCURVE",
"816 948 OFFCURVE",
"914 852 CURVE"
);
}
);
};
layerId = "91AB5BCA-6A50-42DA-B2F7-8181BF189245";
paths = (
{
closed = 1;
nodes = (
"698 -20 OFFCURVE",
"788 164 OFFCURVE",
"810 212 CURVE",
"786 0 LINE",
"850 0 LINE",
"1060 1486 LINE",
"988 1486 LINE",
"900 856 LINE",
"886 900 OFFCURVE",
"818 1054 OFFCURVE",
"596 1054 CURVE SMOOTH",
"322 1054 OFFCURVE",
"172 812 OFFCURVE",
"130 520 CURVE SMOOTH",
"84 188 OFFCURVE",
"186 -20 OFFCURVE",
"444 -20 CURVE SMOOTH"
);
},
{
closed = 1;
nodes = (
"270 54 OFFCURVE",
"162 200 OFFCURVE",
"208 520 CURVE SMOOTH",
"246 798 OFFCURVE",
"378 978 OFFCURVE",
"592 978 CURVE SMOOTH",
"860 978 OFFCURVE",
"872 722 OFFCURVE",
"874 678 CURVE",
"828 356 LINE",
"804 208 OFFCURVE",
"654 54 OFFCURVE",
"456 54 CURVE SMOOTH"
);
}
);
width = 1094;
}
);
leftKerningGroup = o;
leftMetricsKey = e;
rightKerningGroup = u;
rightMetricsKey = u;
unicode = 0064;
},
{
glyphname = eth;
lastChange = "2019-05-07 23:01:46 +0000";
layers = (
{
background = {
paths = (
{
closed = 1;
nodes = (
"1147 880 OFFCURVE",
"997 1164 OFFCURVE",
"749 1338 CURVE",
"841 1390 LINE SMOOTH",
"853 1398 OFFCURVE",
"855 1408 OFFCURVE",
"849 1418 CURVE SMOOTH",
"807 1494 LINE SMOOTH",
"799 1504 OFFCURVE",
"785 1508 OFFCURVE",
"771 1498 CURVE SMOOTH",
"621 1414 LINE",
"547 1452 OFFCURVE",
"465 1480 OFFCURVE",
"379 1500 CURVE SMOOTH",
"355 1506 OFFCURVE",
"351 1504 OFFCURVE",
"337 1492 CURVE SMOOTH",
"169 1354 LINE SMOOTH",
"155 1342 OFFCURVE",
"161 1330 OFFCURVE",
"173 1326 CURVE SMOOTH",
"233 1306 OFFCURVE",
"287 1282 OFFCURVE",
"337 1256 CURVE",
"195 1178 LINE SMOOTH",
"181 1172 OFFCURVE",
"175 1156 OFFCURVE",
"191 1134 CURVE SMOOTH",
"221 1086 LINE SMOOTH",
"235 1064 OFFCURVE",
"247 1060 OFFCURVE",
"269 1072 CURVE SMOOTH",
"461 1180 LINE",
"517 1138 OFFCURVE",
"555 1102 OFFCURVE",
"593 1050 CURVE SMOOTH",
"597 1044 OFFCURVE",
"597 1040 OFFCURVE",
"589 1040 CURVE SMOOTH",
"273 1040 OFFCURVE",
"31 818 OFFCURVE",
"31 504 CURVE SMOOTH",
"31 206 OFFCURVE",
"259 -20 OFFCURVE",
"587 -20 CURVE SMOOTH",
"921 -20 OFFCURVE",
"1147 204 OFFCURVE",
"1147 564 CURVE SMOOTH"
);
},
{
closed = 1;
nodes = (
"483 236 OFFCURVE",
"435 324 OFFCURVE",
"435 512 CURVE SMOOTH",
"435 702 OFFCURVE",
"483 792 OFFCURVE",
"589 792 CURVE SMOOTH",
"697 792 OFFCURVE",
"743 702 OFFCURVE",
"743 512 CURVE SMOOTH",
"743 326 OFFCURVE",
"697 236 OFFCURVE",
"589 236 CURVE SMOOTH"
);
}
);
};
layerId = "258ED206-D907-4350-8EBA-CBDDA1C16BF7";
paths = (
{
closed = 1;
nodes = (
"821 -20 OFFCURVE",
"1073 198 OFFCURVE",
"1127 550 CURVE SMOOTH",
"1173 858 OFFCURVE",
"1071 1134 OFFCURVE",
"855 1304 CURVE",
"973 1366 LINE",
"929 1474 LINE",
"743 1378 LINE",
"671 1418 OFFCURVE",
"587 1446 OFFCURVE",
"497 1468 CURVE",
"273 1302 LINE",
"335 1280 OFFCURVE",
"393 1254 OFFCURVE",
"447 1224 CURVE",
"271 1136 LINE",
"321 1030 LINE",
"555 1150 LINE",
"601 1110 OFFCURVE",
"635 1074 OFFCURVE",
"663 1024 CURVE SMOOTH",
"665 1018 OFFCURVE",
"665 1014 OFFCURVE",
"657 1014 CURVE SMOOTH",
"351 1014 OFFCURVE",
"83 798 OFFCURVE",
"37 492 CURVE SMOOTH",
"-7 200 OFFCURVE",
"181 -20 OFFCURVE",
"497 -20 CURVE SMOOTH"
);
},
{
closed = 1;
nodes = (
"437 230 OFFCURVE",
"401 316 OFFCURVE",
"429 500 CURVE SMOOTH",
"457 684 OFFCURVE",
"519 772 OFFCURVE",
"619 772 CURVE SMOOTH",
"725 772 OFFCURVE",
"755 684 OFFCURVE",
"727 500 CURVE SMOOTH",
"701 318 OFFCURVE",
"643 230 OFFCURVE",
"537 230 CURVE SMOOTH"
);
}
);
width = 1172;
},
{
background = {
paths = (
{
closed = 1;
nodes = (
"1096 844 OFFCURVE",
"986 1126 OFFCURVE",
"674 1338 CURVE",
"854 1438 LINE SMOOTH",
"860 1442 OFFCURVE",
"860 1448 OFFCURVE",
"856 1454 CURVE SMOOTH",
"832 1498 LINE SMOOTH",
"830 1502 OFFCURVE",
"820 1504 OFFCURVE",
"814 1500 CURVE SMOOTH",
"606 1384 LINE",
"536 1426 OFFCURVE",
"462 1462 OFFCURVE",
"374 1498 CURVE SMOOTH",
"356 1506 OFFCURVE",
"350 1502 OFFCURVE",
"338 1494 CURVE SMOOTH",
"302 1470 LINE SMOOTH",
"292 1462 OFFCURVE",
"294 1452 OFFCURVE",
"304 1448 CURVE SMOOTH",
"388 1414 OFFCURVE",
"462 1378 OFFCURVE",
"530 1340 CURVE",
"220 1166 LINE SMOOTH",
"214 1162 OFFCURVE",
"210 1156 OFFCURVE",
"218 1144 CURVE SMOOTH",
"236 1116 LINE SMOOTH",
"244 1104 OFFCURVE",
"250 1100 OFFCURVE",
"262 1106 CURVE SMOOTH",
"598 1296 LINE",
"770 1180 OFFCURVE",
"876 1046 OFFCURVE",
"938 902 CURVE",
"852 988 OFFCURVE",
"734 1040 OFFCURVE",
"592 1040 CURVE SMOOTH",
"320 1040 OFFCURVE",
"124 816 OFFCURVE",
"124 504 CURVE SMOOTH",
"124 196 OFFCURVE",
"318 -20 OFFCURVE",
"606 -20 CURVE SMOOTH",
"914 -20 OFFCURVE",
"1096 202 OFFCURVE",
"1096 510 CURVE SMOOTH"
);
},
{
closed = 1;
nodes = (
"382 56 OFFCURVE",
"208 256 OFFCURVE",
"208 508 CURVE SMOOTH",
"208 760 OFFCURVE",
"382 964 OFFCURVE",
"612 964 CURVE SMOOTH",
"840 964 OFFCURVE",
"1012 762 OFFCURVE",
"1012 508 CURVE SMOOTH",
"1012 254 OFFCURVE",
"844 56 OFFCURVE",
"614 56 CURVE SMOOTH"
);
}
);
};
layerId = "91AB5BCA-6A50-42DA-B2F7-8181BF189245";
paths = (
{
closed = 1;
nodes = (
"762 -20 OFFCURVE",
"956 196 OFFCURVE",
"998 498 CURVE SMOOTH",
"1044 822 OFFCURVE",
"984 1098 OFFCURVE",
"732 1304 CURVE",
"914 1406 LINE",
"894 1470 LINE",
"678 1350 LINE",
"616 1392 OFFCURVE",
"550 1432 OFFCURVE",
"470 1468 CURVE",
"398 1420 LINE",
"476 1384 OFFCURVE",
"544 1348 OFFCURVE",
"604 1306 CURVE",
"290 1132 LINE",
"316 1070 LINE",
"658 1264 LINE",
"798 1150 OFFCURVE",
"872 1020 OFFCURVE",
"908 880 CURVE",
"844 964 OFFCURVE",
"746 1014 OFFCURVE",
"618 1014 CURVE SMOOTH",
"374 1014 OFFCURVE",
"168 796 OFFCURVE",
"126 492 CURVE SMOOTH",
"84 192 OFFCURVE",
"226 -20 OFFCURVE",
"486 -20 CURVE SMOOTH"
);
},
{
closed = 1;
nodes = (
"294 54 OFFCURVE",
"166 250 OFFCURVE",
"202 496 CURVE SMOOTH",
"236 742 OFFCURVE",
"418 940 OFFCURVE",
"626 940 CURVE SMOOTH",
"830 940 OFFCURVE",
"958 742 OFFCURVE",
"922 496 CURVE SMOOTH",
"888 248 OFFCURVE",
"710 54 OFFCURVE",
"504 54 CURVE SMOOTH"
);
}
);
width = 1131;
}
);
leftKerningGroup = o;
leftMetricsKey = o;
rightKerningGroup = o;
rightMetricsKey = o;
unicode = 00F0;
},
{
glyphname = dcroat;
lastChange = "2019-05-07 23:01:45 +0000";
layers = (
{
background = {
components = (
{
name = d;
transform = "{1, 0, 0, 1, -38, 0}";
}
);
paths = (
{
closed = 1;
nodes = (
"1150 1360 OFFCURVE",
"1138 1374 OFFCURVE",
"1118 1374 CURVE SMOOTH",
"440 1374 LINE SMOOTH",
"420 1374 OFFCURVE",
"408 1360 OFFCURVE",
"408 1334 CURVE SMOOTH",
"408 1204 LINE SMOOTH",
"408 1174 OFFCURVE",
"418 1160 OFFCURVE",
"452 1160 CURVE SMOOTH",
"1092 1160 LINE SMOOTH",
"1132 1160 OFFCURVE",
"1150 1174 OFFCURVE",
"1150 1208 CURVE SMOOTH",
"1150 1338 LINE SMOOTH"
);
}
);
};
components = (
{
name = d;
}
);
layerId = "258ED206-D907-4350-8EBA-CBDDA1C16BF7";
paths = (
{
closed = 1;
nodes = (
"1324 1132 LINE",
"1352 1340 LINE",
"628 1340 LINE",
"600 1132 LINE"
);
}
);
width = 1308;
},
{
background = {
components = (
{
name = d;
transform = "{1, 0, 0, 1, 4, 0}";
}
);
paths = (
{
closed = 1;
nodes = (
"1162 1320 OFFCURVE",
"1158 1324 OFFCURVE",
"1152 1324 CURVE SMOOTH",
"594 1324 LINE SMOOTH",
"588 1324 OFFCURVE",
"584 1320 OFFCURVE",
"584 1310 CURVE SMOOTH",
"584 1270 LINE SMOOTH",
"584 1258 OFFCURVE",
"586 1254 OFFCURVE",
"598 1254 CURVE SMOOTH",
"1142 1254 LINE SMOOTH",
"1156 1254 OFFCURVE",
"1162 1258 OFFCURVE",
"1162 1270 CURVE SMOOTH",
"1162 1312 LINE SMOOTH"
);
}
);
};
components = (
{
name = d;
}
);
layerId = "91AB5BCA-6A50-42DA-B2F7-8181BF189245";
paths = (
{
closed = 1;
nodes = (
"1130 1222 LINE",
"1130 1290 LINE",
"568 1290 LINE",
"568 1222 LINE"
);
}
);
width = 1171;
}
);
leftKerningGroup = o;
leftMetricsKey = d;
rightMetricsKey = t;
unicode = 0111;
},
{
glyphname = e;
lastChange = "2019-05-07 23:00:41 +0000";
layers = (
{
anchors = (
{
name = bottom;
position = "{492, 0}";
},
{
name = ogonek;
position = "{748, 50}";
},
{
name = top;
position = "{642, 1034}";
}
);
background = {
anchors = (
{
name = bottom;
position = "{546, 0}";
},
{
name = ogonek;
position = "{804, 52}";
},
{
name = top;
position = "{540, 1060}";
}
);
paths = (
{
closed = 1;
nodes = (
"392 448 OFFCURVE",
"402 458 OFFCURVE",
"422 458 CURVE SMOOTH",
"1044 458 LINE SMOOTH",
"1078 460 OFFCURVE",
"1080 474 OFFCURVE",
"1080 508 CURVE SMOOTH",
"1080 870 OFFCURVE",
"850 1080 OFFCURVE",
"536 1080 CURVE SMOOTH",
"240 1080 OFFCURVE",
"-20 852 OFFCURVE",
"-20 512 CURVE SMOOTH",
"-20 198 OFFCURVE",
"224 -20 OFFCURVE",
"544 -20 CURVE SMOOTH",
"768 -20 OFFCURVE",
"904 34 OFFCURVE",
"1048 236 CURVE SMOOTH",
"1066 258 OFFCURVE",
"1060 276 OFFCURVE",
"1040 284 CURVE SMOOTH",
"858 358 LINE SMOOTH",
"832 368 OFFCURVE",
"826 366 OFFCURVE",
"816 356 CURVE SMOOTH",
"728 270 OFFCURVE",
"666 244 OFFCURVE",
"598 244 CURVE SMOOTH",
"482 244 OFFCURVE",
"392 302 OFFCURVE",
"392 424 CURVE SMOOTH"
);
},
{
closed = 1;
nodes = (
"396 790 OFFCURVE",
"472 846 OFFCURVE",
"554 846 CURVE SMOOTH",
"654 846 OFFCURVE",
"692 744 OFFCURVE",
"692 692 CURVE SMOOTH",
"692 668 OFFCURVE",
"684 664 OFFCURVE",
"658 664 CURVE SMOOTH",
"398 666 LINE"
);
}
);
};
layerId = "258ED206-D907-4350-8EBA-CBDDA1C16BF7";
paths = (
{
closed = 1;
nodes = (
"726 -20 OFFCURVE",
"980 122 OFFCURVE",
"1046 352 CURVE",
"704 352 LINE",
"660 272 OFFCURVE",
"600 252 OFFCURVE",
"528 252 CURVE SMOOTH",
"444 252 OFFCURVE",
"384 304 OFFCURVE",
"406 428 CURVE",
"1054 428 LINE",
"1068 518 LINE",
"1114 824 OFFCURVE",
"980 1054 OFFCURVE",
"644 1054 CURVE SMOOTH",
"314 1054 OFFCURVE",
"82 800 OFFCURVE",
"38 504 CURVE SMOOTH",
"-10 190 OFFCURVE",
"176 -20 OFFCURVE",
"496 -20 CURVE SMOOTH"
);
},
{
closed = 1;
nodes = (
"448 724 OFFCURVE",
"524 792 OFFCURVE",
"604 792 CURVE SMOOTH",
"702 792 OFFCURVE",
"742 724 OFFCURVE",
"730 646 CURVE",
"436 646 LINE"
);
}
);
width = 1119;
},
{
anchors = (
{
name = bottom;
position = "{463, 0}";
},
{
name = ogonek;
position = "{641, 36}";
},
{
name = top;
position = "{611, 1034}";
}
);
background = {
anchors = (
{
name = bottom;
position = "{561, 0}";
},
{
name = ogonek;
position = "{747, 36}";
},
{
name = top;
position = "{555, 1060}";
}
);
paths = (
{
closed = 1;
nodes = (
"157 494 OFFCURVE",
"161 508 OFFCURVE",
"169 508 CURVE SMOOTH",
"991 508 LINE SMOOTH",
"1021 508 OFFCURVE",
"1017 532 OFFCURVE",
"1017 548 CURVE SMOOTH",
"1017 884 OFFCURVE",
"841 1080 OFFCURVE",
"559 1080 CURVE SMOOTH",
"277 1080 OFFCURVE",
"73 872 OFFCURVE",
"73 522 CURVE SMOOTH",
"73 200 OFFCURVE",
"271 -20 OFFCURVE",
"559 -20 CURVE SMOOTH",
"747 -20 OFFCURVE",
"887 54 OFFCURVE",
"979 200 CURVE SMOOTH",
"985 208 OFFCURVE",
"983 216 OFFCURVE",
"977 220 CURVE SMOOTH",
"931 250 LINE SMOOTH",
"923 256 OFFCURVE",
"917 254 OFFCURVE",
"909 242 CURVE SMOOTH",
"837 122 OFFCURVE",
"719 56 OFFCURVE",
"559 56 CURVE SMOOTH",
"335 56 OFFCURVE",
"157 254 OFFCURVE",
"157 480 CURVE SMOOTH"
);
},
{
closed = 1;
nodes = (
"157 780 OFFCURVE",
"293 1004 OFFCURVE",
"557 1004 CURVE SMOOTH",
"789 1004 OFFCURVE",
"933 828 OFFCURVE",
"933 608 CURVE SMOOTH",
"933 586 OFFCURVE",
"927 580 OFFCURVE",
"899 580 CURVE SMOOTH",
"159 580 LINE"
);
}
);
};
guideLines = (
{
angle = 88.4926;
position = "{230, 483}";
}
);
layerId = "91AB5BCA-6A50-42DA-B2F7-8181BF189245";
paths = (
{
closed = 1;
nodes = (
"643 -20 OFFCURVE",
"797 66 OFFCURVE",
"879 276 CURVE",
"803 276 LINE",
"743 138 OFFCURVE",
"633 58 OFFCURVE",
"485 58 CURVE SMOOTH",
"245 58 OFFCURVE",
"171 262 OFFCURVE",
"203 496 CURVE",
"921 496 LINE",
"929 554 LINE",
"975 872 OFFCURVE",
"857 1054 OFFCURVE",
"613 1054 CURVE SMOOTH",
"355 1054 OFFCURVE",
"177 850 OFFCURVE",
"129 508 CURVE SMOOTH",
"81 170 OFFCURVE",
"225 -20 OFFCURVE",
"473 -20 CURVE SMOOTH"
);
},
{
closed = 1;
nodes = (
"243 768 OFFCURVE",
"369 976 OFFCURVE",
"601 976 CURVE SMOOTH",
"815 976 OFFCURVE",
"889 804 OFFCURVE",
"857 574 CURVE",
"217 574 LINE"
);
}
);
width = 1054;
}
);
leftKerningGroup = o;
rightKerningGroup = o;
unicode = 0065;
},
{
glyphname = f;
lastChange = "2019-05-07 23:00:56 +0000";
layers = (
{
background = {
paths = (
{
closed = 1;
nodes = (
"630 1060 LINE SMOOTH",
"614 1060 OFFCURVE",
"604 1066 OFFCURVE",
"604 1086 CURVE SMOOTH",
"604 1122 LINE SMOOTH",
"604 1178 OFFCURVE",
"648 1224 OFFCURVE",
"694 1224 CURVE SMOOTH",
"780 1224 LINE SMOOTH",
"804 1224 OFFCURVE",
"816 1242 OFFCURVE",
"816 1264 CURVE",
"814 1432 LINE",
"814 1464 OFFCURVE",
"794 1484 OFFCURVE",
"756 1484 CURVE SMOOTH",
"530 1484 LINE SMOOTH",
"336 1484 OFFCURVE",
"214 1376 OFFCURVE",
"214 1202 CURVE SMOOTH",
"214 1096 LINE SMOOTH",
"214 1070 OFFCURVE",
"208 1060 OFFCURVE",
"186 1060 CURVE SMOOTH",
"90 1060 LINE SMOOTH",
"56 1060 OFFCURVE",
"42 1040 OFFCURVE",
"42 1016 CURVE SMOOTH",
"42 828 LINE SMOOTH",
"42 800 OFFCURVE",
"58 790 OFFCURVE",
"86 790 CURVE SMOOTH",
"198 790 LINE SMOOTH",
"210 790 OFFCURVE",
"214 784 OFFCURVE",
"214 770 CURVE SMOOTH",
"214 40 LINE SMOOTH",
"214 14 OFFCURVE",
"228 0 OFFCURVE",
"250 0 CURVE SMOOTH",
"576 0 LINE SMOOTH",
"600 0 OFFCURVE",
"614 14 OFFCURVE",
"614 44 CURVE SMOOTH",
"614 766 LINE SMOOTH",
"614 782 OFFCURVE",
"624 790 OFFCURVE",
"638 790 CURVE SMOOTH",
"762 790 LINE SMOOTH",
"788 790 OFFCURVE",
"806 800 OFFCURVE",
"806 828 CURVE SMOOTH",
"806 1016 LINE SMOOTH",
"806 1040 OFFCURVE",
"790 1060 OFFCURVE",
"756 1060 CURVE SMOOTH"
);
}
);
};
layerId = "258ED206-D907-4350-8EBA-CBDDA1C16BF7";
paths = (
{
closed = 1;
nodes = (
"520 0 LINE",
"638 770 LINE",
"824 770 LINE",
"864 1034 LINE",
"670 1034 LINE",
"678 1094 LINE SMOOTH",
"690 1170 OFFCURVE",
"716 1194 OFFCURVE",
"780 1194 CURVE SMOOTH",
"898 1194 LINE",
"936 1446 LINE",
"660 1446 LINE SMOOTH",
"472 1446 OFFCURVE",
"338 1342 OFFCURVE",
"312 1172 CURVE SMOOTH",
"290 1034 LINE",
"126 1034 LINE",
"86 770 LINE",
"250 770 LINE",
"134 0 LINE"
);
}
);
width = 835;
},
{
background = {
paths = (
{
closed = 1;
nodes = (
"475 1060 LINE SMOOTH",
"465 1060 OFFCURVE",
"461 1064 OFFCURVE",
"461 1074 CURVE SMOOTH",
"461 1254 LINE SMOOTH",
"461 1356 OFFCURVE",
"487 1414 OFFCURVE",
"587 1414 CURVE SMOOTH",
"747 1414 LINE SMOOTH",
"757 1414 OFFCURVE",
"763 1418 OFFCURVE",
"763 1428 CURVE SMOOTH",
"763 1470 LINE SMOOTH",
"763 1480 OFFCURVE",
"759 1484 OFFCURVE",
"751 1484 CURVE SMOOTH",
"607 1484 LINE SMOOTH",
"447 1484 OFFCURVE",
"381 1400 OFFCURVE",
"381 1236 CURVE SMOOTH",
"381 1074 LINE SMOOTH",
"381 1064 OFFCURVE",
"377 1060 OFFCURVE",
"367 1060 CURVE SMOOTH",
"141 1060 LINE SMOOTH",
"133 1060 OFFCURVE",
"129 1056 OFFCURVE",
"129 1048 CURVE SMOOTH",
"129 1002 LINE SMOOTH",
"129 994 OFFCURVE",
"133 990 OFFCURVE",
"141 990 CURVE SMOOTH",
"369 990 LINE SMOOTH",
"377 990 OFFCURVE",
"381 984 OFFCURVE",
"381 976 CURVE SMOOTH",
"381 20 LINE SMOOTH",
"381 6 OFFCURVE",
"385 0 OFFCURVE",
"397 0 CURVE SMOOTH",
"443 0 LINE SMOOTH",
"455 0 OFFCURVE",
"461 6 OFFCURVE",
"461 22 CURVE SMOOTH",
"461 976 LINE SMOOTH",
"461 986 OFFCURVE",
"465 990 OFFCURVE",
"475 990 CURVE SMOOTH",
"741 990 LINE SMOOTH",
"749 990 OFFCURVE",
"753 994 OFFCURVE",
"753 1002 CURVE SMOOTH",
"753 1048 LINE SMOOTH",
"753 1056 OFFCURVE",
"749 1060 OFFCURVE",
"743 1060 CURVE SMOOTH"
);
}
);
};
layerId = "91AB5BCA-6A50-42DA-B2F7-8181BF189245";
paths = (
{
closed = 1;
nodes = (
"347 0 LINE",
"481 966 LINE",
"743 966 LINE",
"753 1034 LINE",
"491 1034 LINE",
"517 1222 LINE SMOOTH",
"531 1322 OFFCURVE",
"563 1378 OFFCURVE",
"653 1378 CURVE SMOOTH",
"811 1378 LINE",
"819 1446 LINE",
"681 1446 LINE SMOOTH",
"537 1446 OFFCURVE",
"467 1366 OFFCURVE",
"443 1206 CURVE SMOOTH",
"419 1034 LINE",
"193 1034 LINE",
"183 966 LINE",
"411 966 LINE",
"275 0 LINE"
);
}
);
width = 830;
}
);
leftKerningGroup = t;
rightKerningGroup = t;
unicode = 0066;
},
{
glyphname = g;
lastChange = "2019-05-07 23:00:56 +0000";
layers = (
{
anchors = (
{
name = top;
position = "{770, 1034}";
}
);
background = {
anchors = (
{
name = top;
position = "{505, 1060}";
}
);
paths = (
{
closed = 1;
nodes = (
"1065 1124 OFFCURVE",
"953 1068 OFFCURVE",
"899 992 CURVE SMOOTH",
"885 972 OFFCURVE",
"857 970 OFFCURVE",
"837 986 CURVE SMOOTH",
"771 1038 OFFCURVE",
"655 1076 OFFCURVE",
"503 1076 CURVE SMOOTH",
"145 1076 OFFCURVE",
"-37 938 OFFCURVE",
"-37 746 CURVE SMOOTH",
"-37 624 OFFCURVE",
"39 530 OFFCURVE",
"171 474 CURVE SMOOTH",
"191 462 OFFCURVE",
"177 456 OFFCURVE",
"165 450 CURVE SMOOTH",
"57 404 OFFCURVE",
"-53 338 OFFCURVE",
"-53 244 CURVE SMOOTH",
"-53 162 OFFCURVE",
"9 112 OFFCURVE",
"79 78 CURVE SMOOTH",
"95 70 OFFCURVE",
"99 62 OFFCURVE",
"79 56 CURVE SMOOTH",
"-27 26 OFFCURVE",
"-115 -16 OFFCURVE",
"-115 -106 CURVE SMOOTH",
"-115 -274 OFFCURVE",
"89 -350 OFFCURVE",
"507 -350 CURVE SMOOTH",
"909 -350 OFFCURVE",
"1113 -198 OFFCURVE",
"1113 6 CURVE SMOOTH",
"1113 170 OFFCURVE",
"981 286 OFFCURVE",
"685 304 CURVE SMOOTH",
"381 322 LINE SMOOTH",
"323 326 OFFCURVE",
"293 334 OFFCURVE",
"293 364 CURVE SMOOTH",
"293 396 OFFCURVE",
"347 418 OFFCURVE",
"479 418 CURVE SMOOTH",
"815 418 OFFCURVE",
"993 568 OFFCURVE",
"993 748 CURVE SMOOTH",
"993 768 OFFCURVE",
"989 790 OFFCURVE",
"983 810 CURVE SMOOTH",
"975 838 OFFCURVE",
"985 856 OFFCURVE",
"1023 856 CURVE SMOOTH",
"1047 856 OFFCURVE",
"1085 850 OFFCURVE",
"1111 842 CURVE SMOOTH",
"1141 832 OFFCURVE",
"1163 848 OFFCURVE",
"1163 894 CURVE SMOOTH",
"1163 1074 LINE SMOOTH",
"1163 1110 OFFCURVE",
"1145 1124 OFFCURVE",
"1123 1124 CURVE SMOOTH"
);
},
{
closed = 1;
nodes = (
"375 600 OFFCURVE",
"319 668 OFFCURVE",
"319 740 CURVE SMOOTH",
"319 822 OFFCURVE",
"375 890 OFFCURVE",
"475 890 CURVE SMOOTH",
"587 890 OFFCURVE",
"631 822 OFFCURVE",
"631 740 CURVE SMOOTH",
"631 670 OFFCURVE",
"587 600 OFFCURVE",
"475 600 CURVE SMOOTH"
);
},
{
closed = 1;
nodes = (
"721 0 OFFCURVE",
"767 -32 OFFCURVE",
"767 -70 CURVE SMOOTH",
"767 -128 OFFCURVE",
"683 -172 OFFCURVE",
"527 -172 CURVE SMOOTH",
"277 -172 OFFCURVE",
"207 -128 OFFCURVE",
"207 -54 CURVE SMOOTH",
"207 -12 OFFCURVE",
"259 20 OFFCURVE",
"345 16 CURVE SMOOTH",
"635 4 LINE SMOOTH"
);
}
);
};
layerId = "258ED206-D907-4350-8EBA-CBDDA1C16BF7";
paths = (
{
closed = 1;
nodes = (
"897 -342 OFFCURVE",
"1105 -205 OFFCURVE",
"1132 -16 CURVE SMOOTH",
"1156 155 OFFCURVE",
"1041 295 OFFCURVE",
"748 314 CURVE SMOOTH",
"670 321 OFFCURVE",
"589 323 OFFCURVE",
"544 327 CURVE SMOOTH",
"472 333 OFFCURVE",
"411 343 OFFCURVE",
"404 375 CURVE SMOOTH",
"401 389 OFFCURVE",
"419 381 OFFCURVE",
"449 379 CURVE",
"474 377 OFFCURVE",
"545 374 OFFCURVE",
"586 374 CURVE SMOOTH",
"905 374 OFFCURVE",
"1094 543 OFFCURVE",
"1118 708 CURVE SMOOTH",
"1121 731 OFFCURVE",
"1120 769 OFFCURVE",
"1116 799 CURVE",
"1300 834 LINE",
"1332 1114 LINE",
"1212 1066 OFFCURVE",
"1056 1010 OFFCURVE",
"965 975 CURVE",
"902 1011 OFFCURVE",
"827 1050 OFFCURVE",
"670 1050 CURVE SMOOTH",
"366 1050 OFFCURVE",
"145 930 OFFCURVE",
"119 750 CURVE SMOOTH",
"102 629 OFFCURVE",
"163 490 OFFCURVE",
"295 426 CURVE",
"121 400 OFFCURVE",
"45 331 OFFCURVE",
"35 260 CURVE SMOOTH",
"17 135 OFFCURVE",
"134 85 OFFCURVE",
"154 73 CURVE",
"129 64 OFFCURVE",
"-56 41 OFFCURVE",
"-74 -82 CURVE SMOOTH",
"-94 -225 OFFCURVE",
"97 -342 OFFCURVE",
"514 -342 CURVE SMOOTH"
);
},
{
closed = 1;
nodes = (
"378 -138 OFFCURVE",
"297 -126 OFFCURVE",
"305 -71 CURVE SMOOTH",
"311 -26 OFFCURVE",
"354 23 OFFCURVE",
"461 17 CURVE SMOOTH",
"648 5 LINE SMOOTH",
"727 -1 OFFCURVE",
"763 -19 OFFCURVE",
"759 -52 CURVE SMOOTH",
"752 -101 OFFCURVE",
"712 -138 OFFCURVE",
"567 -138 CURVE SMOOTH"
);
},
{
closed = 1;
nodes = (
"526 578 OFFCURVE",
"492 625 OFFCURVE",
"501 692 CURVE SMOOTH",
"514 781 OFFCURVE",
"584 860 OFFCURVE",
"667 860 CURVE SMOOTH",
"732 860 OFFCURVE",
"765 803 OFFCURVE",
"755 736 CURVE SMOOTH",
"743 647 OFFCURVE",
"674 578 OFFCURVE",
"591 578 CURVE SMOOTH"
);
}
);
width = 1275;
},
{
anchors = (
{
name = top;
position = "{642, 1034}";
}
);
background = {
anchors = (
{
name = top;
position = "{421, 1060}";
}
);
guideLines = (
{
angle = 90;
position = "{154, 374}";
showMeasurement = 1;
}
);
paths = (
{
closed = 1;
nodes = (
"849 1060 OFFCURVE",
"789 1014 OFFCURVE",
"749 984 CURVE SMOOTH",
"735 974 OFFCURVE",
"727 974 OFFCURVE",
"713 986 CURVE SMOOTH",
"645 1044 OFFCURVE",
"559 1076 OFFCURVE",
"427 1076 CURVE SMOOTH",
"163 1076 OFFCURVE",
"7 950 OFFCURVE",
"7 738 CURVE SMOOTH",
"7 614 OFFCURVE",
"55 532 OFFCURVE",
"165 470 CURVE SMOOTH",
"179 462 OFFCURVE",
"183 450 OFFCURVE",
"167 446 CURVE SMOOTH",
"67 414 OFFCURVE",
"33 362 OFFCURVE",
"33 318 CURVE SMOOTH",
"33 274 OFFCURVE",
"55 242 OFFCURVE",
"109 218 CURVE SMOOTH",
"123 212 OFFCURVE",
"123 204 OFFCURVE",
"109 196 CURVE SMOOTH",
"-17 126 OFFCURVE",
"-75 42 OFFCURVE",
"-75 -54 CURVE SMOOTH",
"-75 -240 OFFCURVE",
"97 -350 OFFCURVE",
"405 -350 CURVE SMOOTH",
"707 -350 OFFCURVE",
"883 -238 OFFCURVE",
"883 -38 CURVE SMOOTH",
"883 120 OFFCURVE",
"789 220 OFFCURVE",
"575 232 CURVE SMOOTH",
"335 246 LINE SMOOTH",
"181 254 OFFCURVE",
"117 272 OFFCURVE",
"117 320 CURVE SMOOTH",
"117 368 OFFCURVE",
"183 418 OFFCURVE",
"413 418 CURVE SMOOTH",
"695 418 OFFCURVE",
"817 560 OFFCURVE",
"817 738 CURVE SMOOTH",
"817 822 OFFCURVE",
"789 868 OFFCURVE",
"775 902 CURVE SMOOTH",
"769 916 OFFCURVE",
"779 928 OFFCURVE",
"815 948 CURVE SMOOTH",
"847 966 OFFCURVE",
"873 974 OFFCURVE",
"925 976 CURVE SMOOTH",
"953 978 OFFCURVE",
"959 990 OFFCURVE",
"959 1008 CURVE SMOOTH",
"959 1034 LINE SMOOTH",
"959 1052 OFFCURVE",
"951 1060 OFFCURVE",
"921 1060 CURVE SMOOTH"
);
},
{
closed = 1;
nodes = (
"205 494 OFFCURVE",
"87 580 OFFCURVE",
"87 742 CURVE SMOOTH",
"87 906 OFFCURVE",
"207 1000 OFFCURVE",
"415 1000 CURVE SMOOTH",
"627 1000 OFFCURVE",
"737 908 OFFCURVE",
"737 742 CURVE SMOOTH",
"737 578 OFFCURVE",
"631 494 OFFCURVE",
"415 494 CURVE SMOOTH"
);
},
{
closed = 1;
nodes = (
"741 140 OFFCURVE",
"799 72 OFFCURVE",
"799 -38 CURVE SMOOTH",
"799 -202 OFFCURVE",
"667 -274 OFFCURVE",
"423 -274 CURVE SMOOTH",
"161 -274 OFFCURVE",
"9 -192 OFFCURVE",
"9 -46 CURVE SMOOTH",
"9 86 OFFCURVE",
"157 176 OFFCURVE",
"221 172 CURVE SMOOTH",
"573 150 LINE SMOOTH"
);
}
);
};
guideLines = (
{
angle = 90;
position = "{292, 347}";
showMeasurement = 1;
}
);
layerId = "91AB5BCA-6A50-42DA-B2F7-8181BF189245";
paths = (
{
closed = 1;
nodes = (
"691 -342 OFFCURVE",
"862 -234 OFFCURVE",
"887 -42 CURVE SMOOTH",
"907 116 OFFCURVE",
"833 214 OFFCURVE",
"640 226 CURVE SMOOTH",
"552 232 OFFCURVE",
"482 236 OFFCURVE",
"425 240 CURVE SMOOTH",
"275 252 OFFCURVE",
"234 266 OFFCURVE",
"241 318 CURVE SMOOTH",
"246 354 OFFCURVE",
"312 404 OFFCURVE",
"505 408 CURVE SMOOTH",
"510 408 OFFCURVE",
"516 408 OFFCURVE",
"525 408 CURVE SMOOTH",
"777 408 OFFCURVE",
"904 544 OFFCURVE",
"926 716 CURVE SMOOTH",
"933 770 OFFCURVE",
"920 850 OFFCURVE",
"905 890 CURVE",
"1082 932 LINE",
"1095 1049 LINE",
"1070 1039 OFFCURVE",
"901 965 OFFCURVE",
"874 952 CURVE",
"810 1017 OFFCURVE",
"734 1050 OFFCURVE",
"613 1050 CURVE SMOOTH",
"377 1050 OFFCURVE",
"222 928 OFFCURVE",
"196 724 CURVE SMOOTH",
"178 592 OFFCURVE",
"215 515 OFFCURVE",
"324 446 CURVE",
"226 415 OFFCURVE",
"172 368 OFFCURVE",
"165 314 CURVE SMOOTH",
"156 250 OFFCURVE",
"199 227 OFFCURVE",
"230 205 CURVE",
"197 177 OFFCURVE",
"41 106 OFFCURVE",
"21 -48 CURVE SMOOTH",
"-3 -232 OFFCURVE",
"141 -342 OFFCURVE",
"420 -342 CURVE SMOOTH"
);
},
{
closed = 1;
nodes = (
"203 -268 OFFCURVE",
"79 -190 OFFCURVE",
"97 -48 CURVE SMOOTH",
"114 82 OFFCURVE",
"261 172 OFFCURVE",
"318 168 CURVE SMOOTH",
"634 146 LINE SMOOTH",
"784 136 OFFCURVE",
"826 72 OFFCURVE",
"812 -34 CURVE SMOOTH",
"791 -194 OFFCURVE",
"624 -268 OFFCURVE",
"438 -268 CURVE SMOOTH"
);
},
{
closed = 1;
nodes = (
"340 482 OFFCURVE",
"247 564 OFFCURVE",
"267 720 CURVE SMOOTH",
"288 882 OFFCURVE",
"410 976 OFFCURVE",
"601 976 CURVE SMOOTH",
"773 976 OFFCURVE",
"878 898 OFFCURVE",
"855 728 CURVE SMOOTH",
"834 566 OFFCURVE",
"725 482 OFFCURVE",
"528 482 CURVE SMOOTH"
);
}
);
width = 1124;
}
);
leftKerningGroup = g;
rightKerningGroup = g;
unicode = 0067;
},
{
glyphname = gcommaaccent;
lastChange = "2019-05-07 23:00:56 +0000";
layers = (
{
anchors = (
{
name = _top;
position = "{694, 1034}";
}
);
background = {
anchors = (
{
name = _top;
position = "{530, 1100}";
}
);
components = (
{
name = g;
transform = "{1, 0, 0, 1, -38, 0}";
}
);
paths = (
{
closed = 1;
nodes = (
"624 1198 LINE SMOOTH",
"644 1198 OFFCURVE",
"660 1210 OFFCURVE",
"660 1238 CURVE SMOOTH",
"660 1360 LINE SMOOTH",
"660 1392 OFFCURVE",
"648 1404 OFFCURVE",
"614 1404 CURVE SMOOTH",
"596 1404 LINE SMOOTH",
"568 1404 OFFCURVE",
"556 1434 OFFCURVE",
"578 1462 CURVE SMOOTH",
"644 1552 LINE SMOOTH",
"656 1568 OFFCURVE",
"642 1592 OFFCURVE",
"620 1592 CURVE SMOOTH",
"584 1592 LINE SMOOTH",
"548 1592 OFFCURVE",
"534 1586 OFFCURVE",
"518 1564 CURVE SMOOTH",
"410 1430 LINE SMOOTH",
"408 1424 OFFCURVE",
"402 1414 OFFCURVE",
"402 1404 CURVE SMOOTH",
"402 1230 LINE SMOOTH",
"402 1210 OFFCURVE",
"414 1198 OFFCURVE",
"436 1198 CURVE SMOOTH"
);
}
);
};
components = (
{
name = g;
}
);
layerId = "258ED206-D907-4350-8EBA-CBDDA1C16BF7";
paths = (
{
closed = 1;
nodes = (
"814 1168 LINE",
"842 1368 LINE",
"720 1368 LINE",
"880 1552 LINE",
"748 1552 LINE",
"592 1384 LINE",
"562 1168 LINE"
);
}
);
width = 1275;
},
{
anchors = (
{
name = _top;
position = "{558, 1072}";
}
);
background = {
anchors = (
{
name = _top;
position = "{574, 1100}";
}
);
components = (
{
name = g;
transform = "{1, 0, 0, 1, 4, 0}";
}
);
paths = (
{
closed = 1;
nodes = (
"612 1264 LINE SMOOTH",
"620 1264 OFFCURVE",
"626 1268 OFFCURVE",
"626 1280 CURVE SMOOTH",
"626 1412 LINE SMOOTH",
"626 1426 OFFCURVE",
"622 1430 OFFCURVE",
"610 1430 CURVE SMOOTH",
"594 1430 LINE SMOOTH",
"584 1430 OFFCURVE",
"580 1436 OFFCURVE",
"586 1448 CURVE SMOOTH",
"636 1556 LINE SMOOTH",
"640 1564 OFFCURVE",
"636 1572 OFFCURVE",
"628 1572 CURVE SMOOTH",
"602 1572 LINE SMOOTH",
"586 1572 OFFCURVE",
"580 1570 OFFCURVE",
"574 1560 CURVE SMOOTH",
"512 1442 LINE SMOOTH",
"512 1440 OFFCURVE",
"510 1434 OFFCURVE",
"510 1430 CURVE SMOOTH",
"510 1278 LINE SMOOTH",
"510 1268 OFFCURVE",
"514 1264 OFFCURVE",
"522 1264 CURVE SMOOTH"
);
}
);
};
components = (
{
name = g;
}
);
layerId = "91AB5BCA-6A50-42DA-B2F7-8181BF189245";
paths = (
{
closed = 1;
nodes = (
"688 1232 LINE",
"712 1394 LINE",
"666 1394 LINE",
"750 1532 LINE",
"688 1532 LINE",
"600 1402 LINE",
"576 1232 LINE"
);
}
);
width = 1124;
}
);
leftKerningGroup = g;
leftMetricsKey = g;
rightKerningGroup = g;
rightMetricsKey = g;
unicode = 0123;
},
{
glyphname = h;
lastChange = "2019-05-07 23:00:56 +0000";
layers = (
{
anchors = (
{
name = bottom;
position = "{549, 0}";
},
{
name = top;
position = "{445, 1446}";
}
);
background = {
anchors = (
{
name = bottom;
position = "{635, 0}";
},
{
name = top;
position = "{913, 1060}";
}
);
paths = (
{
closed = 1;
nodes = (
"441 0 LINE SMOOTH",
"489 0 OFFCURVE",
"507 16 OFFCURVE",
"507 58 CURVE SMOOTH",
"507 698 LINE",
"545 766 OFFCURVE",
"593 798 OFFCURVE",
"655 798 CURVE SMOOTH",
"719 798 OFFCURVE",
"759 762 OFFCURVE",
"759 702 CURVE SMOOTH",
"759 50 LINE SMOOTH",
"759 12 OFFCURVE",
"771 0 OFFCURVE",
"805 0 CURVE SMOOTH",
"1099 0 LINE SMOOTH",
"1141 0 OFFCURVE",
"1159 20 OFFCURVE",
"1159 60 CURVE SMOOTH",
"1159 750 LINE SMOOTH",
"1159 962 OFFCURVE",
"1045 1080 OFFCURVE",
"847 1080 CURVE SMOOTH",
"741 1080 OFFCURVE",
"641 1046 OFFCURVE",
"527 936 CURVE SMOOTH",
"511 922 OFFCURVE",
"501 928 OFFCURVE",
"501 944 CURVE SMOOTH",
"501 1442 LINE SMOOTH",
"501 1468 OFFCURVE",
"489 1484 OFFCURVE",
"465 1484 CURVE SMOOTH",
"145 1484 LINE SMOOTH",
"121 1484 OFFCURVE",
"107 1466 OFFCURVE",
"107 1438 CURVE SMOOTH",
"107 50 LINE SMOOTH",
"107 14 OFFCURVE",
"121 0 OFFCURVE",
"159 0 CURVE SMOOTH"
);
}
);
};
layerId = "258ED206-D907-4350-8EBA-CBDDA1C16BF7";
paths = (
{
closed = 1;
nodes = (
"425 0 LINE",
"523 642 LINE",
"531 700 OFFCURVE",
"601 740 OFFCURVE",
"659 740 CURVE SMOOTH",
"717 740 OFFCURVE",
"775 704 OFFCURVE",
"765 646 CURVE SMOOTH",
"667 0 LINE",
"1055 0 LINE",
"1161 692 LINE SMOOTH",
"1191 898 OFFCURVE",
"1045 1034 OFFCURVE",
"853 1034 CURVE SMOOTH",
"691 1034 OFFCURVE",
"619 966 OFFCURVE",
"563 906 CURVE",
"651 1486 LINE",
"263 1486 LINE",
"37 0 LINE"
);
}
);
width = 1246;
},
{
anchors = (
{
name = bottom;
position = "{477, 0}";
},
{
name = top;
position = "{340, 1446}";
}
);
background = {
anchors = (
{
name = bottom;
position = "{601, 0}";
},
{
name = top;
position = "{645, 1060}";
}
);
paths = (
{
closed = 1;
nodes = (
"239 0 LINE SMOOTH",
"251 0 OFFCURVE",
"257 6 OFFCURVE",
"257 18 CURVE SMOOTH",
"257 820 LINE",
"417 942 OFFCURVE",
"511 1004 OFFCURVE",
"653 1004 CURVE SMOOTH",
"827 1004 OFFCURVE",
"899 910 OFFCURVE",
"899 754 CURVE SMOOTH",
"899 18 LINE SMOOTH",
"899 6 OFFCURVE",
"905 0 OFFCURVE",
"917 0 CURVE SMOOTH",
"961 0 LINE SMOOTH",
"973 0 OFFCURVE",
"979 6 OFFCURVE",
"979 20 CURVE SMOOTH",
"979 786 LINE SMOOTH",
"979 960 OFFCURVE",
"869 1080 OFFCURVE",
"655 1080 CURVE SMOOTH",
"509 1080 OFFCURVE",
"419 1022 OFFCURVE",
"267 914 CURVE SMOOTH",
"255 904 OFFCURVE",
"251 906 OFFCURVE",
"251 920 CURVE SMOOTH",
"251 1468 LINE SMOOTH",
"251 1480 OFFCURVE",
"247 1484 OFFCURVE",
"235 1484 CURVE SMOOTH",
"193 1484 LINE SMOOTH",
"181 1484 OFFCURVE",
"177 1478 OFFCURVE",
"177 1466 CURVE SMOOTH",
"177 18 LINE SMOOTH",
"177 6 OFFCURVE",
"183 0 OFFCURVE",
"195 0 CURVE SMOOTH"
);
}
);
};
layerId = "91AB5BCA-6A50-42DA-B2F7-8181BF189245";
paths = (
{
closed = 1;
nodes = (
"169 0 LINE",
"271 720 LINE",
"295 896 OFFCURVE",
"453 978 OFFCURVE",
"621 978 CURVE SMOOTH",
"783 978 OFFCURVE",
"871 888 OFFCURVE",
"849 736 CURVE SMOOTH",
"745 0 LINE",
"817 0 LINE",
"925 766 LINE SMOOTH",
"949 936 OFFCURVE",
"823 1054 OFFCURVE",
"635 1054 CURVE SMOOTH",
"479 1054 OFFCURVE",
"351 978 OFFCURVE",
"287 880 CURVE",
"373 1486 LINE",
"307 1486 LINE",
"97 0 LINE"
);
}
);
width = 1060;
}
);
leftKerningGroup = n;
leftMetricsKey = n;
rightKerningGroup = n;
rightMetricsKey = n;
unicode = 0068;
},
{
glyphname = hbar;
lastChange = "2019-05-07 23:00:56 +0000";
layers = (
{
background = {
components = (
{
name = h;
transform = "{1, 0, 0, 1, 12, 0}";
}
);
paths = (
{
closed = 1;
nodes = (
"766 1360 OFFCURVE",
"754 1374 OFFCURVE",
"734 1374 CURVE SMOOTH",
"56 1374 LINE SMOOTH",
"36 1374 OFFCURVE",
"24 1360 OFFCURVE",
"24 1334 CURVE SMOOTH",
"24 1204 LINE SMOOTH",
"24 1174 OFFCURVE",
"34 1160 OFFCURVE",
"68 1160 CURVE SMOOTH",
"708 1160 LINE SMOOTH",
"748 1160 OFFCURVE",
"766 1174 OFFCURVE",
"766 1208 CURVE SMOOTH",
"766 1338 LINE SMOOTH"
);
}
);
};
components = (
{
name = h;
transform = "{1, 0, 0, 1, 100, 0}";
}
);
layerId = "258ED206-D907-4350-8EBA-CBDDA1C16BF7";
paths = (
{
closed = 1;
nodes = (
"850 1132 LINE",
"878 1340 LINE",
"156 1340 LINE",
"128 1132 LINE"
);
}
);
width = 1346;
},
{
background = {
components = (
{
name = h;
transform = "{1, 0, 0, 1, 54, 0}";
}
);
paths = (
{
closed = 1;
nodes = (
"725 1320 OFFCURVE",
"721 1324 OFFCURVE",
"715 1324 CURVE SMOOTH",
"157 1324 LINE SMOOTH",
"151 1324 OFFCURVE",
"147 1320 OFFCURVE",
"147 1310 CURVE SMOOTH",
"147 1270 LINE SMOOTH",
"147 1258 OFFCURVE",
"149 1254 OFFCURVE",
"161 1254 CURVE SMOOTH",
"705 1254 LINE SMOOTH",
"719 1254 OFFCURVE",
"725 1258 OFFCURVE",
"725 1270 CURVE SMOOTH",
"725 1312 LINE SMOOTH"
);
}
);
};
components = (
{
name = h;
transform = "{1, 0, 0, 1, 99, 0}";
}
);
layerId = "91AB5BCA-6A50-42DA-B2F7-8181BF189245";
paths = (
{
closed = 1;
nodes = (
"705 1222 LINE",
"713 1290 LINE",
"149 1290 LINE",
"141 1222 LINE"
);
}
);
width = 1159;
}
);
leftKerningGroup = n;
rightKerningGroup = n;
rightMetricsKey = h;
unicode = 0127;
},
{
glyphname = i;
lastChange = "2019-05-07 23:00:41 +0000";
layers = (
{
anchors = (
{
name = bottom;
position = "{233, 0}";
}
);
background = {
paths = (
{
closed = 1;
nodes = (
"513 1044 OFFCURVE",
"499 1060 OFFCURVE",
"477 1060 CURVE SMOOTH",
"151 1060 LINE SMOOTH",
"127 1060 OFFCURVE",
"113 1044 OFFCURVE",
"113 1014 CURVE SMOOTH",
"113 50 LINE SMOOTH",
"113 16 OFFCURVE",
"125 0 OFFCURVE",
"165 0 CURVE SMOOTH",
"447 0 LINE SMOOTH",
"493 0 OFFCURVE",
"513 16 OFFCURVE",
"513 58 CURVE SMOOTH",
"513 1020 LINE SMOOTH"
);
},
{
closed = 1;
nodes = (
"513 1468 OFFCURVE",
"499 1484 OFFCURVE",
"477 1484 CURVE SMOOTH",
"151 1484 LINE SMOOTH",
"127 1484 OFFCURVE",
"113 1468 OFFCURVE",
"113 1438 CURVE SMOOTH",
"113 1200 LINE SMOOTH",
"113 1166 OFFCURVE",
"125 1148 OFFCURVE",
"165 1148 CURVE SMOOTH",
"447 1148 LINE SMOOTH",
"493 1148 OFFCURVE",
"513 1166 OFFCURVE",
"513 1206 CURVE SMOOTH",
"513 1442 LINE SMOOTH"
);
}
);
};
layerId = "258ED206-D907-4350-8EBA-CBDDA1C16BF7";
paths = (
{
closed = 1;
nodes = (
"425 0 LINE",
"581 1034 LINE",
"195 1034 LINE",
"37 0 LINE"
);
},
{
closed = 1;
nodes = (
"601 1158 LINE",
"651 1486 LINE",
"263 1486 LINE",
"213 1158 LINE"
);
}
);
width = 635;
},
{
anchors = (
{
name = bottom;
position = "{161, 0}";
}
);
background = {
paths = (
{
closed = 1;
nodes = (
"309 1056 OFFCURVE",
"305 1060 OFFCURVE",
"291 1060 CURVE SMOOTH",
"247 1060 LINE SMOOTH",
"233 1060 OFFCURVE",
"229 1056 OFFCURVE",
"229 1040 CURVE SMOOTH",
"229 20 LINE SMOOTH",
"229 4 OFFCURVE",
"233 0 OFFCURVE",
"251 0 CURVE SMOOTH",
"285 0 LINE SMOOTH",
"305 0 OFFCURVE",
"309 4 OFFCURVE",
"309 24 CURVE SMOOTH",
"309 1040 LINE SMOOTH"
);
},
{
closed = 1;
nodes = (
"319 1474 OFFCURVE",
"309 1484 OFFCURVE",
"295 1484 CURVE SMOOTH",
"243 1484 LINE SMOOTH",
"229 1484 OFFCURVE",
"219 1474 OFFCURVE",
"219 1458 CURVE SMOOTH",
"219 1316 LINE SMOOTH",
"219 1300 OFFCURVE",
"223 1288 OFFCURVE",
"241 1288 CURVE SMOOTH",
"295 1288 LINE SMOOTH",
"315 1288 OFFCURVE",
"319 1300 OFFCURVE",
"319 1320 CURVE SMOOTH",
"319 1458 LINE SMOOTH"
);
}
);
};
layerId = "91AB5BCA-6A50-42DA-B2F7-8181BF189245";
paths = (
{
closed = 1;
nodes = (
"199 0 LINE",
"343 1034 LINE",
"271 1034 LINE",
"127 0 LINE"
);
},
{
closed = 1;
nodes = (
"387 1294 LINE",
"405 1414 LINE",
"317 1414 LINE",
"299 1294 LINE"
);
}
);
width = 469;
}
);
leftKerningGroup = n;
rightKerningGroup = u;
unicode = 0069;
},
{
glyphname = idotless;
lastChange = "2019-05-07 23:01:45 +0000";
layers = (
{
anchors = (
{
name = ogonek;
position = "{373, 18}";
},
{
name = top;
position = "{395, 1034}";
}
);
background = {
anchors = (
{
name = ogonek;
position = "{423, 18}";
},
{
name = top;
position = "{287, 1060}";
}
);
paths = (
{
closed = 1;
nodes = (
"479 1044 OFFCURVE",
"465 1060 OFFCURVE",
"443 1060 CURVE SMOOTH",
"117 1060 LINE SMOOTH",
"93 1060 OFFCURVE",
"79 1044 OFFCURVE",
"79 1014 CURVE SMOOTH",
"79 50 LINE SMOOTH",
"79 16 OFFCURVE",
"91 0 OFFCURVE",
"131 0 CURVE SMOOTH",
"413 0 LINE SMOOTH",
"459 0 OFFCURVE",
"479 16 OFFCURVE",
"479 58 CURVE SMOOTH",
"479 1020 LINE SMOOTH"
);
}
);
};
layerId = "258ED206-D907-4350-8EBA-CBDDA1C16BF7";
paths = (
{
closed = 1;
nodes = (
"425 0 LINE",
"583 1034 LINE",
"195 1034 LINE",
"37 0 LINE"
);
}
);
width = 630;
},
{
anchors = (
{
name = ogonek;
position = "{179, 26}";
},
{
name = top;
position = "{297, 1034}";
}
);
background = {
anchors = (
{
name = ogonek;
position = "{257, 26}";
},
{
name = top;
position = "{233, 1060}";
}
);
paths = (
{
closed = 1;
nodes = (
"273 1056 OFFCURVE",
"269 1060 OFFCURVE",
"255 1060 CURVE SMOOTH",
"211 1060 LINE SMOOTH",
"197 1060 OFFCURVE",
"193 1056 OFFCURVE",
"193 1040 CURVE SMOOTH",
"193 20 LINE SMOOTH",
"193 4 OFFCURVE",
"197 0 OFFCURVE",
"215 0 CURVE SMOOTH",
"249 0 LINE SMOOTH",
"269 0 OFFCURVE",
"273 4 OFFCURVE",
"273 24 CURVE SMOOTH",
"273 1040 LINE SMOOTH"
);
}
);
};
layerId = "91AB5BCA-6A50-42DA-B2F7-8181BF189245";
paths = (
{
closed = 1;
nodes = (
"189 0 LINE",
"335 1034 LINE",
"263 1034 LINE",
"117 0 LINE"
);
}
);
width = 452;
}
);
leftKerningGroup = n;
leftMetricsKey = i;
rightKerningGroup = u;
rightMetricsKey = i;
unicode = 0131;
},
{
glyphname = j;
lastChange = "2019-05-07 23:00:41 +0000";
layers = (
{
background = {
paths = (
{
closed = 1;
nodes = (
"505 1020 LINE SMOOTH",
"505 1044 OFFCURVE",
"493 1060 OFFCURVE",
"469 1060 CURVE SMOOTH",
"145 1060 LINE SMOOTH",
"121 1060 OFFCURVE",
"105 1044 OFFCURVE",
"105 1014 CURVE SMOOTH",
"105 72 LINE SMOOTH",
"105 4 OFFCURVE",
"83 -12 OFFCURVE",
"57 -20 CURVE SMOOTH",
"-13 -32 LINE SMOOTH",
"-39 -38 OFFCURVE",
"-53 -64 OFFCURVE",
"-53 -86 CURVE SMOOTH",
"-51 -290 LINE SMOOTH",
"-51 -332 OFFCURVE",
"-27 -340 OFFCURVE",
"85 -340 CURVE SMOOTH",
"369 -340 OFFCURVE",
"505 -206 OFFCURVE",
"505 58 CURVE SMOOTH"
);
},
{
closed = 1;
nodes = (
"505 1468 OFFCURVE",
"493 1484 OFFCURVE",
"469 1484 CURVE SMOOTH",
"145 1484 LINE SMOOTH",
"121 1484 OFFCURVE",
"105 1468 OFFCURVE",
"105 1438 CURVE SMOOTH",
"105 1200 LINE SMOOTH",
"105 1166 OFFCURVE",
"119 1148 OFFCURVE",
"159 1148 CURVE SMOOTH",
"441 1148 LINE SMOOTH",
"441 1148 OFFCURVE",
"505 1166 OFFCURVE",
"505 1206 CURVE SMOOTH",
"505 1442 LINE SMOOTH"
);
}
);
};
layerId = "258ED206-D907-4350-8EBA-CBDDA1C16BF7";
paths = (
{
closed = 1;
nodes = (
"257 -332 OFFCURVE",
"409 -200 OFFCURVE",
"447 56 CURVE SMOOTH",
"597 1034 LINE",
"209 1034 LINE",
"61 56 LINE",
"55 14 OFFCURVE",
"31 -12 OFFCURVE",
"-45 -28 CURVE",
"-107 -38 LINE",
"-145 -298 LINE",
"-145 -298 OFFCURVE",
"-119 -332 OFFCURVE",
"-17 -332 CURVE"
);
},
{
closed = 1;
nodes = (
"615 1158 LINE",
"665 1486 LINE",
"277 1486 LINE",
"227 1158 LINE"
);
}
);
width = 649;
},
{
background = {
paths = (
{
closed = 1;
nodes = (
"285 1040 LINE SMOOTH",
"285 1054 OFFCURVE",
"281 1060 OFFCURVE",
"269 1060 CURVE SMOOTH",
"225 1060 LINE SMOOTH",
"211 1060 OFFCURVE",
"205 1054 OFFCURVE",
"205 1040 CURVE SMOOTH",
"205 -92 LINE SMOOTH",
"205 -220 OFFCURVE",
"163 -264 OFFCURVE",
"57 -266 CURVE SMOOTH",
"-59 -268 LINE SMOOTH",
"-67 -268 OFFCURVE",
"-71 -272 OFFCURVE",
"-71 -280 CURVE SMOOTH",
"-71 -322 LINE SMOOTH",
"-71 -338 OFFCURVE",
"-59 -340 OFFCURVE",
"59 -340 CURVE SMOOTH",
"241 -340 OFFCURVE",
"285 -266 OFFCURVE",
"285 -102 CURVE SMOOTH"
);
},
{
closed = 1;
nodes = (
"295 1474 OFFCURVE",
"285 1484 OFFCURVE",
"271 1484 CURVE SMOOTH",
"219 1484 LINE SMOOTH",
"205 1484 OFFCURVE",
"195 1474 OFFCURVE",
"195 1458 CURVE SMOOTH",
"195 1316 LINE SMOOTH",
"195 1300 OFFCURVE",
"199 1288 OFFCURVE",
"217 1288 CURVE SMOOTH",
"271 1288 LINE SMOOTH",
"291 1288 OFFCURVE",
"295 1300 OFFCURVE",
"295 1320 CURVE SMOOTH",
"295 1458 LINE SMOOTH"
);
}
);
};
layerId = "91AB5BCA-6A50-42DA-B2F7-8181BF189245";
paths = (
{
closed = 1;
nodes = (
"101 -332 OFFCURVE",
"149 -260 OFFCURVE",
"171 -100 CURVE SMOOTH",
"331 1034 LINE",
"259 1034 LINE",
"101 -90 LINE SMOOTH",
"83 -214 OFFCURVE",
"41 -258 OFFCURVE",
"-55 -260 CURVE SMOOTH",
"-169 -262 LINE",
"-177 -314 LINE SMOOTH",
"-177 -314 OFFCURVE",
"-171 -332 OFFCURVE",
"-63 -332 CURVE SMOOTH"
);
},
{
closed = 1;
nodes = (
"377 1294 LINE",
"393 1414 LINE",
"305 1414 LINE",
"289 1294 LINE"
);
}
);
width = 448;
}
);
leftKerningGroup = n;
rightKerningGroup = u;
unicode = 006A;
},
{
glyphname = jdotless;
lastChange = "2019-05-07 23:00:41 +0000";
layers = (
{
anchors = (
{
name = top;
position = "{401, 1034}";
}
);
background = {
anchors = (
{
name = top;
position = "{269, 1060}";
}
);
paths = (
{
closed = 1;
nodes = (
"469 1020 LINE SMOOTH",
"469 1044 OFFCURVE",
"457 1060 OFFCURVE",
"433 1060 CURVE SMOOTH",
"109 1060 LINE SMOOTH",
"85 1060 OFFCURVE",
"69 1044 OFFCURVE",
"69 1014 CURVE SMOOTH",
"69 72 LINE SMOOTH",
"69 4 OFFCURVE",
"47 -12 OFFCURVE",
"21 -20 CURVE SMOOTH",
"-49 -32 LINE SMOOTH",
"-75 -38 OFFCURVE",
"-89 -64 OFFCURVE",
"-89 -86 CURVE SMOOTH",
"-87 -290 LINE SMOOTH",
"-87 -332 OFFCURVE",
"-63 -340 OFFCURVE",
"49 -340 CURVE SMOOTH",
"333 -340 OFFCURVE",
"469 -206 OFFCURVE",
"469 58 CURVE SMOOTH"
);
}
);
};
layerId = "258ED206-D907-4350-8EBA-CBDDA1C16BF7";
paths = (
{
closed = 1;
nodes = (
"257 -332 OFFCURVE",
"409 -200 OFFCURVE",
"449 56 CURVE SMOOTH",
"597 1034 LINE",
"209 1034 LINE",
"61 56 LINE",
"55 14 OFFCURVE",
"29 -12 OFFCURVE",
"-47 -28 CURVE",
"-107 -38 LINE",
"-145 -298 LINE",
"-145 -298 OFFCURVE",
"-121 -332 OFFCURVE",
"-19 -332 CURVE"
);
}
);
width = 644;
},
{
anchors = (
{
name = top;
position = "{297, 1034}";
}
);
background = {
anchors = (
{
name = top;
position = "{219, 1060}";
}
);
paths = (
{
closed = 1;
nodes = (
"259 1040 LINE SMOOTH",
"259 1054 OFFCURVE",
"255 1060 OFFCURVE",
"243 1060 CURVE SMOOTH",
"199 1060 LINE SMOOTH",
"185 1060 OFFCURVE",
"179 1054 OFFCURVE",
"179 1040 CURVE SMOOTH",
"179 -92 LINE SMOOTH",
"179 -220 OFFCURVE",
"137 -264 OFFCURVE",
"31 -266 CURVE SMOOTH",
"-85 -268 LINE SMOOTH",
"-93 -268 OFFCURVE",
"-97 -272 OFFCURVE",
"-97 -280 CURVE SMOOTH",
"-97 -322 LINE SMOOTH",
"-97 -338 OFFCURVE",
"-85 -340 OFFCURVE",
"33 -340 CURVE SMOOTH",
"215 -340 OFFCURVE",
"259 -266 OFFCURVE",
"259 -102 CURVE SMOOTH"
);
}
);
};
layerId = "91AB5BCA-6A50-42DA-B2F7-8181BF189245";
paths = (
{
closed = 1;
nodes = (
"101 -332 OFFCURVE",
"151 -260 OFFCURVE",
"173 -100 CURVE SMOOTH",
"333 1034 LINE",
"261 1034 LINE",
"103 -90 LINE SMOOTH",
"85 -214 OFFCURVE",
"41 -258 OFFCURVE",
"-53 -260 CURVE SMOOTH",
"-169 -262 LINE",
"-177 -314 LINE SMOOTH",
"-179 -330 OFFCURVE",
"-169 -332 OFFCURVE",
"-61 -332 CURVE SMOOTH"
);
}
);
width = 440;
}
);
leftKerningGroup = n;
leftMetricsKey = j;
rightKerningGroup = u;
rightMetricsKey = j;
unicode = 0237;
},
{
glyphname = k;
lastChange = "2019-05-07 23:01:45 +0000";
layers = (
{
anchors = (
{
name = bottom;
position = "{539, 0}";
}
);
background = {
anchors = (
{
name = bottom;
position = "{627, 0}";
}
);
paths = (
{
closed = 1;
nodes = (
"933 674 LINE SMOOTH",
"915 710 OFFCURVE",
"919 722 OFFCURVE",
"937 744 CURVE SMOOTH",
"1195 1002 LINE SMOOTH",
"1221 1030 OFFCURVE",
"1213 1060 OFFCURVE",
"1167 1060 CURVE SMOOTH",
"893 1060 LINE SMOOTH",
"873 1060 OFFCURVE",
"851 1046 OFFCURVE",
"831 1026 CURVE SMOOTH",
"531 688 LINE SMOOTH",
"515 670 OFFCURVE",
"507 680 OFFCURVE",
"507 692 CURVE SMOOTH",
"507 1442 LINE SMOOTH",
"507 1468 OFFCURVE",
"495 1484 OFFCURVE",
"471 1484 CURVE SMOOTH",
"145 1484 LINE SMOOTH",
"123 1484 OFFCURVE",
"107 1468 OFFCURVE",
"107 1438 CURVE SMOOTH",
"107 50 LINE SMOOTH",
"107 16 OFFCURVE",
"119 0 OFFCURVE",
"161 0 CURVE SMOOTH",
"443 0 LINE SMOOTH",
"489 0 OFFCURVE",
"507 16 OFFCURVE",
"507 58 CURVE SMOOTH",
"507 260 LINE SMOOTH",
"507 292 OFFCURVE",
"513 306 OFFCURVE",
"525 316 CURVE SMOOTH",
"621 406 LINE SMOOTH",
"641 426 OFFCURVE",
"651 422 OFFCURVE",
"663 396 CURVE SMOOTH",
"807 52 LINE SMOOTH",
"821 20 OFFCURVE",
"839 0 OFFCURVE",
"873 0 CURVE SMOOTH",
"1215 0 LINE SMOOTH",
"1251 0 OFFCURVE",
"1265 34 OFFCURVE",
"1253 56 CURVE SMOOTH"
);
}
);
};
guideLines = (
{
angle = 50.4927;
position = "{271, 343}";
},
{
angle = 122;
position = "{412, 0}";
}
);
layerId = "258ED206-D907-4350-8EBA-CBDDA1C16BF7";
paths = (
{
closed = 1;
nodes = (
"423 0 LINE",
"469 292 LINE",
"557 380 LINE",
"735 0 LINE",
"1111 0 LINE",
"825 606 LINE",
"1267 1034 LINE",
"863 1034 LINE",
"527 686 LINE",
"649 1486 LINE",
"261 1486 LINE",
"37 0 LINE"
);
}
);
width = 1224;
},
{
anchors = (
{
name = bottom;
position = "{423, 0}";
}
);
background = {
anchors = (
{
name = bottom;
position = "{539, 0}";
}
);
paths = (
{
closed = 1;
nodes = (
"605 662 LINE SMOOTH",
"599 672 OFFCURVE",
"601 678 OFFCURVE",
"607 684 CURVE SMOOTH",
"945 1030 LINE SMOOTH",
"963 1048 OFFCURVE",
"961 1060 OFFCURVE",
"941 1060 CURVE SMOOTH",
"877 1060 LINE SMOOTH",
"863 1060 OFFCURVE",
"857 1056 OFFCURVE",
"843 1040 CURVE",
"275 458 LINE SMOOTH",
"259 442 OFFCURVE",
"255 444 OFFCURVE",
"255 468 CURVE SMOOTH",
"255 1464 LINE SMOOTH",
"255 1480 OFFCURVE",
"251 1484 OFFCURVE",
"237 1484 CURVE SMOOTH",
"193 1484 LINE SMOOTH",
"179 1484 OFFCURVE",
"175 1480 OFFCURVE",
"175 1464 CURVE SMOOTH",
"175 20 LINE SMOOTH",
"175 4 OFFCURVE",
"179 0 OFFCURVE",
"197 0 CURVE SMOOTH",
"231 0 LINE SMOOTH",
"251 0 OFFCURVE",
"255 4 OFFCURVE",
"255 24 CURVE SMOOTH",
"255 304 LINE SMOOTH",
"255 318 OFFCURVE",
"259 328 OFFCURVE",
"269 338 CURVE SMOOTH",
"525 598 LINE SMOOTH",
"535 608 OFFCURVE",
"537 604 OFFCURVE",
"541 598 CURVE SMOOTH",
"905 14 LINE SMOOTH",
"911 4 OFFCURVE",
"917 0 OFFCURVE",
"929 0 CURVE SMOOTH",
"991 0 LINE SMOOTH",
"1009 0 OFFCURVE",
"1011 8 OFFCURVE",
"1001 24 CURVE SMOOTH"
);
}
);
};
guideLines = (
{
angle = 121.8697;
position = "{287, 140}";
}
);
layerId = "91AB5BCA-6A50-42DA-B2F7-8181BF189245";
paths = (
{
closed = 1;
nodes = (
"169 0 LINE",
"213 316 LINE",
"503 592 LINE",
"757 0 LINE",
"849 0 LINE",
"567 658 LINE",
"961 1034 LINE",
"859 1034 LINE",
"229 428 LINE",
"377 1486 LINE",
"307 1486 LINE",
"97 0 LINE"
);
}
);
width = 1022;
}
);
leftKerningGroup = n;
leftMetricsKey = n;
rightKerningGroup = x;
unicode = 006B;
},
{
glyphname = kgreenlandic;
lastChange = "2019-05-07 23:01:45 +0000";
layers = (
{
background = {
paths = (
{
closed = 1;
nodes = (
"901 674 LINE SMOOTH",
"883 710 OFFCURVE",
"887 722 OFFCURVE",
"905 744 CURVE SMOOTH",
"1163 1002 LINE SMOOTH",
"1189 1030 OFFCURVE",
"1181 1060 OFFCURVE",
"1135 1060 CURVE SMOOTH",
"861 1060 LINE SMOOTH",
"841 1060 OFFCURVE",
"819 1046 OFFCURVE",
"799 1026 CURVE SMOOTH",
"499 688 LINE SMOOTH",
"483 670 OFFCURVE",
"475 680 OFFCURVE",
"475 692 CURVE SMOOTH",
"475 1018 LINE SMOOTH",
"475 1044 OFFCURVE",
"463 1060 OFFCURVE",
"439 1060 CURVE SMOOTH",
"113 1060 LINE SMOOTH",
"91 1060 OFFCURVE",
"75 1044 OFFCURVE",
"75 1014 CURVE SMOOTH",
"75 50 LINE SMOOTH",
"75 16 OFFCURVE",
"87 0 OFFCURVE",
"129 0 CURVE SMOOTH",
"411 0 LINE SMOOTH",
"457 0 OFFCURVE",
"475 16 OFFCURVE",
"475 58 CURVE SMOOTH",
"475 260 LINE SMOOTH",
"475 292 OFFCURVE",
"481 306 OFFCURVE",
"493 316 CURVE SMOOTH",
"589 406 LINE SMOOTH",
"609 426 OFFCURVE",
"619 422 OFFCURVE",
"631 396 CURVE SMOOTH",
"775 52 LINE SMOOTH",
"789 20 OFFCURVE",
"807 0 OFFCURVE",
"841 0 CURVE SMOOTH",
"1183 0 LINE SMOOTH",
"1219 0 OFFCURVE",
"1233 34 OFFCURVE",
"1221 56 CURVE SMOOTH"
);
}
);
};
layerId = "258ED206-D907-4350-8EBA-CBDDA1C16BF7";
paths = (
{
closed = 1;
nodes = (
"425 0 LINE",
"469 292 LINE",
"625 422 LINE",
"737 0 LINE",
"1173 0 LINE",
"923 700 LINE",
"1303 1034 LINE",
"923 1034 LINE",
"523 644 LINE",
"581 1034 LINE",
"195 1034 LINE",
"37 0 LINE"
);
}
);
width = 1276;
},
{
background = {
paths = (
{
closed = 1;
nodes = (
"573 662 LINE SMOOTH",
"567 672 OFFCURVE",
"569 678 OFFCURVE",
"575 684 CURVE SMOOTH",
"913 1030 LINE SMOOTH",
"931 1048 OFFCURVE",
"929 1060 OFFCURVE",
"909 1060 CURVE SMOOTH",
"845 1060 LINE SMOOTH",
"831 1060 OFFCURVE",
"825 1056 OFFCURVE",
"811 1040 CURVE",
"243 458 LINE SMOOTH",
"227 442 OFFCURVE",
"223 444 OFFCURVE",
"223 468 CURVE SMOOTH",
"223 1040 LINE SMOOTH",
"223 1056 OFFCURVE",
"219 1060 OFFCURVE",
"205 1060 CURVE SMOOTH",
"161 1060 LINE SMOOTH",
"147 1060 OFFCURVE",
"143 1056 OFFCURVE",
"143 1040 CURVE SMOOTH",
"143 20 LINE SMOOTH",
"143 4 OFFCURVE",
"147 0 OFFCURVE",
"165 0 CURVE SMOOTH",
"199 0 LINE SMOOTH",
"219 0 OFFCURVE",
"223 4 OFFCURVE",
"223 24 CURVE SMOOTH",
"223 304 LINE SMOOTH",
"223 318 OFFCURVE",
"227 328 OFFCURVE",
"237 338 CURVE SMOOTH",
"493 598 LINE SMOOTH",
"503 608 OFFCURVE",
"505 604 OFFCURVE",
"509 598 CURVE SMOOTH",
"873 14 LINE SMOOTH",
"879 4 OFFCURVE",
"885 0 OFFCURVE",
"897 0 CURVE SMOOTH",
"959 0 LINE SMOOTH",
"977 0 OFFCURVE",
"979 8 OFFCURVE",
"969 24 CURVE SMOOTH"
);
}
);
};
layerId = "91AB5BCA-6A50-42DA-B2F7-8181BF189245";
paths = (
{
closed = 1;
nodes = (
"169 0 LINE",
"213 316 LINE",
"503 592 LINE",
"757 0 LINE",
"849 0 LINE",
"567 658 LINE",
"959 1034 LINE",
"859 1034 LINE",
"229 428 LINE",
"315 1034 LINE",
"243 1034 LINE",
"97 0 LINE"
);
}
);
width = 1022;
}
);
leftKerningGroup = n;
leftMetricsKey = k;
rightKerningGroup = x;
rightMetricsKey = k;
unicode = 0138;
},
{
glyphname = l;
lastChange = "2019-05-07 23:00:56 +0000";
layers = (
{
anchors = (
{
name = bottom;
position = "{199, 0}";
},
{
name = top;
position = "{459, 1530}";
},
{
name = topright;
position = "{941, 1530}";
}
);
background = {
anchors = (
{
name = bottom;
position = "{191, 0}";
},
{
name = top;
position = "{303, 1484}";
},
{
name = topright;
position = "{677, 1060}";
}
);
paths = (
{
closed = 1;
nodes = (
"657 258 LINE",
"657 258 OFFCURVE",
"605 262 OFFCURVE",
"587 266 CURVE SMOOTH",
"509 284 OFFCURVE",
"495 326 OFFCURVE",
"495 380 CURVE SMOOTH",
"495 1484 LINE",
"101 1484 LINE",
"95 346 LINE",
"95 190 OFFCURVE",
"117 -2 OFFCURVE",
"507 4 CURVE SMOOTH",
"559 6 OFFCURVE",
"591 10 OFFCURVE",
"657 18 CURVE"
);
}
);
};
layerId = "258ED206-D907-4350-8EBA-CBDDA1C16BF7";
leftMetricsKey = "=n";
paths = (
{
closed = 1;
nodes = (
"471 -22 OFFCURVE",
"523 -8 OFFCURVE",
"571 10 CURVE",
"607 246 LINE",
"567 250 LINE",
"465 264 OFFCURVE",
"461 314 OFFCURVE",
"469 364 CURVE SMOOTH",
"639 1486 LINE",
"259 1486 LINE",
"81 312 LINE",
"59 160 OFFCURVE",
"43 -22 OFFCURVE",
"423 -22 CURVE SMOOTH"
);
}
);
width = 685;
},
{
anchors = (
{
name = bottom;
position = "{161, 2}";
},
{
name = top;
position = "{331, 1524}";
},
{
name = topright;
position = "{581, 1446}";
}
);
background = {
anchors = (
{
name = bottom;
position = "{221, 0}";
},
{
name = top;
position = "{221, 1484}";
},
{
name = topright;
position = "{511, 1484}";
}
);
paths = (
{
closed = 1;
nodes = (
"481 72 LINE",
"461 72 OFFCURVE",
"435 72 OFFCURVE",
"403 72 CURVE SMOOTH",
"275 72 OFFCURVE",
"261 174 OFFCURVE",
"261 260 CURVE",
"261 1484 LINE",
"181 1484 LINE",
"181 260 LINE",
"181 114 OFFCURVE",
"237 4 OFFCURVE",
"379 4 CURVE SMOOTH",
"427 4 OFFCURVE",
"455 6 OFFCURVE",
"481 12 CURVE"
);
}
);
};
layerId = "91AB5BCA-6A50-42DA-B2F7-8181BF189245";
paths = (
{
closed = 1;
nodes = (
"275 -8 OFFCURVE",
"301 -6 OFFCURVE",
"325 0 CURVE",
"333 58 LINE",
"275 58 LINE",
"223 58 OFFCURVE",
"175 108 OFFCURVE",
"193 242 CURVE",
"369 1486 LINE",
"297 1486 LINE",
"121 242 LINE",
"101 100 OFFCURVE",
"137 -8 OFFCURVE",
"263 -8 CURVE SMOOTH"
);
}
);
width = 518;
}
);
leftKerningGroup = n;
leftMetricsKey = "=n-10";
rightKerningGroup = l;
rightMetricsKey = "=x+20";
unicode = 006C;
},
{
glyphname = lslash;
lastChange = "2019-05-07 23:00:56 +0000";
layers = (
{
background = {
components = (
{
name = l;
transform = "{1, 0, 0, 1, 49, 0}";
}
);
paths = (
{
closed = 1;
nodes = (
"705 1014 OFFCURVE",
"691 1022 OFFCURVE",
"657 1000 CURVE SMOOTH",
"95 648 LINE SMOOTH",
"71 632 OFFCURVE",
"57 610 OFFCURVE",
"57 580 CURVE SMOOTH",
"57 340 LINE SMOOTH",
"57 306 OFFCURVE",
"69 300 OFFCURVE",
"109 326 CURVE SMOOTH",
"665 690 LINE SMOOTH",
"691 708 OFFCURVE",
"705 732 OFFCURVE",
"705 756 CURVE SMOOTH",
"705 982 LINE SMOOTH"
);
}
);
};
components = (
{
name = l;
transform = "{1, 0, 0, 1, 173, 0}";
}
);
layerId = "258ED206-D907-4350-8EBA-CBDDA1C16BF7";
paths = (
{
closed = 1;
nodes = (
"725 698 LINE",
"725 1004 LINE",
"93 608 LINE",
"93 284 LINE"
);
}
);
width = 858;
},
{
background = {
components = (
{
name = l;
transform = "{1, 0, 0, 1, 52, 0}";
}
);
paths = (
{
closed = 1;
nodes = (
"514 874 OFFCURVE",
"510 878 OFFCURVE",
"500 870 CURVE SMOOTH",
"50 450 LINE SMOOTH",
"44 444 OFFCURVE",
"40 438 OFFCURVE",
"40 430 CURVE SMOOTH",
"40 372 LINE SMOOTH",
"40 362 OFFCURVE",
"44 354 OFFCURVE",
"54 362 CURVE SMOOTH",
"502 784 LINE SMOOTH",
"510 792 OFFCURVE",
"514 798 OFFCURVE",
"514 806 CURVE SMOOTH",
"514 866 LINE SMOOTH"
);
}
);
};
components = (
{
name = l;
transform = "{1, 0, 0, 1, 46, 0}";
}
);
layerId = "91AB5BCA-6A50-42DA-B2F7-8181BF189245";
paths = (
{
closed = 1;
nodes = (
"500 776 LINE",
"500 862 LINE",
"38 430 LINE",
"38 340 LINE"
);
}
);
width = 604;
}
);
leftKerningGroup = n;
rightKerningGroup = l;
unicode = 0142;
},
